STARTFONT 2.1
FONT -FontForge-Lobster-Book-R-Normal--14-140-72-72-P-81-ISO10646-1
SIZE 14 72 72
FONTBOUNDINGBOX 28 21 -6 -6
COMMENT "Generated by fontforge, http://fontforge.sourceforge.net"
COMMENT "Copyright 2010 The Lobster Project Authors (https://github.com/impallari/The-Lobster-Font), with Reserved Font Name "Lobster"."
STARTPROPERTIES 40
FOUNDRY "FontForge"
FAMILY_NAME "Lobster"
WEIGHT_NAME "Book"
SLANT "R"
SETWIDTH_NAME "Normal"
ADD_STYLE_NAME ""
PIXEL_SIZE 14
POINT_SIZE 140
RESOLUTION_X 72
RESOLUTION_Y 72
SPACING "P"
AVERAGE_WIDTH 81
CHARSET_REGISTRY "ISO10646"
CHARSET_ENCODING "1"
FONTNAME_REGISTRY ""
CHARSET_COLLECTIONS "ISO8859-2 ISO8859-5 ISO8859-9 ISO8859-4 ISO10646-1"
FONT_NAME "Lobster-Regular"
FACE_NAME "Lobster Regular"
COPYRIGHT "Copyright 2010 The Lobster Project Authors (https://github.com/impallari/The-Lobster-Font), with Reserved Font Name "Lobster"."
FONT_VERSION "2.100"
FONT_ASCENT 11
FONT_DESCENT 3
UNDERLINE_POSITION -1
UNDERLINE_THICKNESS 1
X_HEIGHT 6
CAP_HEIGHT 9
DEFAULT_CHAR 1
RAW_ASCENT 800
RAW_DESCENT 200
NORM_SPACE 3
RELATIVE_WEIGHT 40
RELATIVE_SETWIDTH 50
SUPERSCRIPT_X 0
SUPERSCRIPT_Y 4
SUPERSCRIPT_SIZE 8
SUBSCRIPT_X 0
SUBSCRIPT_Y 1
SUBSCRIPT_SIZE 8
AVG_LOWERCASE_WIDTH 64
AVG_UPPERCASE_WIDTH 85
ENDPROPERTIES
CHARS 1148
STARTCHAR NULL.dup1
ENCODING 0
SWIDTH 600 0
DWIDTH 8 0
BBX 1 1 0 0
BITMAP
00
ENDCHAR
STARTCHAR nonmarkingreturn
ENCODING 13
SWIDTH 600 0
DWIDTH 8 0
BBX 1 1 0 0
BITMAP
00
ENDCHAR
STARTCHAR space
ENCODING 32
SWIDTH 217 0
DWIDTH 3 0
BBX 1 1 0 0
BITMAP
00
ENDCHAR
STARTCHAR exclam
ENCODING 33
SWIDTH 257 0
DWIDTH 4 0
BBX 5 11 0 0
BITMAP
18
30
30
30
20
20
20
60
00
E0
40
ENDCHAR
STARTCHAR quotedbl
ENCODING 34
SWIDTH 353 0
DWIDTH 5 0
BBX 5 3 1 7
BITMAP
78
50
B0
ENDCHAR
STARTCHAR numbersign
ENCODING 35
SWIDTH 659 0
DWIDTH 9 0
BBX 7 9 1 1
BITMAP
14
24
24
FE
24
28
FE
48
48
ENDCHAR
STARTCHAR dollar
ENCODING 36
SWIDTH 548 0
DWIDTH 8 0
BBX 7 14 0 -2
BITMAP
04
04
1E
3A
3A
38
18
0C
76
D6
D4
78
20
20
ENDCHAR
STARTCHAR percent
ENCODING 37
SWIDTH 796 0
DWIDTH 11 0
BBX 10 10 1 0
BITMAP
7100
D200
9200
9400
B5C0
EA40
1240
1240
2280
6380
ENDCHAR
STARTCHAR ampersand
ENCODING 38
SWIDTH 682 0
DWIDTH 10 0
BBX 9 10 0 0
BITMAP
1E00
3200
3600
3000
1880
7780
6700
E200
E200
7C00
ENDCHAR
STARTCHAR quotesingle
ENCODING 39
SWIDTH 196 0
DWIDTH 3 0
BBX 3 3 1 7
BITMAP
60
40
80
ENDCHAR
STARTCHAR parenleft
ENCODING 40
SWIDTH 437 0
DWIDTH 6 0
BBX 5 14 2 -3
BITMAP
08
18
30
20
60
40
C0
C0
C0
C0
C0
40
40
20
ENDCHAR
STARTCHAR parenright
ENCODING 41
SWIDTH 413 0
DWIDTH 6 0
BBX 5 14 -1 -3
BITMAP
10
10
18
08
08
08
08
08
18
18
10
30
60
C0
ENDCHAR
STARTCHAR asterisk
ENCODING 42
SWIDTH 515 0
DWIDTH 7 0
BBX 5 5 1 5
BITMAP
B8
70
F8
A8
20
ENDCHAR
STARTCHAR plus
ENCODING 43
SWIDTH 442 0
DWIDTH 6 0
BBX 6 5 0 2
BITMAP
10
10
FC
20
20
ENDCHAR
STARTCHAR comma
ENCODING 44
SWIDTH 216 0
DWIDTH 3 0
BBX 2 4 0 -2
BITMAP
40
C0
40
80
ENDCHAR
STARTCHAR hyphen
ENCODING 45
SWIDTH 290 0
DWIDTH 4 0
BBX 3 1 0 3
BITMAP
E0
ENDCHAR
STARTCHAR period
ENCODING 46
SWIDTH 263 0
DWIDTH 4 0
BBX 3 2 0 0
BITMAP
E0
40
ENDCHAR
STARTCHAR slash
ENCODING 47
SWIDTH 311 0
DWIDTH 4 0
BBX 4 13 0 -3
BITMAP
10
10
10
20
20
20
20
40
40
40
40
80
80
ENDCHAR
STARTCHAR zero
ENCODING 48
SWIDTH 546 0
DWIDTH 8 0
BBX 8 10 0 0
BITMAP
1E
32
63
63
63
E2
C6
C6
6C
78
ENDCHAR
STARTCHAR one
ENCODING 49
SWIDTH 317 0
DWIDTH 4 0
BBX 5 10 0 0
BITMAP
18
70
30
30
30
60
60
60
60
C0
ENDCHAR
STARTCHAR two
ENCODING 50
SWIDTH 492 0
DWIDTH 7 0
BBX 7 10 0 0
BITMAP
3C
4C
46
6C
0C
10
20
42
FC
BC
ENDCHAR
STARTCHAR three
ENCODING 51
SWIDTH 514 0
DWIDTH 7 0
BBX 7 10 0 0
BITMAP
3C
26
76
04
18
0C
66
C6
CC
78
ENDCHAR
STARTCHAR four
ENCODING 52
SWIDTH 476 0
DWIDTH 7 0
BBX 7 10 0 0
BITMAP
18
18
14
24
4C
7E
9C
18
18
18
ENDCHAR
STARTCHAR five
ENCODING 53
SWIDTH 517 0
DWIDTH 7 0
BBX 7 10 0 0
BITMAP
3E
3E
20
7C
4C
06
66
C6
CC
78
ENDCHAR
STARTCHAR six
ENCODING 54
SWIDTH 500 0
DWIDTH 7 0
BBX 7 10 0 0
BITMAP
1E
32
66
60
FC
E6
C6
C6
4C
78
ENDCHAR
STARTCHAR seven
ENCODING 55
SWIDTH 464 0
DWIDTH 7 0
BBX 6 10 1 0
BITMAP
FC
FC
88
10
30
60
60
C0
C0
C0
ENDCHAR
STARTCHAR eight
ENCODING 56
SWIDTH 499 0
DWIDTH 7 0
BBX 7 10 0 0
BITMAP
1C
36
66
34
38
7C
CE
C6
CC
78
ENDCHAR
STARTCHAR nine
ENCODING 57
SWIDTH 489 0
DWIDTH 7 0
BBX 7 10 0 0
BITMAP
3C
66
46
C6
CE
76
0C
4C
98
70
ENDCHAR
STARTCHAR colon
ENCODING 58
SWIDTH 267 0
DWIDTH 4 0
BBX 3 5 1 1
BITMAP
E0
C0
00
C0
C0
ENDCHAR
STARTCHAR semicolon
ENCODING 59
SWIDTH 276 0
DWIDTH 4 0
BBX 3 7 1 -2
BITMAP
E0
C0
00
C0
C0
80
80
ENDCHAR
STARTCHAR less
ENCODING 60
SWIDTH 358 0
DWIDTH 5 0
BBX 5 5 0 1
BITMAP
18
70
C0
30
10
ENDCHAR
STARTCHAR equal
ENCODING 61
SWIDTH 515 0
DWIDTH 7 0
BBX 7 5 0 1
BITMAP
7E
7C
00
7C
FC
ENDCHAR
STARTCHAR greater
ENCODING 62
SWIDTH 362 0
DWIDTH 5 0
BBX 5 5 0 1
BITMAP
40
30
18
60
80
ENDCHAR
STARTCHAR question
ENCODING 63
SWIDTH 441 0
DWIDTH 6 0
BBX 5 10 1 0
BITMAP
70
98
D8
10
20
40
80
00
C0
C0
ENDCHAR
STARTCHAR at
ENCODING 64
SWIDTH 688 0
DWIDTH 10 0
BBX 9 10 0 -1
BITMAP
0F00
3180
6E80
5680
B480
B500
9E00
8200
C600
7800
ENDCHAR
STARTCHAR A
ENCODING 65
SWIDTH 668 0
DWIDTH 9 0
BBX 10 11 0 -1
BITMAP
01C0
0380
0580
0980
7D80
D300
3300
3300
6300
6700
6000
ENDCHAR
STARTCHAR B
ENCODING 66
SWIDTH 641 0
DWIDTH 9 0
BBX 8 10 0 0
BITMAP
1E
65
D9
DB
9F
33
31
33
33
7E
ENDCHAR
STARTCHAR C
ENCODING 67
SWIDTH 497 0
DWIDTH 7 0
BBX 7 10 0 0
BITMAP
1E
32
72
60
60
E0
E0
E0
62
7C
ENDCHAR
STARTCHAR D
ENCODING 68
SWIDTH 663 0
DWIDTH 9 0
BBX 9 10 0 0
BITMAP
1E00
6500
D980
9980
D980
3180
3180
3300
3300
7E00
ENDCHAR
STARTCHAR E
ENCODING 69
SWIDTH 459 0
DWIDTH 6 0
BBX 7 10 0 0
BITMAP
1C
32
36
30
18
70
E0
E0
E6
78
ENDCHAR
STARTCHAR F
ENCODING 70
SWIDTH 459 0
DWIDTH 6 0
BBX 8 10 0 0
BITMAP
3F
58
D8
98
7E
30
30
30
30
60
ENDCHAR
STARTCHAR G
ENCODING 71
SWIDTH 578 0
DWIDTH 8 0
BBX 8 13 0 -3
BITMAP
1E
31
63
E0
C3
C2
66
7E
06
34
4C
4C
38
ENDCHAR
STARTCHAR H
ENCODING 72
SWIDTH 665 0
DWIDTH 9 0
BBX 10 10 0 0
BITMAP
3CC0
5980
D980
9980
5F80
3300
3300
3300
3300
7700
ENDCHAR
STARTCHAR I
ENCODING 73
SWIDTH 375 0
DWIDTH 5 0
BBX 6 10 0 0
BITMAP
3C
58
D8
98
D8
30
30
30
30
60
ENDCHAR
STARTCHAR J
ENCODING 74
SWIDTH 536 0
DWIDTH 8 0
BBX 8 13 0 -3
BITMAP
07
0B
13
16
16
06
06
0C
0C
6C
CC
98
70
ENDCHAR
STARTCHAR K
ENCODING 75
SWIDTH 601 0
DWIDTH 8 0
BBX 9 10 0 0
BITMAP
3D80
5900
DA00
9C00
5E00
3300
3300
3600
3600
6600
ENDCHAR
STARTCHAR L
ENCODING 76
SWIDTH 379 0
DWIDTH 5 0
BBX 9 13 0 -3
BITMAP
1C00
7800
D800
9800
5800
3000
3000
3000
3000
7000
1C00
0780
0380
ENDCHAR
STARTCHAR M
ENCODING 77
SWIDTH 787 0
DWIDTH 11 0
BBX 10 10 1 0
BITMAP
38C0
58C0
99C0
B9C0
BAC0
3B80
5F80
5D80
5D80
9980
ENDCHAR
STARTCHAR N
ENCODING 78
SWIDTH 668 0
DWIDTH 9 0
BBX 10 10 0 0
BITMAP
3C40
5CC0
DC80
9C80
DC80
3680
2780
2700
2700
6300
ENDCHAR
STARTCHAR O
ENCODING 79
SWIDTH 665 0
DWIDTH 9 0
BBX 9 10 0 0
BITMAP
1F00
6D80
5980
D980
7180
3180
3180
3300
3600
3C00
ENDCHAR
STARTCHAR P
ENCODING 80
SWIDTH 573 0
DWIDTH 8 0
BBX 8 10 0 0
BITMAP
1E
67
D9
99
DB
36
38
30
30
60
ENDCHAR
STARTCHAR Q
ENCODING 81
SWIDTH 665 0
DWIDTH 9 0
BBX 9 11 0 -1
BITMAP
1F00
2580
5980
D980
F180
3180
3180
3300
3A00
3E00
0380
ENDCHAR
STARTCHAR R
ENCODING 82
SWIDTH 601 0
DWIDTH 8 0
BBX 8 10 0 0
BITMAP
1E
65
D9
9B
5E
33
33
36
36
66
ENDCHAR
STARTCHAR S
ENCODING 83
SWIDTH 570 0
DWIDTH 8 0
BBX 8 10 0 0
BITMAP
1E
33
33
38
1C
0E
76
C6
46
7C
ENDCHAR
STARTCHAR T
ENCODING 84
SWIDTH 481 0
DWIDTH 7 0
BBX 10 10 0 0
BITMAP
3FC0
4C00
8C00
8C00
5800
1800
1800
1800
1800
3000
ENDCHAR
STARTCHAR U
ENCODING 85
SWIDTH 716 0
DWIDTH 10 0
BBX 11 10 0 0
BITMAP
3C60
4CC0
98C0
98C0
D8C0
1180
3180
3180
3300
1E00
ENDCHAR
STARTCHAR V
ENCODING 86
SWIDTH 615 0
DWIDTH 9 0
BBX 10 10 0 0
BITMAP
1CC0
7C80
CC80
8D00
CD00
0D00
0E00
0E00
0C00
0C00
ENDCHAR
STARTCHAR W
ENCODING 87
SWIDTH 962 0
DWIDTH 13 0
BBX 14 10 0 0
BITMAP
1CC4
7CC4
CCC4
8DC8
CDC8
0DD0
0EF0
0EF0
0C60
0C60
ENDCHAR
STARTCHAR X
ENCODING 88
SWIDTH 620 0
DWIDTH 9 0
BBX 9 10 0 0
BITMAP
1D80
6D00
CE00
8E00
CE00
0E00
0E00
1600
1600
2700
ENDCHAR
STARTCHAR Y
ENCODING 89
SWIDTH 620 0
DWIDTH 9 0
BBX 10 10 0 0
BITMAP
1C40
6C80
CC80
8D00
CF00
0600
0600
0E00
0C00
0C00
ENDCHAR
STARTCHAR Z
ENCODING 90
SWIDTH 542 0
DWIDTH 8 0
BBX 8 10 0 0
BITMAP
3F
66
0C
0C
18
18
30
70
66
FC
ENDCHAR
STARTCHAR bracketleft
ENCODING 91
SWIDTH 400 0
DWIDTH 6 0
BBX 6 13 0 -3
BITMAP
1C
10
30
20
20
20
60
60
40
40
C0
C0
E0
ENDCHAR
STARTCHAR backslash
ENCODING 92
SWIDTH 362 0
DWIDTH 5 0
BBX 4 13 1 -3
BITMAP
80
80
80
80
40
40
40
40
20
20
20
20
30
ENDCHAR
STARTCHAR bracketright
ENCODING 93
SWIDTH 400 0
DWIDTH 6 0
BBX 6 13 -1 -3
BITMAP
1C
0C
0C
08
08
18
18
10
10
30
30
20
E0
ENDCHAR
STARTCHAR asciicircum
ENCODING 94
SWIDTH 421 0
DWIDTH 6 0
BBX 4 3 1 8
BITMAP
20
60
90
ENDCHAR
STARTCHAR underscore
ENCODING 95
SWIDTH 444 0
DWIDTH 6 0
BBX 6 1 0 0
BITMAP
FC
ENDCHAR
STARTCHAR grave
ENCODING 96
SWIDTH 201 0
DWIDTH 3 0
BBX 2 3 0 8
BITMAP
C0
40
40
ENDCHAR
STARTCHAR a
ENCODING 97
SWIDTH 526 0
DWIDTH 7 0
BBX 8 7 0 0
BITMAP
3E
6C
CC
CC
CD
DD
EE
ENDCHAR
STARTCHAR b
ENCODING 98
SWIDTH 444 0
DWIDTH 6 0
BBX 6 10 0 0
BITMAP
30
60
60
78
6C
CC
CC
C8
D8
F0
ENDCHAR
STARTCHAR c
ENCODING 99
SWIDTH 384 0
DWIDTH 5 0
BBX 6 7 0 0
BITMAP
38
68
C0
C0
C4
C8
F0
ENDCHAR
STARTCHAR d
ENCODING 100
SWIDTH 525 0
DWIDTH 7 0
BBX 8 10 0 0
BITMAP
02
06
06
3E
6C
CC
CC
CC
DD
EE
ENDCHAR
STARTCHAR e
ENCODING 101
SWIDTH 384 0
DWIDTH 5 0
BBX 6 7 0 0
BITMAP
38
68
D8
F0
C4
C8
F0
ENDCHAR
STARTCHAR f
ENCODING 102
SWIDTH 267 0
DWIDTH 4 0
BBX 8 13 -3 -3
BITMAP
07
0D
0C
0E
0C
18
18
18
18
18
70
B0
E0
ENDCHAR
STARTCHAR g
ENCODING 103
SWIDTH 507 0
DWIDTH 7 0
BBX 8 10 0 -3
BITMAP
3E
6C
CC
CC
CC
CD
FE
38
58
70
ENDCHAR
STARTCHAR h
ENCODING 104
SWIDTH 505 0
DWIDTH 7 0
BBX 9 10 -1 0
BITMAP
1800
3000
3000
3E00
3600
6600
6600
6400
6C80
E700
ENDCHAR
STARTCHAR i
ENCODING 105
SWIDTH 267 0
DWIDTH 4 0
BBX 4 10 0 0
BITMAP
60
60
00
60
60
C0
C0
D0
D0
E0
ENDCHAR
STARTCHAR j
ENCODING 106
SWIDTH 240 0
DWIDTH 3 0
BBX 7 13 -3 -3
BITMAP
0C
0C
00
0C
0C
18
18
1A
1A
1C
70
B0
E0
ENDCHAR
STARTCHAR k
ENCODING 107
SWIDTH 518 0
DWIDTH 7 0
BBX 9 10 -1 0
BITMAP
1800
3000
3000
3300
3C00
7E00
6600
6600
6E80
E700
ENDCHAR
STARTCHAR l
ENCODING 108
SWIDTH 267 0
DWIDTH 4 0
BBX 4 10 0 0
BITMAP
30
60
60
60
60
C0
C0
D0
F0
E0
ENDCHAR
STARTCHAR m
ENCODING 109
SWIDTH 752 0
DWIDTH 11 0
BBX 12 7 -1 0
BITMAP
3FC0
36C0
66C0
66C0
6CC0
6CD0
ECE0
ENDCHAR
STARTCHAR n
ENCODING 110
SWIDTH 505 0
DWIDTH 7 0
BBX 9 7 -1 0
BITMAP
3E00
3600
6600
6600
6400
6C80
E700
ENDCHAR
STARTCHAR o
ENCODING 111
SWIDTH 439 0
DWIDTH 6 0
BBX 8 7 0 0
BITMAP
38
69
CE
C8
C8
D8
F0
ENDCHAR
STARTCHAR p
ENCODING 112
SWIDTH 468 0
DWIDTH 7 0
BBX 7 11 -1 -3
BITMAP
30
3E
36
66
66
66
6C
78
C0
C0
C0
ENDCHAR
STARTCHAR q
ENCODING 113
SWIDTH 486 0
DWIDTH 7 0
BBX 7 10 0 -3
BITMAP
3E
6C
CC
CC
CC
CC
F8
18
18
38
ENDCHAR
STARTCHAR r
ENCODING 114
SWIDTH 376 0
DWIDTH 5 0
BBX 6 7 -1 0
BITMAP
3C
34
60
60
60
60
E0
ENDCHAR
STARTCHAR s
ENCODING 115
SWIDTH 382 0
DWIDTH 5 0
BBX 6 7 0 0
BITMAP
30
70
70
B0
B4
B8
E0
ENDCHAR
STARTCHAR t
ENCODING 116
SWIDTH 267 0
DWIDTH 4 0
BBX 4 9 0 0
BITMAP
60
60
F0
60
C0
C0
C0
D0
E0
ENDCHAR
STARTCHAR u
ENCODING 117
SWIDTH 505 0
DWIDTH 7 0
BBX 8 7 0 0
BITMAP
6C
6C
CC
CC
D9
DA
EC
ENDCHAR
STARTCHAR v
ENCODING 118
SWIDTH 414 0
DWIDTH 6 0
BBX 6 7 0 0
BITMAP
68
64
C8
C8
C8
D0
E0
ENDCHAR
STARTCHAR w
ENCODING 119
SWIDTH 661 0
DWIDTH 9 0
BBX 9 7 0 0
BITMAP
6D80
6C80
CC80
CC80
D900
DB00
EE00
ENDCHAR
STARTCHAR x
ENCODING 120
SWIDTH 522 0
DWIDTH 7 0
BBX 8 7 0 0
BITMAP
36
5A
9C
98
98
39
CE
ENDCHAR
STARTCHAR y
ENCODING 121
SWIDTH 486 0
DWIDTH 7 0
BBX 7 10 0 -3
BITMAP
6C
6C
CC
CC
DA
DA
FC
78
70
70
ENDCHAR
STARTCHAR z
ENCODING 122
SWIDTH 428 0
DWIDTH 6 0
BBX 6 7 0 0
BITMAP
7C
58
18
30
60
68
F8
ENDCHAR
STARTCHAR braceleft
ENCODING 123
SWIDTH 352 0
DWIDTH 5 0
BBX 5 13 1 -3
BITMAP
38
20
60
60
60
60
80
40
C0
C0
80
80
C0
ENDCHAR
STARTCHAR bar
ENCODING 124
SWIDTH 532 0
DWIDTH 7 0
BBX 1 13 3 -3
BITMAP
80
80
80
80
80
80
80
80
80
80
80
80
80
ENDCHAR
STARTCHAR braceright
ENCODING 125
SWIDTH 352 0
DWIDTH 5 0
BBX 5 13 -1 -3
BITMAP
38
18
18
18
10
10
18
30
20
20
20
20
C0
ENDCHAR
STARTCHAR asciitilde
ENCODING 126
SWIDTH 431 0
DWIDTH 6 0
BBX 5 2 1 8
BITMAP
20
F8
ENDCHAR
STARTCHAR uni00A0
ENCODING 160
SWIDTH 217 0
DWIDTH 3 0
BBX 1 1 0 0
BITMAP
00
ENDCHAR
STARTCHAR exclamdown
ENCODING 161
SWIDTH 219 0
DWIDTH 3 0
BBX 4 10 -1 -3
BITMAP
30
30
00
20
20
60
60
60
60
C0
ENDCHAR
STARTCHAR cent
ENCODING 162
SWIDTH 384 0
DWIDTH 5 0
BBX 6 10 0 0
BITMAP
08
18
74
5C
D0
E0
E8
70
20
40
ENDCHAR
STARTCHAR sterling
ENCODING 163
SWIDTH 455 0
DWIDTH 6 0
BBX 7 10 0 0
BITMAP
0E
1A
30
30
FC
30
60
62
7E
8C
ENDCHAR
STARTCHAR currency
ENCODING 164
SWIDTH 500 0
DWIDTH 7 0
BBX 5 5 1 2
BITMAP
F8
88
88
88
F8
ENDCHAR
STARTCHAR yen
ENCODING 165
SWIDTH 558 0
DWIDTH 8 0
BBX 7 10 1 0
BITMAP
E2
64
64
74
38
38
7C
FC
70
60
ENDCHAR
STARTCHAR brokenbar
ENCODING 166
SWIDTH 532 0
DWIDTH 7 0
BBX 1 13 3 -3
BITMAP
80
80
80
80
80
80
00
80
80
80
80
80
80
ENDCHAR
STARTCHAR section
ENCODING 167
SWIDTH 542 0
DWIDTH 8 0
BBX 7 12 0 -2
BITMAP
0E
1A
12
38
7C
6E
36
1A
7E
C8
88
70
ENDCHAR
STARTCHAR dieresis
ENCODING 168
SWIDTH 392 0
DWIDTH 5 0
BBX 4 2 1 8
BITMAP
B0
B0
ENDCHAR
STARTCHAR copyright
ENCODING 169
SWIDTH 587 0
DWIDTH 8 0
BBX 6 7 1 1
BITMAP
78
B4
CC
C4
BC
84
78
ENDCHAR
STARTCHAR ordfeminine
ENCODING 170
SWIDTH 345 0
DWIDTH 5 0
BBX 3 4 1 6
BITMAP
E0
A0
A0
E0
ENDCHAR
STARTCHAR guillemotleft
ENCODING 171
SWIDTH 589 0
DWIDTH 8 0
BBX 8 5 0 1
BITMAP
1B
2C
D0
2C
12
ENDCHAR
STARTCHAR logicalnot
ENCODING 172
SWIDTH 444 0
DWIDTH 6 0
BBX 6 3 0 1
BITMAP
FC
08
18
ENDCHAR
STARTCHAR uni00AD
ENCODING 173
SWIDTH 290 0
DWIDTH 4 0
BBX 3 1 0 3
BITMAP
E0
ENDCHAR
STARTCHAR registered
ENCODING 174
SWIDTH 553 0
DWIDTH 8 0
BBX 7 7 0 1
BITMAP
3C
7A
A6
BA
AA
46
3C
ENDCHAR
STARTCHAR macron
ENCODING 175
SWIDTH 446 0
DWIDTH 6 0
BBX 5 1 1 8
BITMAP
F8
ENDCHAR
STARTCHAR degree
ENCODING 176
SWIDTH 314 0
DWIDTH 4 0
BBX 3 5 1 5
BITMAP
60
A0
A0
A0
C0
ENDCHAR
STARTCHAR plusminus
ENCODING 177
SWIDTH 479 0
DWIDTH 7 0
BBX 6 7 0 2
BITMAP
18
10
7C
10
30
00
F8
ENDCHAR
STARTCHAR uni00B2
ENCODING 178
SWIDTH 328 0
DWIDTH 5 0
BBX 3 6 1 4
BITMAP
60
A0
20
40
80
E0
ENDCHAR
STARTCHAR uni00B3
ENCODING 179
SWIDTH 336 0
DWIDTH 5 0
BBX 4 6 1 4
BITMAP
60
B0
40
A0
A0
C0
ENDCHAR
STARTCHAR acute
ENCODING 180
SWIDTH 316 0
DWIDTH 4 0
BBX 2 3 2 8
BITMAP
40
C0
80
ENDCHAR
STARTCHAR uni00B5
ENCODING 181
SWIDTH 505 0
DWIDTH 7 0
BBX 9 9 -1 -2
BITMAP
3600
3600
6600
6600
6C80
6D00
7600
C000
C000
ENDCHAR
STARTCHAR paragraph
ENCODING 182
SWIDTH 542 0
DWIDTH 8 0
BBX 6 12 1 -2
BITMAP
38
74
F4
F4
FC
FC
38
28
28
38
78
50
ENDCHAR
STARTCHAR periodcentered
ENCODING 183
SWIDTH 434 0
DWIDTH 6 0
BBX 2 3 2 2
BITMAP
C0
C0
C0
ENDCHAR
STARTCHAR cedilla
ENCODING 184
SWIDTH 227 0
DWIDTH 3 0
BBX 3 4 0 -3
BITMAP
40
60
20
E0
ENDCHAR
STARTCHAR uni00B9
ENCODING 185
SWIDTH 229 0
DWIDTH 3 0
BBX 2 6 1 5
BITMAP
40
C0
C0
80
80
80
ENDCHAR
STARTCHAR ordmasculine
ENCODING 186
SWIDTH 329 0
DWIDTH 5 0
BBX 3 4 1 6
BITMAP
E0
A0
A0
C0
ENDCHAR
STARTCHAR guillemotright
ENCODING 187
SWIDTH 586 0
DWIDTH 8 0
BBX 8 5 0 1
BITMAP
48
36
1B
6C
90
ENDCHAR
STARTCHAR onequarter
ENCODING 188
SWIDTH 749 0
DWIDTH 10 0
BBX 9 11 1 0
BITMAP
4000
C200
C400
8400
8800
8A80
1280
1280
2780
4100
4100
ENDCHAR
STARTCHAR onehalf
ENCODING 189
SWIDTH 745 0
DWIDTH 10 0
BBX 9 11 1 0
BITMAP
4000
C200
C400
8400
8800
8B80
1280
1080
2100
4200
4380
ENDCHAR
STARTCHAR threequarters
ENCODING 190
SWIDTH 836 0
DWIDTH 12 0
BBX 11 10 1 0
BITMAP
6180
B100
4200
A200
A5E0
C9C0
0940
13C0
10C0
2080
ENDCHAR
STARTCHAR questiondown
ENCODING 191
SWIDTH 439 0
DWIDTH 6 0
BBX 5 10 0 -3
BITMAP
18
18
00
10
10
20
40
D8
C8
F0
ENDCHAR
STARTCHAR Agrave
ENCODING 192
SWIDTH 668 0
DWIDTH 9 0
BBX 10 15 0 -1
BITMAP
0100
0100
0180
0000
01C0
0380
0580
0980
7D80
D300
3300
3300
6300
6700
6000
ENDCHAR
STARTCHAR Aacute
ENCODING 193
SWIDTH 668 0
DWIDTH 9 0
BBX 11 15 0 -1
BITMAP
0060
0040
0080
0000
01C0
0380
0580
0980
7D80
D300
3300
3300
6300
6700
6000
ENDCHAR
STARTCHAR Acircumflex
ENCODING 194
SWIDTH 668 0
DWIDTH 9 0
BBX 11 15 0 -1
BITMAP
0040
00C0
0120
0000
01C0
0380
0580
0980
7D80
D300
3300
3300
6300
6700
6000
ENDCHAR
STARTCHAR Atilde
ENCODING 195
SWIDTH 668 0
DWIDTH 9 0
BBX 11 14 0 -1
BITMAP
03E0
0040
0000
01C0
0380
0580
0980
7D80
D300
3300
3300
6300
6700
6000
ENDCHAR
STARTCHAR Adieresis
ENCODING 196
SWIDTH 668 0
DWIDTH 9 0
BBX 11 14 0 -1
BITMAP
0360
0140
0000
01C0
0380
0580
0980
7D80
D300
3300
3300
6300
6700
6000
ENDCHAR
STARTCHAR Aring
ENCODING 197
SWIDTH 668 0
DWIDTH 9 0
BBX 10 15 0 -1
BITMAP
0080
0140
0080
0000
01C0
0380
0580
0980
7D80
D300
3300
3300
6300
6700
6000
ENDCHAR
STARTCHAR AE
ENCODING 198
SWIDTH 764 0
DWIDTH 11 0
BBX 13 11 0 -1
BITMAP
01F8
0380
0580
0980
7FE0
D300
3300
3300
6300
67E0
6000
ENDCHAR
STARTCHAR Ccedilla
ENCODING 199
SWIDTH 497 0
DWIDTH 7 0
BBX 7 13 0 -3
BITMAP
1E
32
72
60
60
E0
E0
E0
62
7C
10
18
30
ENDCHAR
STARTCHAR Egrave
ENCODING 200
SWIDTH 459 0
DWIDTH 6 0
BBX 7 14 0 0
BITMAP
08
08
08
00
1C
32
36
30
18
70
E0
E0
E6
78
ENDCHAR
STARTCHAR Eacute
ENCODING 201
SWIDTH 459 0
DWIDTH 6 0
BBX 7 14 0 0
BITMAP
02
04
04
00
1C
32
36
30
18
70
E0
E0
E6
78
ENDCHAR
STARTCHAR Ecircumflex
ENCODING 202
SWIDTH 459 0
DWIDTH 6 0
BBX 7 14 0 0
BITMAP
04
0E
12
00
1C
32
36
30
18
70
E0
E0
E6
78
ENDCHAR
STARTCHAR Edieresis
ENCODING 203
SWIDTH 459 0
DWIDTH 6 0
BBX 8 13 0 0
BITMAP
1B
0A
00
1C
32
36
30
18
70
E0
E0
E6
78
ENDCHAR
STARTCHAR Igrave
ENCODING 204
SWIDTH 375 0
DWIDTH 5 0
BBX 6 14 0 0
BITMAP
18
18
08
00
3C
58
D8
98
D8
30
30
30
30
60
ENDCHAR
STARTCHAR Iacute
ENCODING 205
SWIDTH 375 0
DWIDTH 5 0
BBX 7 14 0 0
BITMAP
06
04
08
00
3C
58
D8
98
D8
30
30
30
30
60
ENDCHAR
STARTCHAR Icircumflex
ENCODING 206
SWIDTH 375 0
DWIDTH 5 0
BBX 6 14 0 0
BITMAP
04
0C
34
00
3C
58
D8
98
D8
30
30
30
30
60
ENDCHAR
STARTCHAR Idieresis
ENCODING 207
SWIDTH 375 0
DWIDTH 5 0
BBX 7 13 0 0
BITMAP
16
16
00
3C
58
D8
98
D8
30
30
30
30
60
ENDCHAR
STARTCHAR Eth
ENCODING 208
SWIDTH 663 0
DWIDTH 9 0
BBX 9 10 0 0
BITMAP
1E00
6980
D980
9980
7D80
3180
3180
3300
3300
7E00
ENDCHAR
STARTCHAR Ntilde
ENCODING 209
SWIDTH 686 0
DWIDTH 10 0
BBX 10 13 0 0
BITMAP
0740
0B80
0000
3C40
5CC0
DC80
9C80
DC80
3680
2780
2700
2700
6300
ENDCHAR
STARTCHAR Ograve
ENCODING 210
SWIDTH 665 0
DWIDTH 9 0
BBX 9 14 0 0
BITMAP
0C00
0400
0400
0000
1F00
6D80
5980
D980
7180
3180
3180
3300
3600
3C00
ENDCHAR
STARTCHAR Oacute
ENCODING 211
SWIDTH 665 0
DWIDTH 9 0
BBX 9 14 0 0
BITMAP
0100
0200
0200
0000
1F00
6D80
5980
D980
7180
3180
3180
3300
3600
3C00
ENDCHAR
STARTCHAR Ocircumflex
ENCODING 212
SWIDTH 665 0
DWIDTH 9 0
BBX 9 14 0 0
BITMAP
0200
0600
0900
0000
1F00
6D80
5980
D980
7180
3180
3180
3300
3600
3C00
ENDCHAR
STARTCHAR Otilde
ENCODING 213
SWIDTH 665 0
DWIDTH 9 0
BBX 9 13 0 0
BITMAP
0F80
0100
0000
1F00
6D80
5980
D980
7180
3180
3180
3300
3600
3C00
ENDCHAR
STARTCHAR Odieresis
ENCODING 214
SWIDTH 665 0
DWIDTH 9 0
BBX 9 13 0 0
BITMAP
0D00
0D00
0000
1F00
6D80
5980
D980
7180
3180
3180
3300
3600
3C00
ENDCHAR
STARTCHAR multiply
ENCODING 215
SWIDTH 414 0
DWIDTH 6 0
BBX 4 4 1 3
BITMAP
90
E0
60
B0
ENDCHAR
STARTCHAR Oslash
ENCODING 216
SWIDTH 658 0
DWIDTH 9 0
BBX 9 11 0 -1
BITMAP
1F00
6D00
DD80
B580
7580
3580
7700
6B00
3E00
3C00
0800
ENDCHAR
STARTCHAR Ugrave
ENCODING 217
SWIDTH 716 0
DWIDTH 10 0
BBX 11 14 0 0
BITMAP
0200
0200
0300
0000
3CE0
48C0
98C0
98C0
98C0
3180
3180
3180
3300
1E00
ENDCHAR
STARTCHAR Uacute
ENCODING 218
SWIDTH 716 0
DWIDTH 10 0
BBX 11 14 0 0
BITMAP
0180
0100
0200
0000
3CE0
48C0
98C0
98C0
98C0
3180
3180
3180
3300
1E00
ENDCHAR
STARTCHAR Ucircumflex
ENCODING 219
SWIDTH 716 0
DWIDTH 10 0
BBX 11 14 0 0
BITMAP
0100
0380
0480
0000
3CE0
48C0
98C0
98C0
98C0
3180
3180
3180
3300
1E00
ENDCHAR
STARTCHAR Udieresis
ENCODING 220
SWIDTH 716 0
DWIDTH 10 0
BBX 11 13 0 0
BITMAP
06C0
0680
0000
3CE0
48C0
98C0
98C0
98C0
3180
3180
3180
3300
1E00
ENDCHAR
STARTCHAR Yacute
ENCODING 221
SWIDTH 620 0
DWIDTH 9 0
BBX 10 14 0 0
BITMAP
00C0
0080
0100
0000
1C40
6C80
CC80
8D00
CF00
0600
0600
0E00
0C00
0C00
ENDCHAR
STARTCHAR Thorn
ENCODING 222
SWIDTH 583 0
DWIDTH 8 0
BBX 8 11 0 0
BITMAP
04
18
1E
7B
D9
99
B3
72
3C
30
60
ENDCHAR
STARTCHAR germandbls
ENCODING 223
SWIDTH 480 0
DWIDTH 7 0
BBX 7 13 -1 -3
BITMAP
0E
12
32
34
3C
64
66
66
66
7C
C0
C0
C0
ENDCHAR
STARTCHAR agrave
ENCODING 224
SWIDTH 526 0
DWIDTH 7 0
BBX 8 10 0 0
BITMAP
18
18
08
3E
6C
CC
CC
CD
DD
EE
ENDCHAR
STARTCHAR aacute
ENCODING 225
SWIDTH 526 0
DWIDTH 7 0
BBX 8 10 0 0
BITMAP
0C
08
10
3E
6C
CC
CC
CD
DD
EE
ENDCHAR
STARTCHAR acircumflex
ENCODING 226
SWIDTH 526 0
DWIDTH 7 0
BBX 8 10 0 0
BITMAP
04
1C
20
3E
6C
CC
CC
CD
DD
EE
ENDCHAR
STARTCHAR atilde
ENCODING 227
SWIDTH 526 0
DWIDTH 7 0
BBX 8 10 0 0
BITMAP
3F
4C
00
3E
6C
CC
CC
CD
DD
EE
ENDCHAR
STARTCHAR adieresis
ENCODING 228
SWIDTH 526 0
DWIDTH 7 0
BBX 8 10 0 0
BITMAP
16
16
00
3E
6C
CC
CC
CD
DD
EE
ENDCHAR
STARTCHAR aring
ENCODING 229
SWIDTH 526 0
DWIDTH 7 0
BBX 8 10 0 0
BITMAP
08
14
08
3E
6C
CC
CC
CD
DD
EE
ENDCHAR
STARTCHAR ae
ENCODING 230
SWIDTH 650 0
DWIDTH 9 0
BBX 10 7 0 0
BITMAP
3B80
4C80
0D00
7E00
CC40
DC80
EF00
ENDCHAR
STARTCHAR ccedilla
ENCODING 231
SWIDTH 384 0
DWIDTH 5 0
BBX 6 10 0 -3
BITMAP
38
68
C0
C0
C4
C8
F0
20
30
70
ENDCHAR
STARTCHAR egrave
ENCODING 232
SWIDTH 384 0
DWIDTH 5 0
BBX 6 10 0 0
BITMAP
30
10
10
38
68
D8
F0
C4
C8
F0
ENDCHAR
STARTCHAR eacute
ENCODING 233
SWIDTH 384 0
DWIDTH 5 0
BBX 6 10 0 0
BITMAP
0C
08
10
38
68
D8
F0
C4
C8
F0
ENDCHAR
STARTCHAR ecircumflex
ENCODING 234
SWIDTH 384 0
DWIDTH 5 0
BBX 6 10 0 0
BITMAP
08
38
44
38
68
D8
F0
C4
C8
F0
ENDCHAR
STARTCHAR edieresis
ENCODING 235
SWIDTH 384 0
DWIDTH 5 0
BBX 6 10 0 0
BITMAP
2C
2C
00
38
68
D8
F0
C4
C8
F0
ENDCHAR
STARTCHAR igrave
ENCODING 236
SWIDTH 267 0
DWIDTH 4 0
BBX 4 10 0 0
BITMAP
40
40
20
60
60
C0
C0
D0
D0
E0
ENDCHAR
STARTCHAR iacute
ENCODING 237
SWIDTH 267 0
DWIDTH 4 0
BBX 4 10 0 0
BITMAP
10
20
00
60
60
C0
C0
D0
D0
E0
ENDCHAR
STARTCHAR icircumflex
ENCODING 238
SWIDTH 267 0
DWIDTH 4 0
BBX 4 10 0 0
BITMAP
20
50
80
60
60
C0
C0
D0
D0
E0
ENDCHAR
STARTCHAR idieresis
ENCODING 239
SWIDTH 267 0
DWIDTH 4 0
BBX 4 10 0 0
BITMAP
D0
D0
00
60
60
C0
C0
D0
D0
E0
ENDCHAR
STARTCHAR eth
ENCODING 240
SWIDTH 526 0
DWIDTH 7 0
BBX 8 10 0 0
BITMAP
0F
1C
06
3E
6C
CC
CC
CC
DD
EE
ENDCHAR
STARTCHAR ntilde
ENCODING 241
SWIDTH 505 0
DWIDTH 7 0
BBX 9 10 -1 0
BITMAP
1D00
2E00
0000
3E00
3600
6600
6600
6480
6D00
E600
ENDCHAR
STARTCHAR ograve
ENCODING 242
SWIDTH 433 0
DWIDTH 6 0
BBX 8 10 0 0
BITMAP
30
10
10
38
69
CE
C8
C8
D0
F0
ENDCHAR
STARTCHAR oacute
ENCODING 243
SWIDTH 439 0
DWIDTH 6 0
BBX 8 10 0 0
BITMAP
0C
08
10
38
69
CE
C8
C8
D8
F0
ENDCHAR
STARTCHAR ocircumflex
ENCODING 244
SWIDTH 433 0
DWIDTH 6 0
BBX 8 10 0 0
BITMAP
08
38
40
38
69
CE
C8
C8
D0
F0
ENDCHAR
STARTCHAR otilde
ENCODING 245
SWIDTH 433 0
DWIDTH 6 0
BBX 8 10 0 0
BITMAP
7C
B8
00
38
69
CE
C8
C8
D0
F0
ENDCHAR
STARTCHAR odieresis
ENCODING 246
SWIDTH 433 0
DWIDTH 6 0
BBX 8 10 0 0
BITMAP
6C
2C
00
38
69
CE
C8
C8
D0
F0
ENDCHAR
STARTCHAR divide
ENCODING 247
SWIDTH 415 0
DWIDTH 6 0
BBX 5 7 1 1
BITMAP
30
70
00
F8
00
60
60
ENDCHAR
STARTCHAR oslash
ENCODING 248
SWIDTH 428 0
DWIDTH 6 0
BBX 8 8 -1 -1
BITMAP
1F
34
64
6C
74
6C
70
80
ENDCHAR
STARTCHAR ugrave
ENCODING 249
SWIDTH 505 0
DWIDTH 7 0
BBX 8 10 0 0
BITMAP
10
10
10
6C
6C
CC
CC
D9
DA
EC
ENDCHAR
STARTCHAR uacute
ENCODING 250
SWIDTH 505 0
DWIDTH 7 0
BBX 8 10 0 0
BITMAP
0C
08
10
6C
6C
CC
CC
D9
DA
EC
ENDCHAR
STARTCHAR ucircumflex
ENCODING 251
SWIDTH 505 0
DWIDTH 7 0
BBX 8 10 0 0
BITMAP
08
34
00
6C
6C
CC
CC
D9
DA
EC
ENDCHAR
STARTCHAR udieresis
ENCODING 252
SWIDTH 505 0
DWIDTH 7 0
BBX 8 10 0 0
BITMAP
3C
24
00
6C
6C
CC
CC
D9
DA
EC
ENDCHAR
STARTCHAR yacute
ENCODING 253
SWIDTH 505 0
DWIDTH 7 0
BBX 7 13 0 -3
BITMAP
0C
08
10
6C
6C
CC
CC
DA
DA
FC
78
70
70
ENDCHAR
STARTCHAR thorn
ENCODING 254
SWIDTH 473 0
DWIDTH 7 0
BBX 7 13 -1 -3
BITMAP
18
30
30
3E
36
66
66
66
6C
78
C0
C0
C0
ENDCHAR
STARTCHAR ydieresis
ENCODING 255
SWIDTH 505 0
DWIDTH 7 0
BBX 7 13 0 -3
BITMAP
2C
2C
00
6C
6C
CC
CC
DA
DA
FC
78
70
70
ENDCHAR
STARTCHAR Amacron
ENCODING 256
SWIDTH 668 0
DWIDTH 9 0
BBX 11 14 0 -1
BITMAP
03E0
0000
0000
01C0
0380
0580
0980
7D80
D300
3300
3300
6300
6700
6000
ENDCHAR
STARTCHAR amacron
ENCODING 257
SWIDTH 526 0
DWIDTH 7 0
BBX 8 10 0 0
BITMAP
3E
00
00
3E
6C
CC
CC
CD
DD
EE
ENDCHAR
STARTCHAR Abreve
ENCODING 258
SWIDTH 668 0
DWIDTH 9 0
BBX 12 14 0 -1
BITMAP
0330
01C0
0000
01C0
0380
0580
0980
7D80
D300
3300
3300
6300
6700
6000
ENDCHAR
STARTCHAR abreve
ENCODING 259
SWIDTH 526 0
DWIDTH 7 0
BBX 8 10 0 0
BITMAP
22
1C
00
3E
6C
CC
CC
CD
DD
EE
ENDCHAR
STARTCHAR Aogonek
ENCODING 260
SWIDTH 668 0
DWIDTH 9 0
BBX 10 13 0 -3
BITMAP
01C0
0380
0580
0980
7D80
D300
3300
3300
2300
6700
6200
2500
0600
ENDCHAR
STARTCHAR aogonek
ENCODING 261
SWIDTH 526 0
DWIDTH 7 0
BBX 8 10 0 -3
BITMAP
3E
6C
CC
CC
CC
DD
EE
0C
0A
0C
ENDCHAR
STARTCHAR Cacute
ENCODING 262
SWIDTH 497 0
DWIDTH 7 0
BBX 7 14 0 0
BITMAP
02
04
04
00
1E
32
72
60
60
E0
E0
E0
62
7C
ENDCHAR
STARTCHAR cacute
ENCODING 263
SWIDTH 384 0
DWIDTH 5 0
BBX 6 10 0 0
BITMAP
0C
08
10
38
68
C0
C0
C4
C8
F0
ENDCHAR
STARTCHAR Ccircumflex
ENCODING 264
SWIDTH 497 0
DWIDTH 7 0
BBX 7 14 0 0
BITMAP
04
0E
12
00
1E
32
72
60
60
E0
E0
E0
62
7C
ENDCHAR
STARTCHAR ccircumflex
ENCODING 265
SWIDTH 384 0
DWIDTH 5 0
BBX 6 10 0 0
BITMAP
08
38
44
38
68
C0
C0
C4
C8
F0
ENDCHAR
STARTCHAR Cdotaccent
ENCODING 266
SWIDTH 497 0
DWIDTH 7 0
BBX 7 14 0 0
BITMAP
06
06
00
00
1E
32
72
60
60
E0
E0
E0
62
7C
ENDCHAR
STARTCHAR cdotaccent
ENCODING 267
SWIDTH 384 0
DWIDTH 5 0
BBX 6 10 0 0
BITMAP
18
18
00
38
68
C0
C0
C4
C8
F0
ENDCHAR
STARTCHAR Ccaron
ENCODING 268
SWIDTH 497 0
DWIDTH 7 0
BBX 8 14 0 0
BITMAP
0B
04
04
00
1E
32
72
60
60
E0
E0
E0
62
7C
ENDCHAR
STARTCHAR ccaron
ENCODING 269
SWIDTH 384 0
DWIDTH 5 0
BBX 7 10 0 0
BITMAP
16
18
00
38
68
C0
C0
C4
C8
F0
ENDCHAR
STARTCHAR Dcaron
ENCODING 270
SWIDTH 663 0
DWIDTH 9 0
BBX 9 14 0 0
BITMAP
0900
0600
0400
0000
1E00
6500
D980
9980
D980
3180
3180
3300
3300
7E00
ENDCHAR
STARTCHAR dcaron
ENCODING 271
SWIDTH 525 0
DWIDTH 7 0
BBX 10 10 0 0
BITMAP
00C0
0680
0680
3E00
6E00
CC00
CC00
CC00
DD00
EE00
ENDCHAR
STARTCHAR Dcroat
ENCODING 272
SWIDTH 663 0
DWIDTH 9 0
BBX 9 10 0 0
BITMAP
1E00
6980
D980
9980
7D80
3180
3180
3300
3300
7E00
ENDCHAR
STARTCHAR dcroat
ENCODING 273
SWIDTH 525 0
DWIDTH 7 0
BBX 8 10 0 0
BITMAP
06
0F
06
3E
6C
CC
CC
CC
DD
EE
ENDCHAR
STARTCHAR Emacron
ENCODING 274
SWIDTH 459 0
DWIDTH 6 0
BBX 8 13 0 0
BITMAP
1F
00
00
1C
32
36
30
18
70
E0
E0
E6
78
ENDCHAR
STARTCHAR emacron
ENCODING 275
SWIDTH 384 0
DWIDTH 5 0
BBX 6 10 0 0
BITMAP
7C
00
00
38
68
D8
F0
C4
C8
F0
ENDCHAR
STARTCHAR Ebreve
ENCODING 276
SWIDTH 459 0
DWIDTH 6 0
BBX 8 13 0 0
BITMAP
11
0E
00
1C
32
36
30
18
70
E0
E0
E6
78
ENDCHAR
STARTCHAR ebreve
ENCODING 277
SWIDTH 384 0
DWIDTH 5 0
BBX 6 10 0 0
BITMAP
44
38
00
38
68
D8
F0
C4
C8
F0
ENDCHAR
STARTCHAR Edotaccent
ENCODING 278
SWIDTH 459 0
DWIDTH 6 0
BBX 7 14 0 0
BITMAP
06
06
00
00
1C
32
36
30
18
70
E0
E0
E6
78
ENDCHAR
STARTCHAR edotaccent
ENCODING 279
SWIDTH 384 0
DWIDTH 5 0
BBX 6 10 0 0
BITMAP
18
18
00
38
68
D8
F0
C4
C8
F0
ENDCHAR
STARTCHAR Eogonek
ENCODING 280
SWIDTH 459 0
DWIDTH 6 0
BBX 7 13 0 -3
BITMAP
3C
32
66
30
38
60
E0
E0
E2
7C
10
10
1C
ENDCHAR
STARTCHAR eogonek
ENCODING 281
SWIDTH 384 0
DWIDTH 5 0
BBX 6 10 0 -3
BITMAP
38
68
D8
F0
C4
C8
F0
20
20
30
ENDCHAR
STARTCHAR Ecaron
ENCODING 282
SWIDTH 459 0
DWIDTH 6 0
BBX 8 14 0 0
BITMAP
09
06
04
00
1C
32
36
30
18
70
E0
E0
E6
78
ENDCHAR
STARTCHAR ecaron
ENCODING 283
SWIDTH 384 0
DWIDTH 5 0
BBX 7 10 0 0
BITMAP
16
18
00
38
68
C8
F0
C4
C8
F0
ENDCHAR
STARTCHAR Gcircumflex
ENCODING 284
SWIDTH 578 0
DWIDTH 8 0
BBX 8 17 0 -3
BITMAP
02
06
09
10
1E
31
63
E0
C3
C2
66
7E
06
34
4C
4C
38
ENDCHAR
STARTCHAR gcircumflex
ENCODING 285
SWIDTH 507 0
DWIDTH 7 0
BBX 8 13 0 -3
BITMAP
04
1C
20
3E
6C
CC
CC
CC
CD
FE
38
58
70
ENDCHAR
STARTCHAR Gbreve
ENCODING 286
SWIDTH 578 0
DWIDTH 8 0
BBX 9 16 0 -3
BITMAP
0880
0700
0000
1E00
3100
6300
E000
C300
C200
6600
7E00
0600
3400
4C00
4C00
3800
ENDCHAR
STARTCHAR gbreve
ENCODING 287
SWIDTH 507 0
DWIDTH 7 0
BBX 8 13 0 -3
BITMAP
22
1C
00
3E
6C
CC
CC
CC
CD
FE
38
58
70
ENDCHAR
STARTCHAR Gdotaccent
ENCODING 288
SWIDTH 578 0
DWIDTH 8 0
BBX 8 17 0 -3
BITMAP
06
06
00
00
1E
31
63
E0
C3
C2
66
7E
06
34
4C
4C
38
ENDCHAR
STARTCHAR gdotaccent
ENCODING 289
SWIDTH 507 0
DWIDTH 7 0
BBX 8 13 0 -3
BITMAP
0C
0C
00
3E
6C
CC
CC
CC
CD
FE
38
58
70
ENDCHAR
STARTCHAR Gcommaaccent
ENCODING 290
SWIDTH 578 0
DWIDTH 8 0
BBX 8 14 0 -4
BITMAP
1E
32
76
60
E0
E3
C6
C6
EE
74
00
10
10
10
ENDCHAR
STARTCHAR gcommaaccent
ENCODING 291
SWIDTH 507 0
DWIDTH 7 0
BBX 8 14 0 -3
BITMAP
08
08
08
00
3E
6C
CC
CC
CC
CD
FE
38
58
70
ENDCHAR
STARTCHAR Hcircumflex
ENCODING 292
SWIDTH 665 0
DWIDTH 9 0
BBX 10 14 0 0
BITMAP
0100
0300
0480
0000
3CC0
5980
D980
9980
5F80
3300
3300
3300
3300
7700
ENDCHAR
STARTCHAR hcircumflex
ENCODING 293
SWIDTH 505 0
DWIDTH 7 0
BBX 9 13 -1 0
BITMAP
0800
0800
3400
0800
3000
3000
3E00
3600
6600
6600
6400
6C80
E700
ENDCHAR
STARTCHAR Hbar
ENCODING 294
SWIDTH 665 0
DWIDTH 9 0
BBX 10 10 0 0
BITMAP
1CC0
7980
FFC0
9980
5F80
3300
3300
3300
3300
7700
ENDCHAR
STARTCHAR hbar
ENCODING 295
SWIDTH 505 0
DWIDTH 7 0
BBX 9 10 -1 0
BITMAP
3800
7C00
3000
3E00
3600
6600
6600
6400
6C80
E700
ENDCHAR
STARTCHAR Itilde
ENCODING 296
SWIDTH 375 0
DWIDTH 5 0
BBX 7 13 0 0
BITMAP
3E
04
00
3C
58
D8
98
D8
30
30
30
30
60
ENDCHAR
STARTCHAR itilde
ENCODING 297
SWIDTH 267 0
DWIDTH 4 0
BBX 4 10 0 0
BITMAP
70
A0
00
60
60
C0
C0
D0
D0
E0
ENDCHAR
STARTCHAR Imacron
ENCODING 298
SWIDTH 375 0
DWIDTH 5 0
BBX 7 13 0 0
BITMAP
3E
00
00
3C
58
D8
98
D8
30
30
30
30
60
ENDCHAR
STARTCHAR imacron
ENCODING 299
SWIDTH 267 0
DWIDTH 4 0
BBX 4 10 0 0
BITMAP
F0
00
00
60
60
C0
C0
D0
D0
E0
ENDCHAR
STARTCHAR Ibreve
ENCODING 300
SWIDTH 375 0
DWIDTH 5 0
BBX 8 13 0 0
BITMAP
33
1C
00
3C
58
D8
98
D8
30
30
30
30
60
ENDCHAR
STARTCHAR ibreve
ENCODING 301
SWIDTH 267 0
DWIDTH 4 0
BBX 5 10 0 0
BITMAP
D8
70
00
60
60
C0
C0
C8
D0
E0
ENDCHAR
STARTCHAR Iogonek
ENCODING 302
SWIDTH 375 0
DWIDTH 5 0
BBX 6 17 0 -3
BITMAP
30
10
10
00
1C
78
D8
98
D8
30
30
30
30
60
40
40
70
ENDCHAR
STARTCHAR iogonek
ENCODING 303
SWIDTH 267 0
DWIDTH 4 0
BBX 5 13 -1 -3
BITMAP
30
30
00
30
30
60
60
68
68
70
40
D0
60
ENDCHAR
STARTCHAR Idotaccent
ENCODING 304
SWIDTH 375 0
DWIDTH 5 0
BBX 6 13 0 0
BITMAP
0C
0C
00
3C
58
D8
98
D8
30
30
30
30
60
ENDCHAR
STARTCHAR dotlessi
ENCODING 305
SWIDTH 267 0
DWIDTH 4 0
BBX 4 7 0 0
BITMAP
60
60
C0
C0
D0
D0
E0
ENDCHAR
STARTCHAR IJ
ENCODING 306
SWIDTH 663 0
DWIDTH 9 0
BBX 9 13 0 -3
BITMAP
1D80
7980
D980
9980
DB00
3300
3300
3300
3700
7600
2600
2600
3C00
ENDCHAR
STARTCHAR ij
ENCODING 307
SWIDTH 507 0
DWIDTH 7 0
BBX 8 13 0 -3
BITMAP
66
66
00
66
6C
CC
CC
CD
DE
FC
38
58
70
ENDCHAR
STARTCHAR Jcircumflex
ENCODING 308
SWIDTH 536 0
DWIDTH 8 0
BBX 9 17 0 -3
BITMAP
0100
0380
0480
0000
0700
0B00
1300
1600
1600
0600
0600
0C00
0C00
6C00
CC00
9800
7000
ENDCHAR
STARTCHAR jcircumflex
ENCODING 309
SWIDTH 240 0
DWIDTH 3 0
BBX 7 13 -3 -3
BITMAP
04
0A
10
0C
0C
18
18
1A
1A
1C
70
B0
E0
ENDCHAR
STARTCHAR Kcommaaccent
ENCODING 310
SWIDTH 601 0
DWIDTH 8 0
BBX 9 13 0 -3
BITMAP
3D80
5900
DA00
9C00
5E00
3300
3300
3600
3600
6600
0800
1800
0800
ENDCHAR
STARTCHAR kcommaaccent
ENCODING 311
SWIDTH 518 0
DWIDTH 7 0
BBX 9 14 -1 -4
BITMAP
1800
3000
3000
3300
3C00
7E00
6600
6600
6E80
E700
0000
1000
1000
1000
ENDCHAR
STARTCHAR kgreenlandic
ENCODING 312
SWIDTH 518 0
DWIDTH 7 0
BBX 9 7 -1 0
BITMAP
3300
3C00
7E00
6600
6600
6E80
E700
ENDCHAR
STARTCHAR Lacute
ENCODING 313
SWIDTH 379 0
DWIDTH 5 0
BBX 9 17 0 -3
BITMAP
0600
0400
0800
0000
1C00
7800
D800
9800
5800
3000
3000
3000
3000
7000
1C00
0780
0380
ENDCHAR
STARTCHAR lacute
ENCODING 314
SWIDTH 267 0
DWIDTH 4 0
BBX 5 13 0 0
BITMAP
18
10
20
70
60
60
60
60
C0
C0
C8
F0
E0
ENDCHAR
STARTCHAR Lcommaaccent
ENCODING 315
SWIDTH 379 0
DWIDTH 5 0
BBX 9 13 0 -3
BITMAP
1C00
7800
D800
9800
5800
3000
3000
3000
3000
7000
5C00
6780
4380
ENDCHAR
STARTCHAR lcommaaccent
ENCODING 316
SWIDTH 267 0
DWIDTH 4 0
BBX 4 14 0 -4
BITMAP
30
60
60
60
60
C0
C0
D0
F0
E0
00
C0
80
80
ENDCHAR
STARTCHAR Lcaron
ENCODING 317
SWIDTH 379 0
DWIDTH 5 0
BBX 9 17 0 -3
BITMAP
0B00
0C00
0800
0000
1C00
7800
D800
9800
5800
3000
3000
3000
3000
7000
1C00
0780
0380
ENDCHAR
STARTCHAR lcaron
ENCODING 318
SWIDTH 267 0
DWIDTH 4 0
BBX 6 10 0 0
BITMAP
0C
78
68
60
60
C0
C0
C0
D0
E0
ENDCHAR
STARTCHAR Ldot
ENCODING 319
SWIDTH 605 0
DWIDTH 8 0
BBX 9 13 0 -3
BITMAP
3C00
5800
D800
9800
5800
3300
3300
3000
3000
7000
1C00
0780
0380
ENDCHAR
STARTCHAR ldot
ENCODING 320
SWIDTH 353 0
DWIDTH 5 0
BBX 5 10 0 0
BITMAP
70
60
60
60
78
D8
C0
C0
C0
E0
ENDCHAR
STARTCHAR Lslash
ENCODING 321
SWIDTH 392 0
DWIDTH 5 0
BBX 9 13 0 -3
BITMAP
1C00
7800
D800
9C00
5800
7000
3000
3000
3000
7000
1C00
0780
0380
ENDCHAR
STARTCHAR lslash
ENCODING 322
SWIDTH 286 0
DWIDTH 4 0
BBX 5 10 0 0
BITMAP
30
60
68
70
60
C0
C0
C8
F0
E0
ENDCHAR
STARTCHAR Nacute
ENCODING 323
SWIDTH 702 0
DWIDTH 10 0
BBX 10 14 0 0
BITMAP
00C0
0080
0100
0000
3C40
5CC0
DC80
9C80
DC80
3680
2780
2700
2700
6300
ENDCHAR
STARTCHAR nacute
ENCODING 324
SWIDTH 505 0
DWIDTH 7 0
BBX 9 10 -1 0
BITMAP
0200
0400
0000
3E00
3600
6600
6600
6480
6D00
E600
ENDCHAR
STARTCHAR Ncommaaccent
ENCODING 325
SWIDTH 668 0
DWIDTH 9 0
BBX 10 14 0 -4
BITMAP
3C40
5CC0
DC80
9C80
DC80
3680
2780
2700
2700
6300
0000
1800
0800
1000
ENDCHAR
STARTCHAR ncommaaccent
ENCODING 326
SWIDTH 505 0
DWIDTH 7 0
BBX 9 11 -1 -4
BITMAP
3E00
3600
6600
6600
6400
6C80
E700
0000
1000
1000
2000
ENDCHAR
STARTCHAR Ncaron
ENCODING 327
SWIDTH 668 0
DWIDTH 9 0
BBX 10 14 0 0
BITMAP
0240
0180
0100
0000
3C40
5CC0
DC80
9C80
DC80
3680
2780
2700
2700
6300
ENDCHAR
STARTCHAR ncaron
ENCODING 328
SWIDTH 505 0
DWIDTH 7 0
BBX 9 10 -1 0
BITMAP
1B00
0C00
0000
3E00
3600
6600
6600
6400
6C80
E700
ENDCHAR
STARTCHAR napostrophe
ENCODING 329
SWIDTH 505 0
DWIDTH 7 0
BBX 9 10 -1 0
BITMAP
2000
2000
0000
3E00
3600
6600
6600
6400
6C80
E700
ENDCHAR
STARTCHAR Eng
ENCODING 330
SWIDTH 723 0
DWIDTH 10 0
BBX 10 13 1 -3
BITMAP
38C0
5880
9C80
BC80
BD80
2D80
2700
2700
6700
4300
1200
3600
1C00
ENDCHAR
STARTCHAR eng
ENCODING 331
SWIDTH 505 0
DWIDTH 7 0
BBX 7 10 -1 -3
BITMAP
3E
36
66
66
6C
6C
EC
3C
48
38
ENDCHAR
STARTCHAR Omacron
ENCODING 332
SWIDTH 665 0
DWIDTH 9 0
BBX 9 13 0 0
BITMAP
0F00
0000
0000
1F00
6D80
5980
D980
7180
3180
3180
3300
3600
3C00
ENDCHAR
STARTCHAR omacron
ENCODING 333
SWIDTH 433 0
DWIDTH 6 0
BBX 8 10 0 0
BITMAP
7C
00
00
38
69
CE
C8
C8
D0
F0
ENDCHAR
STARTCHAR Obreve
ENCODING 334
SWIDTH 665 0
DWIDTH 9 0
BBX 9 13 0 0
BITMAP
0C80
0700
0000
1F00
6D80
5980
D980
7180
3180
3180
3300
3600
3C00
ENDCHAR
STARTCHAR obreve
ENCODING 335
SWIDTH 433 0
DWIDTH 6 0
BBX 8 10 0 0
BITMAP
66
38
00
38
69
CE
C8
C8
D0
F0
ENDCHAR
STARTCHAR Ohungarumlaut
ENCODING 336
SWIDTH 665 0
DWIDTH 9 0
BBX 10 14 0 0
BITMAP
0340
0280
0580
0000
1F00
6D80
5980
D980
7180
3180
3180
3300
3600
3C00
ENDCHAR
STARTCHAR ohungarumlaut
ENCODING 337
SWIDTH 433 0
DWIDTH 6 0
BBX 8 10 0 0
BITMAP
1E
14
28
38
69
CE
C8
C8
D0
F0
ENDCHAR
STARTCHAR OE
ENCODING 338
SWIDTH 846 0
DWIDTH 12 0
BBX 13 10 0 0
BITMAP
1FF8
6D80
D980
F180
31E0
3180
3100
3300
3200
3FE0
ENDCHAR
STARTCHAR oe
ENCODING 339
SWIDTH 663 0
DWIDTH 9 0
BBX 10 7 0 0
BITMAP
3B80
6E80
CE80
CF00
CC40
CC80
F700
ENDCHAR
STARTCHAR Racute
ENCODING 340
SWIDTH 601 0
DWIDTH 8 0
BBX 8 14 0 0
BITMAP
03
02
04
00
1E
65
D9
9B
5E
33
33
36
36
66
ENDCHAR
STARTCHAR racute
ENCODING 341
SWIDTH 376 0
DWIDTH 5 0
BBX 7 10 -1 0
BITMAP
06
08
00
3C
34
60
60
60
60
E0
ENDCHAR
STARTCHAR Rcommaaccent
ENCODING 342
SWIDTH 601 0
DWIDTH 8 0
BBX 8 13 0 -3
BITMAP
1E
65
D9
9B
5E
33
33
36
36
66
10
18
10
ENDCHAR
STARTCHAR rcommaaccent
ENCODING 343
SWIDTH 376 0
DWIDTH 5 0
BBX 6 11 -1 -4
BITMAP
3C
34
60
60
60
60
E0
00
20
20
40
ENDCHAR
STARTCHAR Rcaron
ENCODING 344
SWIDTH 601 0
DWIDTH 8 0
BBX 9 14 0 0
BITMAP
0580
0600
0400
0000
1E00
6500
D900
9B00
5E00
3300
3300
3600
3600
6600
ENDCHAR
STARTCHAR rcaron
ENCODING 345
SWIDTH 376 0
DWIDTH 5 0
BBX 7 10 -1 0
BITMAP
16
18
00
3C
34
60
60
60
60
E0
ENDCHAR
STARTCHAR Sacute
ENCODING 346
SWIDTH 570 0
DWIDTH 8 0
BBX 8 14 0 0
BITMAP
03
02
04
00
1E
33
33
38
1C
0E
76
C6
46
7C
ENDCHAR
STARTCHAR sacute
ENCODING 347
SWIDTH 382 0
DWIDTH 5 0
BBX 6 10 0 0
BITMAP
0C
18
10
30
30
70
B0
B4
B8
E0
ENDCHAR
STARTCHAR Scircumflex
ENCODING 348
SWIDTH 570 0
DWIDTH 8 0
BBX 8 14 0 0
BITMAP
02
0E
11
00
1E
33
33
38
1C
0E
76
C6
46
7C
ENDCHAR
STARTCHAR scircumflex
ENCODING 349
SWIDTH 382 0
DWIDTH 5 0
BBX 6 10 0 0
BITMAP
10
38
48
30
30
70
B0
B4
B8
E0
ENDCHAR
STARTCHAR Scedilla
ENCODING 350
SWIDTH 570 0
DWIDTH 8 0
BBX 8 13 0 -3
BITMAP
1E
33
33
38
1C
0E
76
C6
46
7C
10
08
38
ENDCHAR
STARTCHAR scedilla
ENCODING 351
SWIDTH 382 0
DWIDTH 5 0
BBX 6 10 0 -3
BITMAP
30
70
70
B0
B4
B8
E0
40
A0
E0
ENDCHAR
STARTCHAR Scaron
ENCODING 352
SWIDTH 570 0
DWIDTH 8 0
BBX 9 14 0 0
BITMAP
0580
0600
0400
0000
1E00
3300
3300
3800
1C00
0E00
7600
C600
4600
7C00
ENDCHAR
STARTCHAR scaron
ENCODING 353
SWIDTH 369 0
DWIDTH 5 0
BBX 6 10 0 0
BITMAP
2C
30
00
30
30
70
B0
B4
B8
E0
ENDCHAR
STARTCHAR uni0162
ENCODING 354
SWIDTH 481 0
DWIDTH 7 0
BBX 10 13 0 -3
BITMAP
3FC0
4C00
8C00
8C00
5800
1800
1800
1800
1800
3000
1000
2800
3800
ENDCHAR
STARTCHAR uni0163
ENCODING 355
SWIDTH 267 0
DWIDTH 4 0
BBX 5 12 -1 -3
BITMAP
30
30
78
30
60
60
60
68
70
40
30
E0
ENDCHAR
STARTCHAR Tcaron
ENCODING 356
SWIDTH 481 0
DWIDTH 7 0
BBX 10 14 0 0
BITMAP
0980
0600
0400
0000
3FC0
4C00
8C00
8C00
5800
1800
1800
1800
1800
3000
ENDCHAR
STARTCHAR tcaron
ENCODING 357
SWIDTH 267 0
DWIDTH 4 0
BBX 6 10 0 0
BITMAP
0C
64
68
F0
60
C0
C0
C0
D0
E0
ENDCHAR
STARTCHAR Tbar
ENCODING 358
SWIDTH 481 0
DWIDTH 7 0
BBX 10 10 0 0
BITMAP
3FC0
4C00
8C00
CC00
1800
7E00
1800
1800
1800
3000
ENDCHAR
STARTCHAR tbar
ENCODING 359
SWIDTH 267 0
DWIDTH 4 0
BBX 4 9 0 0
BITMAP
60
60
F0
F0
C0
C0
D0
D0
E0
ENDCHAR
STARTCHAR Utilde
ENCODING 360
SWIDTH 716 0
DWIDTH 10 0
BBX 11 13 0 0
BITMAP
07C0
0080
0000
3CE0
48C0
98C0
98C0
98C0
3180
3180
3180
3300
1E00
ENDCHAR
STARTCHAR utilde
ENCODING 361
SWIDTH 505 0
DWIDTH 7 0
BBX 8 10 0 0
BITMAP
3A
5C
00
6C
6C
CC
CC
D9
DA
EC
ENDCHAR
STARTCHAR Umacron
ENCODING 362
SWIDTH 716 0
DWIDTH 10 0
BBX 11 13 0 0
BITMAP
07C0
0000
0000
3CE0
48C0
98C0
98C0
98C0
3180
3180
3180
3300
1E00
ENDCHAR
STARTCHAR umacron
ENCODING 363
SWIDTH 505 0
DWIDTH 7 0
BBX 8 10 0 0
BITMAP
3C
00
00
6C
6C
CC
CC
D9
DA
EC
ENDCHAR
STARTCHAR Ubreve
ENCODING 364
SWIDTH 716 0
DWIDTH 10 0
BBX 11 13 0 0
BITMAP
0640
0380
0000
3CE0
48C0
98C0
98C0
98C0
3180
3180
3180
3300
1E00
ENDCHAR
STARTCHAR ubreve
ENCODING 365
SWIDTH 505 0
DWIDTH 7 0
BBX 8 10 0 0
BITMAP
26
38
00
6C
6C
CC
CC
D9
DA
EC
ENDCHAR
STARTCHAR Uring
ENCODING 366
SWIDTH 716 0
DWIDTH 10 0
BBX 11 14 0 0
BITMAP
0100
0280
0100
0000
3CE0
48C0
98C0
98C0
98C0
3180
3180
3180
3300
1E00
ENDCHAR
STARTCHAR uring
ENCODING 367
SWIDTH 505 0
DWIDTH 7 0
BBX 8 10 0 0
BITMAP
18
18
18
6C
6C
CC
CC
D9
DA
EC
ENDCHAR
STARTCHAR Uhungarumlaut
ENCODING 368
SWIDTH 716 0
DWIDTH 10 0
BBX 11 14 0 0
BITMAP
01E0
0340
0280
0000
3CE0
48C0
98C0
98C0
98C0
3180
3180
3180
3300
1E00
ENDCHAR
STARTCHAR uhungarumlaut
ENCODING 369
SWIDTH 505 0
DWIDTH 7 0
BBX 8 10 0 0
BITMAP
1E
14
28
6C
6C
CC
CC
D9
DA
EC
ENDCHAR
STARTCHAR Uogonek
ENCODING 370
SWIDTH 716 0
DWIDTH 10 0
BBX 11 17 0 -3
BITMAP
0200
0200
0300
0000
3C60
4CC0
D8C0
98C0
98C0
3180
3180
3180
3300
1E00
0800
1A00
0C00
ENDCHAR
STARTCHAR uogonek
ENCODING 371
SWIDTH 505 0
DWIDTH 7 0
BBX 8 10 0 -3
BITMAP
6C
6C
CC
CC
D9
DA
EC
08
1A
0C
ENDCHAR
STARTCHAR Wcircumflex
ENCODING 372
SWIDTH 962 0
DWIDTH 13 0
BBX 14 14 0 0
BITMAP
0020
0060
0190
0000
1CC4
7CC4
CCC4
8DC8
CDC8
0DD0
0EF0
0EF0
0C60
0C60
ENDCHAR
STARTCHAR wcircumflex
ENCODING 373
SWIDTH 661 0
DWIDTH 9 0
BBX 9 10 0 0
BITMAP
0400
0E00
1000
6D80
6C80
CC80
CC80
D900
DB00
EE00
ENDCHAR
STARTCHAR Ycircumflex
ENCODING 374
SWIDTH 620 0
DWIDTH 9 0
BBX 10 14 0 0
BITMAP
0100
0380
0480
0000
1C40
6C80
CC80
8D00
CF00
0600
0600
0E00
0C00
0C00
ENDCHAR
STARTCHAR ycircumflex
ENCODING 375
SWIDTH 505 0
DWIDTH 7 0
BBX 7 13 0 -3
BITMAP
08
34
00
6C
6C
CC
CC
DA
DA
FC
78
70
70
ENDCHAR
STARTCHAR Ydieresis
ENCODING 376
SWIDTH 620 0
DWIDTH 9 0
BBX 10 13 0 0
BITMAP
06C0
0680
0000
1C40
6C80
CC80
8D00
CF00
0600
0600
0E00
0C00
0C00
ENDCHAR
STARTCHAR Zacute
ENCODING 377
SWIDTH 542 0
DWIDTH 8 0
BBX 8 14 0 0
BITMAP
03
02
04
00
3F
66
0C
0C
18
18
30
70
66
FC
ENDCHAR
STARTCHAR zacute
ENCODING 378
SWIDTH 428 0
DWIDTH 6 0
BBX 6 10 0 0
BITMAP
0C
08
10
7C
58
18
30
60
68
F8
ENDCHAR
STARTCHAR Zdotaccent
ENCODING 379
SWIDTH 530 0
DWIDTH 7 0
BBX 8 13 0 0
BITMAP
0C
0C
00
3F
66
0C
0C
18
18
30
70
66
FC
ENDCHAR
STARTCHAR zdotaccent
ENCODING 380
SWIDTH 428 0
DWIDTH 6 0
BBX 6 10 0 0
BITMAP
18
18
00
7C
58
18
30
60
68
F8
ENDCHAR
STARTCHAR Zcaron
ENCODING 381
SWIDTH 542 0
DWIDTH 8 0
BBX 8 14 0 0
BITMAP
09
06
04
00
3F
66
0C
0C
18
18
30
70
66
FC
ENDCHAR
STARTCHAR zcaron
ENCODING 382
SWIDTH 428 0
DWIDTH 6 0
BBX 7 10 0 0
BITMAP
16
18
00
7C
58
18
30
60
68
F8
ENDCHAR
STARTCHAR longs
ENCODING 383
SWIDTH 267 0
DWIDTH 4 0
BBX 8 13 -3 -3
BITMAP
07
0D
0C
1C
0C
18
18
18
18
18
70
B0
E0
ENDCHAR
STARTCHAR uni018F
ENCODING 399
SWIDTH 544 0
DWIDTH 8 0
BBX 8 10 0 0
BITMAP
3C
7E
46
07
1E
26
66
CC
CC
70
ENDCHAR
STARTCHAR florin
ENCODING 402
SWIDTH 267 0
DWIDTH 4 0
BBX 10 13 -4 -3
BITMAP
01C0
0340
0600
0F80
0600
0600
0C00
0C00
0C00
1800
1800
D000
7000
ENDCHAR
STARTCHAR Ohorn
ENCODING 416
SWIDTH 665 0
DWIDTH 9 0
BBX 10 12 0 0
BITMAP
0040
0040
1F40
6D80
5980
D980
7180
3180
3180
3300
3600
3C00
ENDCHAR
STARTCHAR ohorn
ENCODING 417
SWIDTH 439 0
DWIDTH 6 0
BBX 7 9 0 0
BITMAP
02
02
3C
68
C8
C8
C8
D8
F0
ENDCHAR
STARTCHAR Uhorn
ENCODING 431
SWIDTH 716 0
DWIDTH 10 0
BBX 12 13 0 0
BITMAP
0010
0010
0030
3CC0
48C0
98C0
98C0
98C0
3180
3180
3180
3300
1E00
ENDCHAR
STARTCHAR uhorn
ENCODING 432
SWIDTH 505 0
DWIDTH 7 0
BBX 8 10 0 0
BITMAP
01
03
02
6C
6C
CC
CC
D9
DA
EC
ENDCHAR
STARTCHAR uni01B7
ENCODING 439
SWIDTH 555 0
DWIDTH 8 0
BBX 8 10 0 0
BITMAP
3F
66
0C
18
1C
06
06
46
CC
78
ENDCHAR
STARTCHAR uni01CD
ENCODING 461
SWIDTH 668 0
DWIDTH 9 0
BBX 12 15 0 -1
BITMAP
00B0
00E0
0040
0000
01C0
0380
0580
0980
7D80
D300
3300
3300
6300
6700
6000
ENDCHAR
STARTCHAR uni01CE
ENCODING 462
SWIDTH 526 0
DWIDTH 7 0
BBX 8 10 0 0
BITMAP
12
0C
00
3E
6C
CC
CC
CD
DD
EE
ENDCHAR
STARTCHAR uni01CF
ENCODING 463
SWIDTH 375 0
DWIDTH 5 0
BBX 8 14 0 0
BITMAP
0B
0C
08
00
3C
58
D8
98
D8
30
30
30
30
60
ENDCHAR
STARTCHAR uni01D0
ENCODING 464
SWIDTH 267 0
DWIDTH 4 0
BBX 5 10 0 0
BITMAP
58
20
00
60
60
C0
C0
C8
D0
E0
ENDCHAR
STARTCHAR uni01D1
ENCODING 465
SWIDTH 665 0
DWIDTH 9 0
BBX 10 14 0 0
BITMAP
02C0
0300
0200
0000
1F00
6D80
5980
D980
7180
3180
3180
3300
3600
3C00
ENDCHAR
STARTCHAR uni01D2
ENCODING 466
SWIDTH 433 0
DWIDTH 6 0
BBX 8 10 0 0
BITMAP
36
18
00
38
69
CE
C8
C8
D0
F0
ENDCHAR
STARTCHAR uni01D3
ENCODING 467
SWIDTH 716 0
DWIDTH 10 0
BBX 11 14 0 0
BITMAP
0260
0180
0100
0000
3CE0
48C0
98C0
98C0
98C0
3180
3180
3180
3300
1E00
ENDCHAR
STARTCHAR uni01D4
ENCODING 468
SWIDTH 505 0
DWIDTH 7 0
BBX 8 10 0 0
BITMAP
16
18
00
6C
6C
CC
CC
D9
DA
EC
ENDCHAR
STARTCHAR uni01D5
ENCODING 469
SWIDTH 716 0
DWIDTH 10 0
BBX 11 14 0 0
BITMAP
03C0
06C0
06C0
0000
3CE0
48C0
98C0
98C0
98C0
3180
3180
3180
3300
1E00
ENDCHAR
STARTCHAR uni01D6
ENCODING 470
SWIDTH 505 0
DWIDTH 7 0
BBX 8 12 0 0
BITMAP
3E
00
3C
24
00
6C
6C
CC
CC
D9
DA
EC
ENDCHAR
STARTCHAR uni01D7
ENCODING 471
SWIDTH 716 0
DWIDTH 10 0
BBX 11 14 0 0
BITMAP
0080
0560
0740
0000
3CE0
48C0
98C0
98C0
98C0
3180
3180
3180
3300
1E00
ENDCHAR
STARTCHAR uni01D8
ENCODING 472
SWIDTH 505 0
DWIDTH 7 0
BBX 8 13 0 0
BITMAP
04
08
08
3C
24
00
6C
6C
CC
CC
D9
DA
EC
ENDCHAR
STARTCHAR uni01D9
ENCODING 473
SWIDTH 716 0
DWIDTH 10 0
BBX 11 14 0 0
BITMAP
0240
05E0
0540
0000
3CE0
48C0
98C0
98C0
98C0
3180
3180
3180
3300
1E00
ENDCHAR
STARTCHAR uni01DA
ENCODING 474
SWIDTH 505 0
DWIDTH 7 0
BBX 8 13 0 0
BITMAP
12
14
08
3C
24
00
6C
6C
CC
CC
D9
DA
EC
ENDCHAR
STARTCHAR uni01DB
ENCODING 475
SWIDTH 716 0
DWIDTH 10 0
BBX 11 14 0 0
BITMAP
0100
0560
0540
0000
3CE0
48C0
98C0
98C0
98C0
3180
3180
3180
3300
1E00
ENDCHAR
STARTCHAR uni01DC
ENCODING 476
SWIDTH 505 0
DWIDTH 7 0
BBX 8 13 0 0
BITMAP
10
10
10
3C
24
00
6C
6C
CC
CC
D9
DA
EC
ENDCHAR
STARTCHAR uni01E4
ENCODING 484
SWIDTH 601 0
DWIDTH 8 0
BBX 8 13 0 -3
BITMAP
1E
31
63
E0
C3
CF
66
7E
06
34
4C
4C
38
ENDCHAR
STARTCHAR uni01E5
ENCODING 485
SWIDTH 507 0
DWIDTH 7 0
BBX 8 10 0 -3
BITMAP
3E
6C
CC
CC
CC
CD
FE
38
FC
70
ENDCHAR
STARTCHAR Gcaron
ENCODING 486
SWIDTH 578 0
DWIDTH 8 0
BBX 9 17 0 -3
BITMAP
0580
0600
0400
0000
1E00
3100
6300
E000
C300
C200
6600
7E00
0600
3400
4C00
4C00
3800
ENDCHAR
STARTCHAR gcaron
ENCODING 487
SWIDTH 507 0
DWIDTH 7 0
BBX 8 13 0 -3
BITMAP
12
0C
00
3E
6C
CC
CC
CC
CD
FE
38
58
70
ENDCHAR
STARTCHAR uni01E8
ENCODING 488
SWIDTH 601 0
DWIDTH 8 0
BBX 10 15 0 0
BITMAP
0240
0380
0100
0000
0000
3D80
5900
DA00
9C00
5E00
3300
3300
3600
3600
6600
ENDCHAR
STARTCHAR uni01E9
ENCODING 489
SWIDTH 518 0
DWIDTH 7 0
BBX 9 13 -1 0
BITMAP
0880
0700
0400
1800
3000
3000
3300
3C00
7E00
6600
6600
6E80
E700
ENDCHAR
STARTCHAR uni01EA
ENCODING 490
SWIDTH 665 0
DWIDTH 9 0
BBX 9 17 0 -3
BITMAP
0C00
0400
0400
0000
1F00
6D80
5980
D980
7180
3180
3180
3300
3600
3C00
1000
3400
1800
ENDCHAR
STARTCHAR uni01EB
ENCODING 491
SWIDTH 433 0
DWIDTH 6 0
BBX 8 10 0 -3
BITMAP
38
69
CE
C8
C8
D0
F0
40
80
E0
ENDCHAR
STARTCHAR uni01EE
ENCODING 494
SWIDTH 525 0
DWIDTH 7 0
BBX 8 14 0 0
BITMAP
09
0E
04
00
3F
66
0C
18
1C
06
06
46
CC
78
ENDCHAR
STARTCHAR uni01EF
ENCODING 495
SWIDTH 600 0
DWIDTH 8 0
BBX 7 14 0 -3
BITMAP
22
1C
10
00
7C
D8
30
30
62
34
38
70
B0
E0
ENDCHAR
STARTCHAR uni01F4
ENCODING 500
SWIDTH 578 0
DWIDTH 8 0
BBX 8 17 0 -3
BITMAP
03
02
06
00
1E
31
63
E0
C3
C2
66
7E
06
34
4C
4C
38
ENDCHAR
STARTCHAR uni01F5
ENCODING 501
SWIDTH 507 0
DWIDTH 7 0
BBX 8 13 0 -3
BITMAP
0C
08
10
3E
6C
CC
CC
CC
CD
FE
38
58
70
ENDCHAR
STARTCHAR Aringacute
ENCODING 506
SWIDTH 668 0
DWIDTH 9 0
BBX 11 15 0 -1
BITMAP
0060
00C0
00C0
0080
03C0
0380
0580
0980
7D80
D300
3300
3300
6300
6700
6000
ENDCHAR
STARTCHAR aringacute
ENCODING 507
SWIDTH 526 0
DWIDTH 7 0
BBX 8 11 0 0
BITMAP
04
08
14
18
3E
6C
CC
CC
CD
DD
EE
ENDCHAR
STARTCHAR AEacute
ENCODING 508
SWIDTH 764 0
DWIDTH 11 0
BBX 13 15 0 -1
BITMAP
0030
0020
0040
0000
01F8
0380
0580
0980
7FE0
D300
3300
3300
6300
67E0
6000
ENDCHAR
STARTCHAR aeacute
ENCODING 509
SWIDTH 650 0
DWIDTH 9 0
BBX 10 10 0 0
BITMAP
0300
0200
0400
3B80
4C80
0D00
7E00
CC40
DC80
EF00
ENDCHAR
STARTCHAR Oslashacute
ENCODING 510
SWIDTH 658 0
DWIDTH 9 0
BBX 9 15 0 -1
BITMAP
0180
0100
0200
0000
1F00
6D00
DD80
B580
7580
3580
7700
6B00
3E00
3C00
0800
ENDCHAR
STARTCHAR oslashacute
ENCODING 511
SWIDTH 428 0
DWIDTH 6 0
BBX 8 11 -1 -1
BITMAP
06
04
08
1F
34
64
6C
74
6C
70
80
ENDCHAR
STARTCHAR uni0200
ENCODING 512
SWIDTH 668 0
DWIDTH 9 0
BBX 10 15 0 -1
BITMAP
0780
0280
0340
0000
01C0
0380
0580
0980
7D80
D300
3300
3300
6300
6700
6000
ENDCHAR
STARTCHAR uni0201
ENCODING 513
SWIDTH 526 0
DWIDTH 7 0
BBX 8 10 0 0
BITMAP
78
28
14
3E
6C
CC
CC
CD
DD
EE
ENDCHAR
STARTCHAR uni0202
ENCODING 514
SWIDTH 668 0
DWIDTH 9 0
BBX 11 14 0 -1
BITMAP
01E0
0320
0000
01C0
0380
0580
0980
7D80
D300
3300
3300
6300
6700
6000
ENDCHAR
STARTCHAR uni0203
ENCODING 515
SWIDTH 526 0
DWIDTH 7 0
BBX 8 10 0 0
BITMAP
1C
26
00
3E
6C
CC
CC
CD
DD
EE
ENDCHAR
STARTCHAR uni0204
ENCODING 516
SWIDTH 459 0
DWIDTH 6 0
BBX 7 14 0 0
BITMAP
68
14
16
00
1C
32
36
30
18
70
E0
E0
E6
78
ENDCHAR
STARTCHAR uni0205
ENCODING 517
SWIDTH 384 0
DWIDTH 5 0
BBX 6 10 0 0
BITMAP
F0
58
28
38
68
D8
F0
C4
C8
F0
ENDCHAR
STARTCHAR uni0206
ENCODING 518
SWIDTH 459 0
DWIDTH 6 0
BBX 8 14 0 0
BITMAP
0E
11
00
00
1C
32
36
30
18
70
E0
E0
E6
78
ENDCHAR
STARTCHAR uni0207
ENCODING 519
SWIDTH 384 0
DWIDTH 5 0
BBX 6 10 0 0
BITMAP
38
4C
00
38
68
D8
F0
C4
C8
F0
ENDCHAR
STARTCHAR uni0208
ENCODING 520
SWIDTH 375 0
DWIDTH 5 0
BBX 6 14 0 0
BITMAP
78
28
14
00
3C
58
98
D8
38
30
30
30
30
60
ENDCHAR
STARTCHAR uni0209
ENCODING 521
SWIDTH 267 0
DWIDTH 4 0
BBX 5 10 -1 0
BITMAP
B0
50
48
30
30
60
60
68
68
70
ENDCHAR
STARTCHAR uni020A
ENCODING 522
SWIDTH 375 0
DWIDTH 5 0
BBX 7 13 0 0
BITMAP
1C
22
00
3C
58
D8
98
D8
30
30
30
30
60
ENDCHAR
STARTCHAR uni020B
ENCODING 523
SWIDTH 267 0
DWIDTH 4 0
BBX 4 10 0 0
BITMAP
70
90
00
60
60
C0
C0
D0
D0
E0
ENDCHAR
STARTCHAR uni020C
ENCODING 524
SWIDTH 665 0
DWIDTH 9 0
BBX 9 14 0 0
BITMAP
1600
0A00
0900
0000
1F00
6D80
5980
D980
7180
3180
3180
3300
3600
3C00
ENDCHAR
STARTCHAR uni020D
ENCODING 525
SWIDTH 433 0
DWIDTH 6 0
BBX 8 10 0 0
BITMAP
F0
50
28
38
69
CE
C8
C8
D0
F0
ENDCHAR
STARTCHAR uni020E
ENCODING 526
SWIDTH 665 0
DWIDTH 9 0
BBX 9 13 0 0
BITMAP
0780
0880
0000
1F00
6D80
5980
D980
7180
3180
3180
3300
3600
3C00
ENDCHAR
STARTCHAR uni020F
ENCODING 527
SWIDTH 433 0
DWIDTH 6 0
BBX 8 10 0 0
BITMAP
3C
44
00
38
69
CE
C8
C8
D0
F0
ENDCHAR
STARTCHAR uni0210
ENCODING 528
SWIDTH 601 0
DWIDTH 8 0
BBX 8 14 0 0
BITMAP
2C
14
12
00
1E
65
D9
9B
5E
33
33
36
36
66
ENDCHAR
STARTCHAR uni0211
ENCODING 529
SWIDTH 376 0
DWIDTH 5 0
BBX 6 10 -1 0
BITMAP
50
28
28
3C
34
60
60
60
60
E0
ENDCHAR
STARTCHAR uni0212
ENCODING 530
SWIDTH 601 0
DWIDTH 8 0
BBX 8 14 0 0
BITMAP
0E
11
00
00
1E
65
D9
9B
5E
33
33
36
36
66
ENDCHAR
STARTCHAR uni0213
ENCODING 531
SWIDTH 376 0
DWIDTH 5 0
BBX 7 10 -1 0
BITMAP
1C
22
00
3C
34
60
60
60
60
E0
ENDCHAR
STARTCHAR uni0214
ENCODING 532
SWIDTH 716 0
DWIDTH 10 0
BBX 11 14 0 0
BITMAP
0F00
0500
0680
0000
3CE0
48C0
98C0
98C0
98C0
3180
3180
3180
3300
1E00
ENDCHAR
STARTCHAR uni0215
ENCODING 533
SWIDTH 505 0
DWIDTH 7 0
BBX 8 10 0 0
BITMAP
D0
48
28
6C
6C
CC
CC
D9
DA
EC
ENDCHAR
STARTCHAR uni0216
ENCODING 534
SWIDTH 716 0
DWIDTH 10 0
BBX 11 13 0 0
BITMAP
0380
0440
0000
3CE0
48C0
98C0
98C0
98C0
3180
3180
3180
3300
1E00
ENDCHAR
STARTCHAR uni0217
ENCODING 535
SWIDTH 505 0
DWIDTH 7 0
BBX 8 10 0 0
BITMAP
3C
64
00
6C
6C
CC
CC
D9
DA
EC
ENDCHAR
STARTCHAR Scommaaccent
ENCODING 536
SWIDTH 570 0
DWIDTH 8 0
BBX 8 13 0 -3
BITMAP
1E
33
33
38
1C
0E
76
C6
46
7C
10
30
20
ENDCHAR
STARTCHAR scommaaccent
ENCODING 537
SWIDTH 382 0
DWIDTH 5 0
BBX 6 11 0 -4
BITMAP
30
70
70
B0
B4
B8
E0
00
40
40
40
ENDCHAR
STARTCHAR uni021A
ENCODING 538
SWIDTH 481 0
DWIDTH 7 0
BBX 10 14 0 -4
BITMAP
3FC0
4C00
8C00
8C00
5800
1800
1800
1800
1800
3000
0000
3000
1000
2000
ENDCHAR
STARTCHAR uni021B
ENCODING 539
SWIDTH 267 0
DWIDTH 4 0
BBX 4 13 0 -4
BITMAP
60
60
F0
60
C0
C0
C0
D0
E0
00
C0
80
80
ENDCHAR
STARTCHAR uni021E
ENCODING 542
SWIDTH 665 0
DWIDTH 9 0
BBX 10 15 0 0
BITMAP
0240
0380
0100
0000
0000
3CC0
5980
D980
9980
5F80
3300
3300
3300
3300
7700
ENDCHAR
STARTCHAR uni021F
ENCODING 543
SWIDTH 600 0
DWIDTH 8 0
BBX 9 13 -1 0
BITMAP
0480
0700
0200
1800
3000
3000
3E00
3600
6600
6600
6400
6C80
E700
ENDCHAR
STARTCHAR uni0237
ENCODING 567
SWIDTH 240 0
DWIDTH 3 0
BBX 7 10 -3 -3
BITMAP
0C
0C
18
18
1A
1A
1C
70
B0
E0
ENDCHAR
STARTCHAR uni0259
ENCODING 601
SWIDTH 404 0
DWIDTH 6 0
BBX 5 7 0 0
BITMAP
78
98
18
38
D8
B0
E0
ENDCHAR
STARTCHAR uni0292
ENCODING 658
SWIDTH 442 0
DWIDTH 6 0
BBX 7 10 0 -3
BITMAP
7C
D8
30
30
62
34
38
70
B0
E0
ENDCHAR
STARTCHAR uni02BB
ENCODING 699
SWIDTH 241 0
DWIDTH 3 0
BBX 2 3 2 7
BITMAP
C0
80
C0
ENDCHAR
STARTCHAR uni02BC
ENCODING 700
SWIDTH 228 0
DWIDTH 3 0
BBX 2 3 2 8
BITMAP
C0
C0
80
ENDCHAR
STARTCHAR circumflex
ENCODING 710
SWIDTH 293 0
DWIDTH 4 0
BBX 4 3 0 8
BITMAP
10
30
D0
ENDCHAR
STARTCHAR caron
ENCODING 711
SWIDTH 294 0
DWIDTH 4 0
BBX 5 3 1 8
BITMAP
88
70
40
ENDCHAR
STARTCHAR uni02C9
ENCODING 713
SWIDTH 421 0
DWIDTH 6 0
BBX 4 1 2 8
BITMAP
F0
ENDCHAR
STARTCHAR uni02CA
ENCODING 714
SWIDTH 256 0
DWIDTH 4 0
BBX 2 3 2 8
BITMAP
40
C0
80
ENDCHAR
STARTCHAR uni02CB
ENCODING 715
SWIDTH 274 0
DWIDTH 4 0
BBX 2 3 2 8
BITMAP
C0
40
40
ENDCHAR
STARTCHAR breve
ENCODING 728
SWIDTH 431 0
DWIDTH 6 0
BBX 5 2 1 8
BITMAP
88
70
ENDCHAR
STARTCHAR dotaccent
ENCODING 729
SWIDTH 250 0
DWIDTH 4 0
BBX 2 2 1 8
BITMAP
C0
C0
ENDCHAR
STARTCHAR ring
ENCODING 730
SWIDTH 156 0
DWIDTH 2 0
BBX 2 2 0 7
BITMAP
C0
C0
ENDCHAR
STARTCHAR ogonek
ENCODING 731
SWIDTH 291 0
DWIDTH 4 0
BBX 3 3 1 -3
BITMAP
C0
A0
C0
ENDCHAR
STARTCHAR tilde
ENCODING 732
SWIDTH 403 0
DWIDTH 6 0
BBX 5 2 1 8
BITMAP
40
F8
ENDCHAR
STARTCHAR hungarumlaut
ENCODING 733
SWIDTH 436 0
DWIDTH 6 0
BBX 5 3 1 8
BITMAP
68
50
B0
ENDCHAR
STARTCHAR gravecomb
ENCODING 768
SWIDTH 0 0
DWIDTH 0 0
BBX 1 3 -2 8
BITMAP
80
80
80
ENDCHAR
STARTCHAR acutecomb
ENCODING 769
SWIDTH 0 0
DWIDTH 0 0
BBX 3 3 -3 8
BITMAP
20
40
80
ENDCHAR
STARTCHAR uni0302
ENCODING 770
SWIDTH 0 0
DWIDTH 0 0
BBX 4 3 -4 8
BITMAP
10
30
D0
ENDCHAR
STARTCHAR tildecomb
ENCODING 771
SWIDTH 0 0
DWIDTH 0 0
BBX 6 2 -5 8
BITMAP
24
F8
ENDCHAR
STARTCHAR uni0304
ENCODING 772
SWIDTH 0 0
DWIDTH 0 0
BBX 5 1 -4 8
BITMAP
F8
ENDCHAR
STARTCHAR uni0306
ENCODING 774
SWIDTH 0 0
DWIDTH 0 0
BBX 5 2 -4 8
BITMAP
98
E0
ENDCHAR
STARTCHAR uni0307
ENCODING 775
SWIDTH 0 0
DWIDTH 0 0
BBX 3 2 -2 8
BITMAP
E0
C0
ENDCHAR
STARTCHAR uni0308
ENCODING 776
SWIDTH 0 0
DWIDTH 0 0
BBX 4 2 -4 8
BITMAP
D0
D0
ENDCHAR
STARTCHAR hookabovecomb
ENCODING 777
SWIDTH 0 0
DWIDTH 0 0
BBX 3 3 -3 8
BITMAP
C0
20
C0
ENDCHAR
STARTCHAR uni030A
ENCODING 778
SWIDTH 0 0
DWIDTH 0 0
BBX 2 2 -2 7
BITMAP
C0
C0
ENDCHAR
STARTCHAR uni030B
ENCODING 779
SWIDTH 0 0
DWIDTH 0 0
BBX 5 3 -4 8
BITMAP
78
D0
A0
ENDCHAR
STARTCHAR uni030C
ENCODING 780
SWIDTH 0 0
DWIDTH 0 0
BBX 4 3 -3 8
BITMAP
90
E0
80
ENDCHAR
STARTCHAR uni030F
ENCODING 783
SWIDTH 0 0
DWIDTH 0 0
BBX 5 3 -5 8
BITMAP
F0
58
28
ENDCHAR
STARTCHAR uni0311
ENCODING 785
SWIDTH 0 0
DWIDTH 0 0
BBX 5 2 -5 8
BITMAP
78
C8
ENDCHAR
STARTCHAR uni031B
ENCODING 795
SWIDTH 0 0
DWIDTH 0 0
BBX 2 3 -2 6
BITMAP
40
40
C0
ENDCHAR
STARTCHAR dotbelowcomb
ENCODING 803
SWIDTH 0 0
DWIDTH 0 0
BBX 3 2 -3 -3
BITMAP
E0
40
ENDCHAR
STARTCHAR uni0324
ENCODING 804
SWIDTH 0 0
DWIDTH 0 0
BBX 4 2 -6 -3
BITMAP
90
F0
ENDCHAR
STARTCHAR uni0326
ENCODING 806
SWIDTH 0 0
DWIDTH 0 0
BBX 1 3 -3 -4
BITMAP
80
80
80
ENDCHAR
STARTCHAR uni0327
ENCODING 807
SWIDTH 0 0
DWIDTH 0 0
BBX 3 4 -5 -3
BITMAP
40
60
20
C0
ENDCHAR
STARTCHAR uni0328
ENCODING 808
SWIDTH 0 0
DWIDTH 0 0
BBX 3 3 -5 -3
BITMAP
C0
80
E0
ENDCHAR
STARTCHAR uni032E
ENCODING 814
SWIDTH 0 0
DWIDTH 0 0
BBX 4 2 -6 -3
BITMAP
90
60
ENDCHAR
STARTCHAR uni0331
ENCODING 817
SWIDTH 0 0
DWIDTH 0 0
BBX 4 1 -6 -2
BITMAP
F0
ENDCHAR
STARTCHAR uni0335
ENCODING 821
SWIDTH 0 0
DWIDTH 0 0
BBX 4 1 -5 3
BITMAP
F0
ENDCHAR
STARTCHAR uni0394
ENCODING 916
SWIDTH 619 0
DWIDTH 9 0
BBX 9 10 0 0
BITMAP
0600
0600
0B00
1B00
1300
3100
2100
4100
4100
FF80
ENDCHAR
STARTCHAR uni03A9
ENCODING 937
SWIDTH 745 0
DWIDTH 10 0
BBX 10 11 0 0
BITMAP
0700
1880
30C0
2040
2040
60C0
4080
6080
2100
2200
F780
ENDCHAR
STARTCHAR uni03BC
ENCODING 956
SWIDTH 505 0
DWIDTH 7 0
BBX 9 10 -1 -3
BITMAP
3600
3600
6600
6600
6E00
6C80
7700
C000
C000
8000
ENDCHAR
STARTCHAR pi
ENCODING 960
SWIDTH 530 0
DWIDTH 7 0
BBX 7 7 0 0
BITMAP
FE
44
4C
48
C8
88
8C
ENDCHAR
STARTCHAR uni0400
ENCODING 1024
SWIDTH 459 0
DWIDTH 6 0
BBX 7 14 0 0
BITMAP
08
08
04
00
1C
32
36
30
18
70
E0
E0
E6
78
ENDCHAR
STARTCHAR uni0401
ENCODING 1025
SWIDTH 459 0
DWIDTH 6 0
BBX 7 13 0 0
BITMAP
1A
1A
00
1C
32
36
30
18
70
E0
E0
E6
78
ENDCHAR
STARTCHAR uni0402
ENCODING 1026
SWIDTH 725 0
DWIDTH 10 0
BBX 10 13 0 -3
BITMAP
3FC0
4C00
CC00
8C00
5F80
1980
1980
1980
1980
3100
0300
0200
0C00
ENDCHAR
STARTCHAR uni0403
ENCODING 1027
SWIDTH 400 0
DWIDTH 6 0
BBX 9 14 0 0
BITMAP
0180
0100
0200
0000
3F80
5800
D800
D800
1800
3000
3000
3000
3000
7000
ENDCHAR
STARTCHAR uni0404
ENCODING 1028
SWIDTH 497 0
DWIDTH 7 0
BBX 7 10 0 0
BITMAP
1E
32
72
60
7C
E0
E0
E0
62
7C
ENDCHAR
STARTCHAR uni0405
ENCODING 1029
SWIDTH 570 0
DWIDTH 8 0
BBX 8 10 0 0
BITMAP
1E
33
33
38
1C
0E
76
C6
46
7C
ENDCHAR
STARTCHAR uni0406
ENCODING 1030
SWIDTH 374 0
DWIDTH 5 0
BBX 6 10 0 0
BITMAP
3C
58
D8
98
58
30
30
30
30
70
ENDCHAR
STARTCHAR uni0407
ENCODING 1031
SWIDTH 375 0
DWIDTH 5 0
BBX 7 13 0 0
BITMAP
16
16
00
3C
58
D8
98
D8
30
30
30
30
60
ENDCHAR
STARTCHAR uni0408
ENCODING 1032
SWIDTH 536 0
DWIDTH 8 0
BBX 8 13 0 -3
BITMAP
07
0B
13
16
16
06
06
0C
0C
6C
CC
98
70
ENDCHAR
STARTCHAR uni0409
ENCODING 1033
SWIDTH 817 0
DWIDTH 11 0
BBX 11 11 0 -1
BITMAP
0700
0B00
1300
3600
27C0
6660
4660
CC60
CC40
8DC0
8000
ENDCHAR
STARTCHAR uni040A
ENCODING 1034
SWIDTH 931 0
DWIDTH 13 0
BBX 13 10 0 0
BITMAP
1CC0
7980
D980
9980
5FF0
3330
3318
3310
3330
77E0
ENDCHAR
STARTCHAR uni040B
ENCODING 1035
SWIDTH 745 0
DWIDTH 10 0
BBX 10 10 0 0
BITMAP
3FC0
4C00
CC00
8C00
5F80
1980
1980
1980
1980
3180
ENDCHAR
STARTCHAR uni040C
ENCODING 1036
SWIDTH 635 0
DWIDTH 9 0
BBX 10 14 0 0
BITMAP
0180
0100
0200
0000
1DC0
7B80
DC00
9C00
5E00
3300
3300
3600
3600
7700
ENDCHAR
STARTCHAR uni040D
ENCODING 1037
SWIDTH 705 0
DWIDTH 10 0
BBX 10 14 0 0
BITMAP
0200
0200
0200
0000
3CC0
59C0
D9C0
9B80
5B80
3580
3D80
3980
3300
7300
ENDCHAR
STARTCHAR uni040E
ENCODING 1038
SWIDTH 644 0
DWIDTH 9 0
BBX 10 13 0 0
BITMAP
0640
0780
0000
1C40
6C80
CC80
8D00
4700
0700
0600
0600
1C00
1800
ENDCHAR
STARTCHAR uni040F
ENCODING 1039
SWIDTH 665 0
DWIDTH 9 0
BBX 10 15 0 -5
BITMAP
3CC0
5980
D980
9980
5980
3300
3300
3300
3300
7F00
1000
1800
1800
0800
1000
ENDCHAR
STARTCHAR uni0410
ENCODING 1040
SWIDTH 668 0
DWIDTH 9 0
BBX 10 11 0 -1
BITMAP
01C0
0380
0580
0980
7D80
D300
3300
3300
6300
6700
6000
ENDCHAR
STARTCHAR uni0411
ENCODING 1041
SWIDTH 638 0
DWIDTH 9 0
BBX 9 10 0 0
BITMAP
3F80
5800
9800
9800
7E00
3300
3300
3300
3300
6E00
ENDCHAR
STARTCHAR uni0412
ENCODING 1042
SWIDTH 641 0
DWIDTH 9 0
BBX 8 10 0 0
BITMAP
1E
65
D9
DB
9F
33
31
33
33
7E
ENDCHAR
STARTCHAR uni0413
ENCODING 1043
SWIDTH 400 0
DWIDTH 6 0
BBX 9 10 0 0
BITMAP
3F80
5800
D800
D800
1800
3000
3000
3000
3000
7000
ENDCHAR
STARTCHAR uni0414
ENCODING 1044
SWIDTH 669 0
DWIDTH 9 0
BBX 9 10 0 0
BITMAP
1F00
6980
D980
D980
3980
3180
F180
B300
B300
EE00
ENDCHAR
STARTCHAR uni0415
ENCODING 1045
SWIDTH 459 0
DWIDTH 6 0
BBX 7 10 0 0
BITMAP
1C
32
36
30
18
70
E0
E0
E6
78
ENDCHAR
STARTCHAR uni0416
ENCODING 1046
SWIDTH 777 0
DWIDTH 11 0
BBX 13 10 -1 0
BITMAP
39B8
3B70
0740
0780
1FC0
3660
3660
2640
66C0
EEE0
ENDCHAR
STARTCHAR uni0417
ENCODING 1047
SWIDTH 525 0
DWIDTH 7 0
BBX 7 10 0 0
BITMAP
3C
46
06
0C
38
0C
0E
CE
8C
F8
ENDCHAR
STARTCHAR uni0418
ENCODING 1048
SWIDTH 705 0
DWIDTH 10 0
BBX 10 10 0 0
BITMAP
3CC0
59C0
D9C0
9B80
5B80
3580
3D80
3980
3300
7300
ENDCHAR
STARTCHAR uni0419
ENCODING 1049
SWIDTH 705 0
DWIDTH 10 0
BBX 10 13 0 0
BITMAP
06C0
0700
0000
3CC0
59C0
D9C0
9B80
5B80
3580
3D80
3980
3300
7300
ENDCHAR
STARTCHAR uni041A
ENCODING 1050
SWIDTH 635 0
DWIDTH 9 0
BBX 10 10 0 0
BITMAP
1DC0
7B80
DC00
9C00
5E00
3300
3300
3600
3600
7700
ENDCHAR
STARTCHAR uni041B
ENCODING 1051
SWIDTH 549 0
DWIDTH 8 0
BBX 8 11 0 -1
BITMAP
07
0B
13
36
26
66
46
CC
CC
8C
80
ENDCHAR
STARTCHAR uni041C
ENCODING 1052
SWIDTH 787 0
DWIDTH 11 0
BBX 10 10 1 0
BITMAP
38C0
58C0
99C0
B9C0
BAC0
3B80
5F80
5D80
5D80
9980
ENDCHAR
STARTCHAR uni041D
ENCODING 1053
SWIDTH 665 0
DWIDTH 9 0
BBX 10 10 0 0
BITMAP
3CC0
5980
D980
9980
5F80
3300
3300
3300
3300
7700
ENDCHAR
STARTCHAR uni041E
ENCODING 1054
SWIDTH 665 0
DWIDTH 9 0
BBX 9 10 0 0
BITMAP
1F00
6D80
5980
D980
7180
3180
3180
3300
3600
3C00
ENDCHAR
STARTCHAR uni041F
ENCODING 1055
SWIDTH 688 0
DWIDTH 10 0
BBX 11 10 0 0
BITMAP
3FE0
5980
D980
9980
5980
3300
3300
3300
3300
7700
ENDCHAR
STARTCHAR uni0420
ENCODING 1056
SWIDTH 573 0
DWIDTH 8 0
BBX 8 10 0 0
BITMAP
1E
67
D9
99
DB
36
38
30
30
60
ENDCHAR
STARTCHAR uni0421
ENCODING 1057
SWIDTH 497 0
DWIDTH 7 0
BBX 7 10 0 0
BITMAP
1E
32
72
60
60
E0
E0
E0
62
7C
ENDCHAR
STARTCHAR uni0422
ENCODING 1058
SWIDTH 481 0
DWIDTH 7 0
BBX 10 10 0 0
BITMAP
3FC0
4C00
8C00
8C00
5800
1800
1800
1800
1800
3000
ENDCHAR
STARTCHAR uni0423
ENCODING 1059
SWIDTH 644 0
DWIDTH 9 0
BBX 10 10 0 0
BITMAP
1C40
6C80
CC80
8D00
4700
0700
0600
0600
1C00
1800
ENDCHAR
STARTCHAR uni0424
ENCODING 1060
SWIDTH 786 0
DWIDTH 11 0
BBX 11 11 0 0
BITMAP
1F00
2600
2600
1F80
66C0
4660
CC60
CCC0
6DC0
3F00
1800
ENDCHAR
STARTCHAR uni0425
ENCODING 1061
SWIDTH 620 0
DWIDTH 9 0
BBX 9 10 0 0
BITMAP
1D80
6D00
CE00
8E00
CE00
0E00
0E00
1600
1600
2700
ENDCHAR
STARTCHAR uni0426
ENCODING 1062
SWIDTH 692 0
DWIDTH 10 0
BBX 10 12 0 -2
BITMAP
1CC0
7980
D980
9980
5980
3300
3300
3300
3300
7F00
07C0
01C0
ENDCHAR
STARTCHAR uni0427
ENCODING 1063
SWIDTH 695 0
DWIDTH 10 0
BBX 10 10 0 0
BITMAP
1CC0
78C0
D8C0
9980
5980
1F80
0180
0300
0300
0300
ENDCHAR
STARTCHAR uni0428
ENCODING 1064
SWIDTH 906 0
DWIDTH 13 0
BBX 13 10 0 0
BITMAP
3D98
5998
D998
9BB0
5B30
3330
3330
3360
3660
7FE0
ENDCHAR
STARTCHAR uni0429
ENCODING 1065
SWIDTH 934 0
DWIDTH 13 0
BBX 13 12 0 -2
BITMAP
1D98
7998
D998
9BB0
5B30
3330
3330
3360
3660
7E60
03F8
0078
ENDCHAR
STARTCHAR uni042A
ENCODING 1066
SWIDTH 714 0
DWIDTH 10 0
BBX 10 10 0 0
BITMAP
3E00
4C00
CC00
CC00
CF80
1980
18C0
1980
1980
3F00
ENDCHAR
STARTCHAR uni042B
ENCODING 1067
SWIDTH 909 0
DWIDTH 13 0
BBX 13 10 0 0
BITMAP
1C18
7818
D818
9830
5F30
3330
3130
3360
3360
7E60
ENDCHAR
STARTCHAR uni042C
ENCODING 1068
SWIDTH 640 0
DWIDTH 9 0
BBX 8 10 0 0
BITMAP
1C
78
D8
98
5F
33
31
33
33
7E
ENDCHAR
STARTCHAR uni042D
ENCODING 1069
SWIDTH 544 0
DWIDTH 8 0
BBX 7 10 0 0
BITMAP
3C
46
46
06
3E
06
06
CC
9C
F0
ENDCHAR
STARTCHAR uni042E
ENCODING 1070
SWIDTH 946 0
DWIDTH 13 0
BBX 13 10 0 0
BITMAP
1CF0
79D8
D998
9B18
5F18
3318
3318
3730
3360
73C0
ENDCHAR
STARTCHAR uni042F
ENCODING 1071
SWIDTH 630 0
DWIDTH 9 0
BBX 11 10 -1 0
BITMAP
0FC0
1B60
1340
1300
1F00
3700
3600
2600
6600
EE00
ENDCHAR
STARTCHAR uni0430
ENCODING 1072
SWIDTH 526 0
DWIDTH 7 0
BBX 8 7 0 0
BITMAP
3E
6C
CC
CC
CD
DD
EE
ENDCHAR
STARTCHAR uni0431
ENCODING 1073
SWIDTH 430 0
DWIDTH 6 0
BBX 8 10 0 0
BITMAP
3F
3E
10
38
68
C8
C8
C8
D8
70
ENDCHAR
STARTCHAR uni0432
ENCODING 1074
SWIDTH 449 0
DWIDTH 6 0
BBX 8 10 0 0
BITMAP
18
34
64
68
DB
DC
C8
C8
C8
70
ENDCHAR
STARTCHAR uni0433
ENCODING 1075
SWIDTH 375 0
DWIDTH 5 0
BBX 6 7 0 0
BITMAP
70
98
38
70
C4
C8
F0
ENDCHAR
STARTCHAR uni0434
ENCODING 1076
SWIDTH 507 0
DWIDTH 7 0
BBX 8 10 0 -3
BITMAP
3E
6C
CC
CC
CC
CD
FE
38
58
70
ENDCHAR
STARTCHAR uni0435
ENCODING 1077
SWIDTH 384 0
DWIDTH 5 0
BBX 6 7 0 0
BITMAP
38
68
D8
F0
C4
C8
F0
ENDCHAR
STARTCHAR uni0436
ENCODING 1078
SWIDTH 882 0
DWIDTH 12 0
BBX 14 7 -1 0
BITMAP
39B8
4B68
0B60
0FC0
1B40
DA44
7678
ENDCHAR
STARTCHAR uni0437
ENCODING 1079
SWIDTH 498 0
DWIDTH 7 0
BBX 8 10 0 -3
BITMAP
38
4C
8C
98
31
1A
1C
78
58
70
ENDCHAR
STARTCHAR uni0438
ENCODING 1080
SWIDTH 505 0
DWIDTH 7 0
BBX 8 7 0 0
BITMAP
6C
6C
CC
CC
D9
DA
EC
ENDCHAR
STARTCHAR uni0439
ENCODING 1081
SWIDTH 505 0
DWIDTH 7 0
BBX 8 9 0 0
BITMAP
36
38
6C
6C
CC
CC
D9
DA
EC
ENDCHAR
STARTCHAR uni043A
ENCODING 1082
SWIDTH 501 0
DWIDTH 7 0
BBX 9 7 -1 0
BITMAP
3300
3F00
7C00
6400
6C80
6D00
E600
ENDCHAR
STARTCHAR uni043B
ENCODING 1083
SWIDTH 558 0
DWIDTH 8 0
BBX 9 7 -1 0
BITMAP
0700
0B00
0B00
1200
1600
D680
6700
ENDCHAR
STARTCHAR uni043C
ENCODING 1084
SWIDTH 827 0
DWIDTH 12 0
BBX 13 7 -1 0
BITMAP
0670
0E70
0EE0
16E0
5768
D768
6670
ENDCHAR
STARTCHAR uni043D
ENCODING 1085
SWIDTH 507 0
DWIDTH 7 0
BBX 9 7 -1 0
BITMAP
3600
3600
6600
7E00
6600
6C80
E700
ENDCHAR
STARTCHAR uni043E
ENCODING 1086
SWIDTH 439 0
DWIDTH 6 0
BBX 8 7 0 0
BITMAP
38
69
CE
C8
C8
D8
F0
ENDCHAR
STARTCHAR uni043F
ENCODING 1087
SWIDTH 505 0
DWIDTH 7 0
BBX 9 7 -1 0
BITMAP
3E00
3600
6600
6600
6400
6C80
E700
ENDCHAR
STARTCHAR uni0440
ENCODING 1088
SWIDTH 468 0
DWIDTH 7 0
BBX 7 11 -1 -3
BITMAP
30
3E
36
66
66
66
6C
78
C0
C0
C0
ENDCHAR
STARTCHAR uni0441
ENCODING 1089
SWIDTH 384 0
DWIDTH 5 0
BBX 6 7 0 0
BITMAP
38
68
C0
C0
C4
C8
F0
ENDCHAR
STARTCHAR uni0442
ENCODING 1090
SWIDTH 752 0
DWIDTH 11 0
BBX 12 7 -1 0
BITMAP
3FC0
36C0
66C0
66C0
6CC0
6CD0
ECE0
ENDCHAR
STARTCHAR uni0443
ENCODING 1091
SWIDTH 486 0
DWIDTH 7 0
BBX 7 10 0 -3
BITMAP
6C
6C
CC
CC
DA
DA
FC
78
70
70
ENDCHAR
STARTCHAR uni0444
ENCODING 1092
SWIDTH 738 0
DWIDTH 10 0
BBX 10 13 0 -3
BITMAP
0200
0600
0600
3F80
6CC0
CCC0
CCC0
CD80
D980
FF00
1800
1800
3800
ENDCHAR
STARTCHAR uni0445
ENCODING 1093
SWIDTH 522 0
DWIDTH 7 0
BBX 8 7 0 0
BITMAP
36
5A
9C
98
98
39
CE
ENDCHAR
STARTCHAR uni0446
ENCODING 1094
SWIDTH 535 0
DWIDTH 7 0
BBX 7 10 0 -3
BITMAP
6C
6C
CC
CC
D8
D8
EE
3C
3C
40
ENDCHAR
STARTCHAR uni0447
ENCODING 1095
SWIDTH 505 0
DWIDTH 7 0
BBX 8 7 0 0
BITMAP
6C
6C
CC
DC
79
1A
0C
ENDCHAR
STARTCHAR uni0448
ENCODING 1096
SWIDTH 752 0
DWIDTH 11 0
BBX 11 7 0 0
BITMAP
6CC0
6CC0
CD80
CD80
D9A0
DBA0
EDC0
ENDCHAR
STARTCHAR uni0449
ENCODING 1097
SWIDTH 782 0
DWIDTH 11 0
BBX 10 10 0 -3
BITMAP
6CC0
6CC0
CD80
CD80
D980
DB80
EDC0
07C0
0780
0800
ENDCHAR
STARTCHAR uni044A
ENCODING 1098
SWIDTH 448 0
DWIDTH 6 0
BBX 6 7 0 0
BITMAP
F0
A0
78
CC
CC
D8
F0
ENDCHAR
STARTCHAR uni044B
ENCODING 1099
SWIDTH 655 0
DWIDTH 9 0
BBX 10 7 0 0
BITMAP
6180
6700
DB00
CB00
CB40
DB80
F380
ENDCHAR
STARTCHAR uni044C
ENCODING 1100
SWIDTH 448 0
DWIDTH 6 0
BBX 6 7 0 0
BITMAP
60
60
F8
CC
CC
D8
F0
ENDCHAR
STARTCHAR uni044D
ENCODING 1101
SWIDTH 413 0
DWIDTH 6 0
BBX 6 7 -1 0
BITMAP
3C
4C
0C
3C
4C
98
70
ENDCHAR
STARTCHAR uni044E
ENCODING 1102
SWIDTH 675 0
DWIDTH 9 0
BBX 12 7 -1 0
BITMAP
3380
3650
66E0
7CC0
6C80
6C80
E700
ENDCHAR
STARTCHAR uni044F
ENCODING 1103
SWIDTH 527 0
DWIDTH 7 0
BBX 9 7 -1 0
BITMAP
1F00
3200
3600
3E00
5680
D680
6700
ENDCHAR
STARTCHAR uni0450
ENCODING 1104
SWIDTH 384 0
DWIDTH 5 0
BBX 6 11 0 0
BITMAP
30
10
10
00
38
68
D8
F0
C4
C8
F0
ENDCHAR
STARTCHAR uni0451
ENCODING 1105
SWIDTH 384 0
DWIDTH 5 0
BBX 6 10 0 0
BITMAP
2C
2C
00
38
68
D8
F0
C4
C8
F0
ENDCHAR
STARTCHAR uni0452
ENCODING 1106
SWIDTH 491 0
DWIDTH 7 0
BBX 8 13 -1 -3
BITMAP
38
30
7C
30
3C
76
66
6D
6D
EE
3C
28
38
ENDCHAR
STARTCHAR uni0453
ENCODING 1107
SWIDTH 375 0
DWIDTH 5 0
BBX 6 11 0 0
BITMAP
0C
08
10
00
70
98
38
70
C4
C8
F0
ENDCHAR
STARTCHAR uni0454
ENCODING 1108
SWIDTH 384 0
DWIDTH 5 0
BBX 6 7 0 0
BITMAP
38
68
C0
F0
C4
C8
F0
ENDCHAR
STARTCHAR uni0455
ENCODING 1109
SWIDTH 382 0
DWIDTH 5 0
BBX 6 7 0 0
BITMAP
30
70
70
B0
B4
B8
E0
ENDCHAR
STARTCHAR uni0456
ENCODING 1110
SWIDTH 267 0
DWIDTH 4 0
BBX 4 10 0 0
BITMAP
60
60
00
60
60
C0
C0
D0
D0
E0
ENDCHAR
STARTCHAR uni0457
ENCODING 1111
SWIDTH 267 0
DWIDTH 4 0
BBX 4 10 0 0
BITMAP
D0
D0
00
60
60
C0
C0
D0
D0
E0
ENDCHAR
STARTCHAR uni0458
ENCODING 1112
SWIDTH 240 0
DWIDTH 3 0
BBX 7 13 -3 -3
BITMAP
0C
0C
00
0C
0C
18
18
1A
1A
1C
70
B0
E0
ENDCHAR
STARTCHAR uni0459
ENCODING 1113
SWIDTH 745 0
DWIDTH 10 0
BBX 11 7 -1 0
BITMAP
0700
0B00
0BC0
1660
1660
D640
6380
ENDCHAR
STARTCHAR uni045A
ENCODING 1114
SWIDTH 694 0
DWIDTH 10 0
BBX 10 7 -1 0
BITMAP
3600
3600
6780
7EC0
66C0
6CC0
E780
ENDCHAR
STARTCHAR uni045B
ENCODING 1115
SWIDTH 505 0
DWIDTH 7 0
BBX 9 10 -1 0
BITMAP
3800
3000
7C00
3000
3C00
7600
6600
6600
6C80
E700
ENDCHAR
STARTCHAR uni045C
ENCODING 1116
SWIDTH 501 0
DWIDTH 7 0
BBX 9 11 -1 0
BITMAP
0200
0600
0400
0000
3300
3F00
7C00
6400
6C80
6D00
E600
ENDCHAR
STARTCHAR uni045D
ENCODING 1117
SWIDTH 505 0
DWIDTH 7 0
BBX 8 11 0 0
BITMAP
30
10
10
00
6C
6C
CC
CC
D9
DA
EC
ENDCHAR
STARTCHAR uni045E
ENCODING 1118
SWIDTH 486 0
DWIDTH 7 0
BBX 7 12 0 -3
BITMAP
36
38
6C
6C
CC
CC
DA
DA
FC
78
70
70
ENDCHAR
STARTCHAR uni045F
ENCODING 1119
SWIDTH 505 0
DWIDTH 7 0
BBX 8 10 0 -3
BITMAP
6C
6C
CC
CC
D9
DA
EC
20
30
10
ENDCHAR
STARTCHAR uni0462
ENCODING 1122
SWIDTH 659 0
DWIDTH 9 0
BBX 9 10 0 0
BITMAP
1800
7C80
DF00
9800
FE00
3300
3300
3300
3300
6E00
ENDCHAR
STARTCHAR uni0463
ENCODING 1123
SWIDTH 692 0
DWIDTH 10 0
BBX 10 7 -1 0
BITMAP
3E00
3600
67C0
66C0
6CC0
6CC0
E700
ENDCHAR
STARTCHAR uni046A
ENCODING 1130
SWIDTH 834 0
DWIDTH 12 0
BBX 11 10 0 0
BITMAP
1FE0
2E40
4680
4680
1FC0
3760
3660
3660
66C0
E6E0
ENDCHAR
STARTCHAR uni046B
ENCODING 1131
SWIDTH 750 0
DWIDTH 11 0
BBX 8 7 1 0
BITMAP
7F
DA
9C
7F
5B
DB
DB
ENDCHAR
STARTCHAR uni0472
ENCODING 1138
SWIDTH 665 0
DWIDTH 9 0
BBX 9 10 0 0
BITMAP
1F00
6D80
5980
F180
7D80
3780
3180
3300
3600
3C00
ENDCHAR
STARTCHAR uni0473
ENCODING 1139
SWIDTH 439 0
DWIDTH 6 0
BBX 8 7 0 0
BITMAP
38
69
CE
F8
C8
D8
F0
ENDCHAR
STARTCHAR uni0474
ENCODING 1140
SWIDTH 668 0
DWIDTH 9 0
BBX 11 10 0 0
BITMAP
1CE0
7C80
CD80
8D00
CD00
0E00
0E00
0E00
0C00
0C00
ENDCHAR
STARTCHAR uni0475
ENCODING 1141
SWIDTH 414 0
DWIDTH 6 0
BBX 6 7 0 0
BITMAP
68
64
C8
C8
C8
D0
E0
ENDCHAR
STARTCHAR uni0490
ENCODING 1168
SWIDTH 431 0
DWIDTH 6 0
BBX 9 12 0 0
BITMAP
0080
0080
3F80
5F00
D800
9800
D800
3000
3000
3000
3000
6000
ENDCHAR
STARTCHAR uni0491
ENCODING 1169
SWIDTH 342 0
DWIDTH 5 0
BBX 6 8 -1 0
BITMAP
04
3C
30
60
60
60
60
E0
ENDCHAR
STARTCHAR uni0492
ENCODING 1170
SWIDTH 400 0
DWIDTH 6 0
BBX 9 10 0 0
BITMAP
3F80
5800
D800
D800
5800
7C00
3000
3000
3000
7000
ENDCHAR
STARTCHAR uni0493
ENCODING 1171
SWIDTH 375 0
DWIDTH 5 0
BBX 6 7 0 0
BITMAP
70
98
30
F8
C4
C8
F0
ENDCHAR
STARTCHAR uni0494
ENCODING 1172
SWIDTH 665 0
DWIDTH 9 0
BBX 9 10 0 0
BITMAP
3F80
5800
D800
D800
DF00
3100
3180
3100
3300
7E00
ENDCHAR
STARTCHAR uni0495
ENCODING 1173
SWIDTH 486 0
DWIDTH 7 0
BBX 8 10 -1 -3
BITMAP
3E
30
7C
6C
6D
6D
EE
3C
28
38
ENDCHAR
STARTCHAR uni0496
ENCODING 1174
SWIDTH 777 0
DWIDTH 11 0
BBX 13 14 -1 -4
BITMAP
39B8
3B70
0740
0780
1FC0
3660
3660
2640
66C0
EEE0
0080
00C0
00C0
0040
ENDCHAR
STARTCHAR uni0497
ENCODING 1175
SWIDTH 882 0
DWIDTH 12 0
BBX 14 10 -1 -3
BITMAP
39B8
4B68
0B60
0FC0
1B44
DA48
7670
0020
0030
0020
ENDCHAR
STARTCHAR uni0498
ENCODING 1176
SWIDTH 525 0
DWIDTH 7 0
BBX 7 14 0 -4
BITMAP
3C
46
06
0C
38
0C
0E
CE
8C
F8
20
30
30
10
ENDCHAR
STARTCHAR uni0499
ENCODING 1177
SWIDTH 498 0
DWIDTH 7 0
BBX 8 13 0 -6
BITMAP
38
4C
8C
98
31
1A
1C
78
58
70
20
60
20
ENDCHAR
STARTCHAR uni049A
ENCODING 1178
SWIDTH 635 0
DWIDTH 9 0
BBX 10 14 0 -4
BITMAP
1DC0
7B80
DC00
9C00
5E00
3300
3300
3600
3600
7600
0500
0600
0300
0200
ENDCHAR
STARTCHAR uni049B
ENCODING 1179
SWIDTH 501 0
DWIDTH 7 0
BBX 9 10 -1 -3
BITMAP
3300
3F00
7C00
6400
6C80
6D00
E600
0400
0600
0400
ENDCHAR
STARTCHAR uni049C
ENCODING 1180
SWIDTH 721 0
DWIDTH 10 0
BBX 11 10 0 0
BITMAP
1CE0
79E0
D900
9E00
5F00
3700
3300
3300
3300
7300
ENDCHAR
STARTCHAR uni049D
ENCODING 1181
SWIDTH 551 0
DWIDTH 8 0
BBX 9 7 -1 0
BITMAP
3380
3D00
6C00
7600
7680
6680
E700
ENDCHAR
STARTCHAR uni04A0
ENCODING 1184
SWIDTH 691 0
DWIDTH 10 0
BBX 10 10 0 0
BITMAP
3CC0
4D40
CE00
8C00
5F00
1980
1900
1B00
1B00
3300
ENDCHAR
STARTCHAR uni04A1
ENCODING 1185
SWIDTH 676 0
DWIDTH 9 0
BBX 10 7 0 0
BITMAP
7980
DA80
9C00
9F00
3300
3340
3380
ENDCHAR
STARTCHAR uni04A2
ENCODING 1186
SWIDTH 665 0
DWIDTH 9 0
BBX 10 12 0 -2
BITMAP
1CC0
7980
D980
9980
5F80
3300
3300
3300
3300
7700
01C0
0180
ENDCHAR
STARTCHAR uni04A3
ENCODING 1187
SWIDTH 507 0
DWIDTH 7 0
BBX 9 10 -1 -3
BITMAP
3600
3600
6600
7E00
6600
6C80
E700
0400
0600
0600
ENDCHAR
STARTCHAR uni04A4
ENCODING 1188
SWIDTH 689 0
DWIDTH 10 0
BBX 13 10 0 0
BITMAP
3CF8
5980
D980
9980
5F80
3300
3300
3300
3300
7700
ENDCHAR
STARTCHAR uni04A5
ENCODING 1189
SWIDTH 681 0
DWIDTH 10 0
BBX 11 7 -1 0
BITMAP
37E0
37C0
6600
7E00
6480
6D00
E600
ENDCHAR
STARTCHAR uni04AA
ENCODING 1194
SWIDTH 497 0
DWIDTH 7 0
BBX 7 15 0 -5
BITMAP
1E
32
72
60
60
E0
E0
E0
E2
7C
38
30
18
18
10
ENDCHAR
STARTCHAR uni04AB
ENCODING 1195
SWIDTH 384 0
DWIDTH 5 0
BBX 6 10 0 -3
BITMAP
38
68
C0
C0
C4
C8
F0
40
60
20
ENDCHAR
STARTCHAR uni04AE
ENCODING 1198
SWIDTH 620 0
DWIDTH 9 0
BBX 10 10 0 0
BITMAP
1C40
6C80
CC80
8D00
CF00
0600
0600
0E00
0C00
0C00
ENDCHAR
STARTCHAR uni04AF
ENCODING 1199
SWIDTH 480 0
DWIDTH 7 0
BBX 5 10 1 -3
BITMAP
C8
C8
C8
C8
D0
E0
E0
C0
C0
C0
ENDCHAR
STARTCHAR uni04B0
ENCODING 1200
SWIDTH 620 0
DWIDTH 9 0
BBX 10 10 0 0
BITMAP
1C40
6C80
CC80
8D00
CF00
0600
1F00
0E00
0C00
0C00
ENDCHAR
STARTCHAR uni04B1
ENCODING 1201
SWIDTH 480 0
DWIDTH 7 0
BBX 6 10 0 -3
BITMAP
64
64
64
64
68
70
70
F8
60
60
ENDCHAR
STARTCHAR uni04B6
ENCODING 1206
SWIDTH 695 0
DWIDTH 10 0
BBX 10 12 0 -2
BITMAP
1CC0
78C0
D8C0
9980
5980
1F80
0180
0300
0300
0300
01C0
00C0
ENDCHAR
STARTCHAR uni04B7
ENCODING 1207
SWIDTH 505 0
DWIDTH 7 0
BBX 8 10 0 -3
BITMAP
6C
6C
CC
DC
79
1A
0C
08
0C
0C
ENDCHAR
STARTCHAR uni04B8
ENCODING 1208
SWIDTH 715 0
DWIDTH 10 0
BBX 10 10 0 0
BITMAP
1CC0
78C0
D8C0
98C0
5B80
1F80
0580
0180
0180
0300
ENDCHAR
STARTCHAR uni04B9
ENCODING 1209
SWIDTH 545 0
DWIDTH 8 0
BBX 8 7 0 0
BITMAP
66
66
DC
FC
7C
2D
0E
ENDCHAR
STARTCHAR uni04BA
ENCODING 1210
SWIDTH 679 0
DWIDTH 10 0
BBX 9 10 0 0
BITMAP
1C00
7800
D800
9800
5F00
3180
3180
3300
3300
7300
ENDCHAR
STARTCHAR uni04BB
ENCODING 1211
SWIDTH 505 0
DWIDTH 7 0
BBX 9 10 -1 0
BITMAP
1800
3000
3000
3E00
3600
6600
6600
6400
6C80
E700
ENDCHAR
STARTCHAR uni04C0
ENCODING 1216
SWIDTH 375 0
DWIDTH 5 0
BBX 6 10 0 0
BITMAP
3C
58
D8
98
D8
30
30
30
30
60
ENDCHAR
STARTCHAR uni04C1
ENCODING 1217
SWIDTH 777 0
DWIDTH 11 0
BBX 13 13 -1 0
BITMAP
0240
0380
0000
39B8
3B70
0740
0780
1FC0
3660
3660
2640
66C0
EEE0
ENDCHAR
STARTCHAR uni04C2
ENCODING 1218
SWIDTH 882 0
DWIDTH 12 0
BBX 14 9 -1 0
BITMAP
0240
0380
39B8
4B68
0B60
0FC0
1B40
DA44
7678
ENDCHAR
STARTCHAR uni04CB
ENCODING 1227
SWIDTH 695 0
DWIDTH 10 0
BBX 10 12 0 -2
BITMAP
1CC0
78C0
D8C0
9980
5980
1F80
0180
0300
0300
0300
1C00
1800
ENDCHAR
STARTCHAR uni04CC
ENCODING 1228
SWIDTH 516 0
DWIDTH 7 0
BBX 8 10 0 -3
BITMAP
6E
6C
6C
FC
6D
1E
0C
78
70
80
ENDCHAR
STARTCHAR uni04CF
ENCODING 1231
SWIDTH 267 0
DWIDTH 4 0
BBX 4 10 0 0
BITMAP
30
60
60
60
60
C0
C0
D0
F0
E0
ENDCHAR
STARTCHAR uni04D0
ENCODING 1232
SWIDTH 668 0
DWIDTH 9 0
BBX 11 14 0 -1
BITMAP
0120
01C0
0000
01C0
0380
0580
0980
7D80
D300
3300
3300
6300
6700
6000
ENDCHAR
STARTCHAR uni04D1
ENCODING 1233
SWIDTH 526 0
DWIDTH 7 0
BBX 8 9 0 0
BITMAP
32
1C
3E
6C
CC
CC
CD
DD
EE
ENDCHAR
STARTCHAR uni04D2
ENCODING 1234
SWIDTH 668 0
DWIDTH 9 0
BBX 11 15 0 -1
BITMAP
0120
01E0
0000
0000
01C0
0380
0580
0980
7D80
D300
3300
3300
6300
6700
6000
ENDCHAR
STARTCHAR uni04D3
ENCODING 1235
SWIDTH 526 0
DWIDTH 7 0
BBX 8 10 0 0
BITMAP
16
16
00
3E
6C
CC
CC
CD
DD
EE
ENDCHAR
STARTCHAR uni04D4
ENCODING 1236
SWIDTH 764 0
DWIDTH 11 0
BBX 13 11 0 -1
BITMAP
01F8
0380
0580
0980
7FE0
D300
3300
3300
6300
67E0
6000
ENDCHAR
STARTCHAR uni04D5
ENCODING 1237
SWIDTH 650 0
DWIDTH 9 0
BBX 10 7 0 0
BITMAP
3B80
4C80
0D00
7E00
CC40
DC80
EF00
ENDCHAR
STARTCHAR uni04D6
ENCODING 1238
SWIDTH 459 0
DWIDTH 6 0
BBX 8 13 0 0
BITMAP
19
1E
00
1C
32
36
30
18
70
E0
E0
E6
78
ENDCHAR
STARTCHAR uni04D7
ENCODING 1239
SWIDTH 384 0
DWIDTH 5 0
BBX 6 9 0 0
BITMAP
64
38
38
68
D8
F0
C4
C8
F0
ENDCHAR
STARTCHAR uni04D8
ENCODING 1240
SWIDTH 544 0
DWIDTH 8 0
BBX 8 10 0 0
BITMAP
3C
7E
46
07
1E
26
66
CC
CC
70
ENDCHAR
STARTCHAR uni04D9
ENCODING 1241
SWIDTH 404 0
DWIDTH 6 0
BBX 5 7 0 0
BITMAP
78
98
18
38
D8
B0
E0
ENDCHAR
STARTCHAR uni04DC
ENCODING 1244
SWIDTH 777 0
DWIDTH 11 0
BBX 13 13 -1 0
BITMAP
0240
03C0
0000
39B8
3B70
0740
0780
1FC0
3660
3660
2640
66C0
EEE0
ENDCHAR
STARTCHAR uni04DD
ENCODING 1245
SWIDTH 882 0
DWIDTH 12 0
BBX 14 10 -1 0
BITMAP
0240
03C0
0000
39B8
4B68
0B60
0FC0
1B40
DA44
7678
ENDCHAR
STARTCHAR uni04DE
ENCODING 1246
SWIDTH 525 0
DWIDTH 7 0
BBX 7 13 0 0
BITMAP
1A
1A
00
3C
46
06
0C
38
0C
0E
CE
8C
F8
ENDCHAR
STARTCHAR uni04DF
ENCODING 1247
SWIDTH 498 0
DWIDTH 7 0
BBX 8 13 0 -3
BITMAP
34
34
00
38
4C
8C
98
31
1A
1C
78
58
70
ENDCHAR
STARTCHAR uni04E2
ENCODING 1250
SWIDTH 705 0
DWIDTH 10 0
BBX 10 12 0 0
BITMAP
07C0
0000
3CC0
59C0
D9C0
9B80
5B80
3580
3D80
3980
3300
7300
ENDCHAR
STARTCHAR uni04E3
ENCODING 1251
SWIDTH 505 0
DWIDTH 7 0
BBX 8 9 0 0
BITMAP
3C
00
6C
6C
CC
CC
D9
DA
EC
ENDCHAR
STARTCHAR uni04E4
ENCODING 1252
SWIDTH 705 0
DWIDTH 10 0
BBX 10 13 0 0
BITMAP
0680
0680
0000
3CC0
59C0
D9C0
9B80
5B80
3580
3D80
3980
3300
7300
ENDCHAR
STARTCHAR uni04E5
ENCODING 1253
SWIDTH 505 0
DWIDTH 7 0
BBX 8 10 0 0
BITMAP
34
34
00
6C
6C
CC
CC
D9
DA
EC
ENDCHAR
STARTCHAR uni04E6
ENCODING 1254
SWIDTH 665 0
DWIDTH 9 0
BBX 9 13 0 0
BITMAP
0480
0780
0000
1F00
6D80
5980
D980
7180
3180
3180
3300
3600
3C00
ENDCHAR
STARTCHAR uni04E7
ENCODING 1255
SWIDTH 439 0
DWIDTH 6 0
BBX 8 10 0 0
BITMAP
34
34
00
38
69
CE
C8
C8
D8
F0
ENDCHAR
STARTCHAR uni04E8
ENCODING 1256
SWIDTH 665 0
DWIDTH 9 0
BBX 9 10 0 0
BITMAP
1F00
6D80
D980
F180
3F80
3180
3380
3300
3600
3C00
ENDCHAR
STARTCHAR uni04E9
ENCODING 1257
SWIDTH 439 0
DWIDTH 6 0
BBX 8 7 0 0
BITMAP
38
69
CE
F8
C8
D8
F0
ENDCHAR
STARTCHAR uni04EE
ENCODING 1262
SWIDTH 644 0
DWIDTH 9 0
BBX 10 12 0 0
BITMAP
07C0
0000
1C40
6C80
CC80
8D00
4700
0700
0600
0600
1C00
1800
ENDCHAR
STARTCHAR uni04EF
ENCODING 1263
SWIDTH 486 0
DWIDTH 7 0
BBX 7 12 0 -3
BITMAP
3C
00
6C
6C
CC
CC
DA
DA
FC
78
70
70
ENDCHAR
STARTCHAR uni04F0
ENCODING 1264
SWIDTH 644 0
DWIDTH 9 0
BBX 10 13 0 0
BITMAP
0280
06C0
0000
1C40
6C80
CC80
8D00
4700
0700
0600
0600
1C00
1800
ENDCHAR
STARTCHAR uni04F1
ENCODING 1265
SWIDTH 486 0
DWIDTH 7 0
BBX 7 13 0 -3
BITMAP
34
34
00
6C
6C
CC
CC
DA
DA
FC
78
70
70
ENDCHAR
STARTCHAR uni04F2
ENCODING 1266
SWIDTH 644 0
DWIDTH 9 0
BBX 10 14 0 0
BITMAP
0140
0280
0680
0000
1C40
6C80
CC80
8D00
4700
0700
0600
0600
1C00
1800
ENDCHAR
STARTCHAR uni04F3
ENCODING 1267
SWIDTH 486 0
DWIDTH 7 0
BBX 7 14 0 -3
BITMAP
1E
14
2C
00
6C
6C
CC
CC
DA
DA
FC
78
70
70
ENDCHAR
STARTCHAR uni04F4
ENCODING 1268
SWIDTH 695 0
DWIDTH 10 0
BBX 10 13 0 0
BITMAP
0680
0680
0000
1CC0
78C0
D8C0
9980
5980
1F80
0180
0300
0300
0300
ENDCHAR
STARTCHAR uni04F5
ENCODING 1269
SWIDTH 505 0
DWIDTH 7 0
BBX 8 10 0 0
BITMAP
24
3C
00
6C
6C
CC
DC
79
1A
0C
ENDCHAR
STARTCHAR uni04F6
ENCODING 1270
SWIDTH 442 0
DWIDTH 6 0
BBX 9 12 0 -2
BITMAP
3F80
5800
D800
D800
1800
3000
3000
3000
3000
7000
1C00
1800
ENDCHAR
STARTCHAR uni04F7
ENCODING 1271
SWIDTH 375 0
DWIDTH 5 0
BBX 6 10 0 -3
BITMAP
70
98
38
70
C4
C8
F0
40
60
60
ENDCHAR
STARTCHAR uni04F8
ENCODING 1272
SWIDTH 909 0
DWIDTH 13 0
BBX 13 13 0 0
BITMAP
0160
0160
0000
1C18
7818
D818
9830
5F30
3330
3130
3360
3360
7E60
ENDCHAR
STARTCHAR uni04F9
ENCODING 1273
SWIDTH 642 0
DWIDTH 9 0
BBX 10 10 0 0
BITMAP
1200
1E00
0000
6100
6700
DB00
CB00
CA40
DE80
F300
ENDCHAR
STARTCHAR uni051A
ENCODING 1306
SWIDTH 665 0
DWIDTH 9 0
BBX 9 11 0 -1
BITMAP
1F00
2580
5980
D980
F180
3180
3180
3300
3A00
3E00
0380
ENDCHAR
STARTCHAR uni051B
ENCODING 1307
SWIDTH 486 0
DWIDTH 7 0
BBX 7 10 0 -3
BITMAP
3E
6C
CC
CC
CC
CC
F8
18
18
38
ENDCHAR
STARTCHAR uni051C
ENCODING 1308
SWIDTH 962 0
DWIDTH 13 0
BBX 14 10 0 0
BITMAP
1CC4
7CC4
CCC4
8DC8
CDC8
0DD0
0EF0
0EF0
0C60
0C60
ENDCHAR
STARTCHAR uni051D
ENCODING 1309
SWIDTH 661 0
DWIDTH 9 0
BBX 9 7 0 0
BITMAP
6D80
6C80
CC80
CC80
D900
DB00
EE00
ENDCHAR
STARTCHAR uni0524
ENCODING 1316
SWIDTH 742 0
DWIDTH 10 0
BBX 11 12 0 -2
BITMAP
3FE0
5980
D980
9980
5980
3300
3300
3300
3300
7700
01C0
0180
ENDCHAR
STARTCHAR uni0525
ENCODING 1317
SWIDTH 505 0
DWIDTH 7 0
BBX 9 10 -1 -3
BITMAP
3E00
3600
6600
6600
6480
6F00
E600
0400
0600
0600
ENDCHAR
STARTCHAR uni1E0C
ENCODING 7692
SWIDTH 663 0
DWIDTH 9 0
BBX 9 13 0 -3
BITMAP
1E00
6500
D980
9980
D980
3180
3180
3300
3300
7E00
0000
1800
1800
ENDCHAR
STARTCHAR uni1E0D
ENCODING 7693
SWIDTH 525 0
DWIDTH 7 0
BBX 8 13 0 -3
BITMAP
02
06
06
3E
6C
CC
CC
CC
DD
EE
00
60
60
ENDCHAR
STARTCHAR uni1E20
ENCODING 7712
SWIDTH 578 0
DWIDTH 8 0
BBX 8 16 0 -3
BITMAP
1F
00
00
1E
31
63
E0
C3
C2
66
7E
06
34
4C
4C
38
ENDCHAR
STARTCHAR uni1E21
ENCODING 7713
SWIDTH 507 0
DWIDTH 7 0
BBX 8 13 0 -3
BITMAP
3E
00
00
3E
6C
CC
CC
CC
CD
FE
38
58
70
ENDCHAR
STARTCHAR uni1E24
ENCODING 7716
SWIDTH 665 0
DWIDTH 9 0
BBX 10 13 0 -3
BITMAP
3CC0
5980
D980
9980
5F80
3300
3300
3300
3300
7700
0000
1800
1800
ENDCHAR
STARTCHAR uni1E25
ENCODING 7717
SWIDTH 505 0
DWIDTH 7 0
BBX 9 13 -1 -3
BITMAP
1800
3000
3000
3E00
3600
6600
6600
6400
6C80
E700
0000
3000
3000
ENDCHAR
STARTCHAR uni1E2A
ENCODING 7722
SWIDTH 665 0
DWIDTH 9 0
BBX 10 13 0 -3
BITMAP
3CC0
5980
D980
9980
5F80
3300
3300
3300
3300
7700
0000
2600
3800
ENDCHAR
STARTCHAR uni1E2B
ENCODING 7723
SWIDTH 505 0
DWIDTH 7 0
BBX 9 13 -1 -3
BITMAP
1800
3000
3000
3E00
3600
6600
6600
6400
6C80
E700
0000
4C00
3800
ENDCHAR
STARTCHAR uni1E36
ENCODING 7734
SWIDTH 379 0
DWIDTH 5 0
BBX 9 13 0 -3
BITMAP
1C00
7800
D800
9800
5800
3000
3000
3000
3000
7000
1C00
6780
6380
ENDCHAR
STARTCHAR uni1E37
ENCODING 7735
SWIDTH 293 0
DWIDTH 4 0
BBX 5 13 0 -3
BITMAP
10
30
60
60
60
60
60
C8
F0
60
00
C0
C0
ENDCHAR
STARTCHAR uni1E42
ENCODING 7746
SWIDTH 787 0
DWIDTH 11 0
BBX 10 13 1 -3
BITMAP
38C0
58C0
99C0
B9C0
BAC0
3B80
5F80
5D80
5D80
9980
0000
1800
1800
ENDCHAR
STARTCHAR uni1E43
ENCODING 7747
SWIDTH 752 0
DWIDTH 11 0
BBX 12 10 -1 -3
BITMAP
3FC0
36C0
66C0
66C0
6CC0
6CD0
ECE0
0000
0C00
0C00
ENDCHAR
STARTCHAR uni1E44
ENCODING 7748
SWIDTH 668 0
DWIDTH 9 0
BBX 10 13 0 0
BITMAP
0380
0100
0000
3C40
5CC0
DC80
9C80
DC80
3680
2780
2700
2700
6300
ENDCHAR
STARTCHAR uni1E45
ENCODING 7749
SWIDTH 505 0
DWIDTH 7 0
BBX 9 10 -1 0
BITMAP
0C00
0C00
0000
3E00
3600
6600
6600
6400
6C80
E700
ENDCHAR
STARTCHAR uni1E46
ENCODING 7750
SWIDTH 668 0
DWIDTH 9 0
BBX 10 13 0 -3
BITMAP
3C40
5CC0
DC80
9C80
DC80
3680
2780
2700
2700
6300
0000
1800
1800
ENDCHAR
STARTCHAR uni1E47
ENCODING 7751
SWIDTH 505 0
DWIDTH 7 0
BBX 9 10 -1 -3
BITMAP
3E00
3600
6600
6600
6400
6C80
E700
0000
3000
3000
ENDCHAR
STARTCHAR uni1E5A
ENCODING 7770
SWIDTH 601 0
DWIDTH 8 0
BBX 8 13 0 -3
BITMAP
1E
65
D9
9B
5E
33
33
36
36
66
00
18
18
ENDCHAR
STARTCHAR uni1E5B
ENCODING 7771
SWIDTH 376 0
DWIDTH 5 0
BBX 6 10 -1 -3
BITMAP
3C
34
60
60
60
60
E0
00
E0
C0
ENDCHAR
STARTCHAR uni1E60
ENCODING 7776
SWIDTH 570 0
DWIDTH 8 0
BBX 8 14 0 0
BITMAP
06
06
00
00
1E
33
33
38
1C
0E
76
C6
46
7C
ENDCHAR
STARTCHAR uni1E61
ENCODING 7777
SWIDTH 382 0
DWIDTH 5 0
BBX 6 10 0 0
BITMAP
10
38
00
30
30
70
70
B4
B8
E0
ENDCHAR
STARTCHAR uni1E62
ENCODING 7778
SWIDTH 570 0
DWIDTH 8 0
BBX 8 13 0 -3
BITMAP
1E
33
33
38
1C
0E
76
C6
46
7C
00
30
30
ENDCHAR
STARTCHAR uni1E63
ENCODING 7779
SWIDTH 382 0
DWIDTH 5 0
BBX 6 10 0 -3
BITMAP
30
70
70
B0
B4
B8
E0
00
C0
C0
ENDCHAR
STARTCHAR uni1E6C
ENCODING 7788
SWIDTH 481 0
DWIDTH 7 0
BBX 10 13 0 -3
BITMAP
3FC0
4C00
8C00
8C00
5800
1800
1800
1800
1800
3000
0000
3000
3000
ENDCHAR
STARTCHAR uni1E6D
ENCODING 7789
SWIDTH 267 0
DWIDTH 4 0
BBX 5 12 -1 -3
BITMAP
30
30
78
30
60
60
60
68
70
00
E0
C0
ENDCHAR
STARTCHAR Wgrave
ENCODING 7808
SWIDTH 962 0
DWIDTH 13 0
BBX 14 14 0 0
BITMAP
00C0
0040
0040
0000
1CC4
7CC4
CCC4
8DC8
CDC8
0DD0
0EF0
0EF0
0C60
0C60
ENDCHAR
STARTCHAR wgrave
ENCODING 7809
SWIDTH 661 0
DWIDTH 9 0
BBX 9 10 0 0
BITMAP
0800
0800
0800
6D80
6C80
CC80
CC80
D900
DB00
EE00
ENDCHAR
STARTCHAR Wacute
ENCODING 7810
SWIDTH 962 0
DWIDTH 13 0
BBX 14 14 0 0
BITMAP
0030
0020
0040
0000
1CC4
7CC4
CCC4
8DC8
CDC8
0DD0
0EF0
0EF0
0C60
0C60
ENDCHAR
STARTCHAR wacute
ENCODING 7811
SWIDTH 661 0
DWIDTH 9 0
BBX 9 10 0 0
BITMAP
0200
0400
0000
6D80
6C80
CC80
CC80
D900
DB00
EE00
ENDCHAR
STARTCHAR Wdieresis
ENCODING 7812
SWIDTH 962 0
DWIDTH 13 0
BBX 14 13 0 0
BITMAP
01B0
00A0
0000
1CC4
7CC4
CCC4
8DC8
CDC8
0DD0
0EF0
0EF0
0C60
0C60
ENDCHAR
STARTCHAR wdieresis
ENCODING 7813
SWIDTH 661 0
DWIDTH 9 0
BBX 9 10 0 0
BITMAP
1A00
1A00
0000
6D80
6C80
CC80
CC80
D900
DB00
EE00
ENDCHAR
STARTCHAR uni1E8E
ENCODING 7822
SWIDTH 620 0
DWIDTH 9 0
BBX 10 13 0 0
BITMAP
0300
0300
0000
1C40
6C80
CC80
8D00
CF00
0600
0600
0E00
0C00
0C00
ENDCHAR
STARTCHAR uni1E8F
ENCODING 7823
SWIDTH 505 0
DWIDTH 7 0
BBX 7 13 0 -3
BITMAP
18
18
00
6C
6C
CC
CC
DA
DA
FC
78
70
70
ENDCHAR
STARTCHAR uni1E92
ENCODING 7826
SWIDTH 542 0
DWIDTH 8 0
BBX 8 17 0 -3
BITMAP
03
02
04
00
3F
66
0C
0C
18
18
30
70
66
FC
00
30
30
ENDCHAR
STARTCHAR uni1E93
ENCODING 7827
SWIDTH 428 0
DWIDTH 6 0
BBX 6 10 0 -3
BITMAP
7C
58
18
30
60
68
F8
00
60
60
ENDCHAR
STARTCHAR uni1E97
ENCODING 7831
SWIDTH 267 0
DWIDTH 4 0
BBX 5 11 0 0
BITMAP
58
58
60
60
F0
60
C0
C0
C0
D0
E0
ENDCHAR
STARTCHAR uni1E9E
ENCODING 7838
SWIDTH 559 0
DWIDTH 8 0
BBX 9 13 -1 -3
BITMAP
0F80
1980
1B00
3700
3600
3200
3300
6300
6300
7E00
6000
4000
C000
ENDCHAR
STARTCHAR uni1EA0
ENCODING 7840
SWIDTH 668 0
DWIDTH 9 0
BBX 10 13 0 -3
BITMAP
03C0
0580
0980
7D80
D380
F300
3300
2300
6300
6700
6000
0C00
0C00
ENDCHAR
STARTCHAR uni1EA1
ENCODING 7841
SWIDTH 526 0
DWIDTH 7 0
BBX 8 10 0 -3
BITMAP
3E
6C
CC
CC
CD
DD
EE
00
60
60
ENDCHAR
STARTCHAR uni1EA2
ENCODING 7842
SWIDTH 668 0
DWIDTH 9 0
BBX 10 15 0 -1
BITMAP
00C0
0040
0080
0000
01C0
0380
0580
0980
7D80
D300
3300
3300
6300
6700
6000
ENDCHAR
STARTCHAR uni1EA3
ENCODING 7843
SWIDTH 526 0
DWIDTH 7 0
BBX 8 10 0 0
BITMAP
0C
08
00
3E
6C
CC
CC
CD
DD
EE
ENDCHAR
STARTCHAR uni1EA4
ENCODING 7844
SWIDTH 668 0
DWIDTH 9 0
BBX 12 15 0 -1
BITMAP
0010
0060
01C0
0000
01C0
0380
0580
0980
7D80
D300
3300
3300
6300
6700
6000
ENDCHAR
STARTCHAR uni1EA5
ENCODING 7845
SWIDTH 526 0
DWIDTH 7 0
BBX 9 12 0 0
BITMAP
0180
0300
0C00
1400
2000
3E00
6C00
CC00
CC00
CD00
DD00
EE00
ENDCHAR
STARTCHAR uni1EA6
ENCODING 7846
SWIDTH 668 0
DWIDTH 9 0
BBX 11 15 0 -1
BITMAP
0020
00E0
0140
0000
01C0
0380
0580
0980
7D80
D300
3300
3300
6300
6700
6000
ENDCHAR
STARTCHAR uni1EA7
ENCODING 7847
SWIDTH 526 0
DWIDTH 7 0
BBX 8 12 0 0
BITMAP
02
02
0C
34
00
3E
6C
CC
CC
CD
DD
EE
ENDCHAR
STARTCHAR uni1EA8
ENCODING 7848
SWIDTH 668 0
DWIDTH 9 0
BBX 12 15 0 -1
BITMAP
0030
0070
01C0
0000
01C0
0380
0580
0980
7D80
D300
3300
3300
6300
6700
6000
ENDCHAR
STARTCHAR uni1EA9
ENCODING 7849
SWIDTH 526 0
DWIDTH 7 0
BBX 8 12 0 0
BITMAP
03
01
06
1C
20
3E
6C
CC
CC
CD
DD
EE
ENDCHAR
STARTCHAR uni1EAA
ENCODING 7850
SWIDTH 668 0
DWIDTH 9 0
BBX 11 15 0 -1
BITMAP
00E0
0140
01C0
0000
01C0
0380
0580
0980
7D80
D300
3300
3300
6300
6700
6000
ENDCHAR
STARTCHAR uni1EAB
ENCODING 7851
SWIDTH 526 0
DWIDTH 7 0
BBX 8 12 0 0
BITMAP
1E
00
0C
14
20
3E
6C
CC
CC
CD
DD
EE
ENDCHAR
STARTCHAR uni1EAC
ENCODING 7852
SWIDTH 668 0
DWIDTH 9 0
BBX 11 17 0 -3
BITMAP
0040
00C0
0320
0000
03C0
0580
0980
7D80
D380
F300
3300
2300
6300
6700
6000
0C00
0C00
ENDCHAR
STARTCHAR uni1EAD
ENCODING 7853
SWIDTH 526 0
DWIDTH 7 0
BBX 8 13 0 -3
BITMAP
04
1C
20
3E
6C
CC
CC
CD
DD
EE
00
60
60
ENDCHAR
STARTCHAR uni1EAE
ENCODING 7854
SWIDTH 668 0
DWIDTH 9 0
BBX 11 15 0 -1
BITMAP
0060
0160
00C0
0000
01C0
0380
0580
0980
7D80
D300
3300
3300
6300
6700
6000
ENDCHAR
STARTCHAR uni1EAF
ENCODING 7855
SWIDTH 526 0
DWIDTH 7 0
BBX 8 12 0 0
BITMAP
04
0C
32
1C
00
3E
6C
CC
CC
CD
DD
EE
ENDCHAR
STARTCHAR uni1EB0
ENCODING 7856
SWIDTH 668 0
DWIDTH 9 0
BBX 11 15 0 -1
BITMAP
0080
01A0
00C0
0000
01C0
0380
0580
0980
7D80
D300
3300
3300
6300
6700
6000
ENDCHAR
STARTCHAR uni1EB1
ENCODING 7857
SWIDTH 526 0
DWIDTH 7 0
BBX 8 12 0 0
BITMAP
08
08
32
1C
00
3E
6C
CC
CC
CD
DD
EE
ENDCHAR
STARTCHAR uni1EB2
ENCODING 7858
SWIDTH 668 0
DWIDTH 9 0
BBX 11 15 0 -1
BITMAP
00C0
0060
01C0
0000
01C0
0380
0580
0980
7D80
D300
3300
3300
6300
6700
6000
ENDCHAR
STARTCHAR uni1EB3
ENCODING 7859
SWIDTH 526 0
DWIDTH 7 0
BBX 8 12 0 0
BITMAP
0C
04
3E
1C
00
3E
6C
CC
CC
CD
DD
EE
ENDCHAR
STARTCHAR uni1EB4
ENCODING 7860
SWIDTH 668 0
DWIDTH 9 0
BBX 11 15 0 -1
BITMAP
00E0
0120
00C0
0000
01C0
0380
0580
0980
7D80
D300
3300
3300
6300
6700
6000
ENDCHAR
STARTCHAR uni1EB5
ENCODING 7861
SWIDTH 526 0
DWIDTH 7 0
BBX 8 12 0 0
BITMAP
1E
00
32
1C
00
3E
6C
CC
CC
CD
DD
EE
ENDCHAR
STARTCHAR uni1EB6
ENCODING 7862
SWIDTH 668 0
DWIDTH 9 0
BBX 12 16 0 -3
BITMAP
0330
01C0
0000
03C0
0580
0980
7D80
D380
F300
3300
2300
6300
6700
6000
0C00
0C00
ENDCHAR
STARTCHAR uni1EB7
ENCODING 7863
SWIDTH 526 0
DWIDTH 7 0
BBX 8 13 0 -3
BITMAP
22
1C
00
3E
6C
CC
CC
CD
DD
EE
00
60
60
ENDCHAR
STARTCHAR uni1EB8
ENCODING 7864
SWIDTH 459 0
DWIDTH 6 0
BBX 7 13 0 -3
BITMAP
1C
32
36
30
18
70
E0
E0
E6
78
00
60
60
ENDCHAR
STARTCHAR uni1EB9
ENCODING 7865
SWIDTH 384 0
DWIDTH 5 0
BBX 6 10 0 -3
BITMAP
38
68
D8
F0
C4
C8
F0
00
E0
40
ENDCHAR
STARTCHAR uni1EBA
ENCODING 7866
SWIDTH 459 0
DWIDTH 6 0
BBX 7 14 0 0
BITMAP
0E
02
04
00
1C
32
36
30
18
70
E0
E0
E6
78
ENDCHAR
STARTCHAR uni1EBB
ENCODING 7867
SWIDTH 384 0
DWIDTH 5 0
BBX 6 10 0 0
BITMAP
38
10
00
38
68
D8
F0
C4
C8
F0
ENDCHAR
STARTCHAR uni1EBC
ENCODING 7868
SWIDTH 459 0
DWIDTH 6 0
BBX 8 13 0 0
BITMAP
1F
02
00
1C
32
36
30
18
70
E0
E0
E6
78
ENDCHAR
STARTCHAR uni1EBD
ENCODING 7869
SWIDTH 384 0
DWIDTH 5 0
BBX 6 10 0 0
BITMAP
7C
B8
00
38
68
D8
F0
C4
C8
F0
ENDCHAR
STARTCHAR uni1EBE
ENCODING 7870
SWIDTH 459 0
DWIDTH 6 0
BBX 9 14 0 0
BITMAP
0580
0D00
1200
0000
1C00
3200
3600
3000
1800
7000
E000
E000
E600
7800
ENDCHAR
STARTCHAR uni1EBF
ENCODING 7871
SWIDTH 384 0
DWIDTH 5 0
BBX 8 12 0 0
BITMAP
03
02
0C
38
00
38
68
D8
F0
C4
C8
F0
ENDCHAR
STARTCHAR uni1EC0
ENCODING 7872
SWIDTH 459 0
DWIDTH 6 0
BBX 8 14 0 0
BITMAP
01
05
1A
00
1C
32
36
30
18
70
E0
E0
E6
78
ENDCHAR
STARTCHAR uni1EC1
ENCODING 7873
SWIDTH 384 0
DWIDTH 5 0
BBX 7 12 0 0
BITMAP
04
02
18
24
00
38
68
D8
F0
C4
C8
F0
ENDCHAR
STARTCHAR uni1EC2
ENCODING 7874
SWIDTH 459 0
DWIDTH 6 0
BBX 9 14 0 0
BITMAP
0180
0580
0A00
1000
1C00
3200
3600
3000
1800
7000
E000
E000
E600
7800
ENDCHAR
STARTCHAR uni1EC3
ENCODING 7875
SWIDTH 384 0
DWIDTH 5 0
BBX 7 12 0 0
BITMAP
06
02
0C
38
00
38
68
D8
F0
C4
C8
F0
ENDCHAR
STARTCHAR uni1EC4
ENCODING 7876
SWIDTH 459 0
DWIDTH 6 0
BBX 8 14 0 0
BITMAP
0F
0C
12
00
1C
32
36
30
18
70
E0
E0
E6
78
ENDCHAR
STARTCHAR uni1EC5
ENCODING 7877
SWIDTH 384 0
DWIDTH 5 0
BBX 7 12 0 0
BITMAP
1E
00
08
38
00
38
68
D8
F0
C4
C8
F0
ENDCHAR
STARTCHAR uni1EC6
ENCODING 7878
SWIDTH 459 0
DWIDTH 6 0
BBX 7 17 0 -3
BITMAP
04
0E
12
00
1C
32
36
30
18
70
E0
E0
E6
78
00
60
60
ENDCHAR
STARTCHAR uni1EC7
ENCODING 7879
SWIDTH 384 0
DWIDTH 5 0
BBX 6 13 0 -3
BITMAP
08
38
44
38
68
D8
F0
C4
C8
F0
00
E0
40
ENDCHAR
STARTCHAR uni1EC8
ENCODING 7880
SWIDTH 375 0
DWIDTH 5 0
BBX 6 14 0 0
BITMAP
0C
04
08
00
3C
58
D8
98
D8
30
30
30
30
60
ENDCHAR
STARTCHAR uni1EC9
ENCODING 7881
SWIDTH 267 0
DWIDTH 4 0
BBX 4 10 0 0
BITMAP
70
20
00
60
60
C0
C0
D0
D0
E0
ENDCHAR
STARTCHAR uni1ECA
ENCODING 7882
SWIDTH 375 0
DWIDTH 5 0
BBX 6 13 0 -3
BITMAP
3C
58
D8
98
D8
30
30
30
30
60
00
60
60
ENDCHAR
STARTCHAR uni1ECB
ENCODING 7883
SWIDTH 267 0
DWIDTH 4 0
BBX 5 13 -1 -3
BITMAP
30
30
00
30
30
60
60
68
68
70
00
E0
C0
ENDCHAR
STARTCHAR uni1ECC
ENCODING 7884
SWIDTH 665 0
DWIDTH 9 0
BBX 9 13 0 -3
BITMAP
1F00
6D80
5980
D980
7180
3180
3180
3300
3600
3C00
0000
1800
1800
ENDCHAR
STARTCHAR uni1ECD
ENCODING 7885
SWIDTH 433 0
DWIDTH 6 0
BBX 8 10 0 -3
BITMAP
38
69
CE
C8
C8
D0
F0
00
E0
40
ENDCHAR
STARTCHAR uni1ECE
ENCODING 7886
SWIDTH 665 0
DWIDTH 9 0
BBX 9 14 0 0
BITMAP
0700
0100
0200
0000
1F00
6D80
5980
D980
7180
3180
3180
3300
3600
3C00
ENDCHAR
STARTCHAR uni1ECF
ENCODING 7887
SWIDTH 433 0
DWIDTH 6 0
BBX 8 10 0 0
BITMAP
1C
18
00
38
69
CE
C8
C8
D0
F0
ENDCHAR
STARTCHAR uni1ED0
ENCODING 7888
SWIDTH 665 0
DWIDTH 9 0
BBX 10 14 0 0
BITMAP
00C0
0280
0500
0000
1F00
6D80
5980
D980
7180
3180
3180
3300
3600
3C00
ENDCHAR
STARTCHAR uni1ED1
ENCODING 7889
SWIDTH 433 0
DWIDTH 6 0
BBX 8 12 0 0
BITMAP
03
02
0C
38
00
38
69
CE
C8
C8
D0
F0
ENDCHAR
STARTCHAR uni1ED2
ENCODING 7890
SWIDTH 665 0
DWIDTH 9 0
BBX 9 14 0 0
BITMAP
0080
0380
0500
0000
1F00
6D80
5980
D980
7180
3180
3180
3300
3600
3C00
ENDCHAR
STARTCHAR uni1ED3
ENCODING 7891
SWIDTH 433 0
DWIDTH 6 0
BBX 8 12 0 0
BITMAP
04
02
18
24
00
38
69
CE
C8
C8
D0
F0
ENDCHAR
STARTCHAR uni1ED4
ENCODING 7892
SWIDTH 665 0
DWIDTH 9 0
BBX 10 14 0 0
BITMAP
00C0
02C0
0500
0000
1F00
6D80
5980
D980
7180
3180
3180
3300
3600
3C00
ENDCHAR
STARTCHAR uni1ED5
ENCODING 7893
SWIDTH 433 0
DWIDTH 6 0
BBX 8 12 0 0
BITMAP
06
02
0A
38
00
38
69
CE
C8
C8
D0
F0
ENDCHAR
STARTCHAR uni1ED6
ENCODING 7894
SWIDTH 665 0
DWIDTH 9 0
BBX 9 14 0 0
BITMAP
0780
0300
0500
0000
1F00
6D80
5980
D980
7180
3180
3180
3300
3600
3C00
ENDCHAR
STARTCHAR uni1ED7
ENCODING 7895
SWIDTH 433 0
DWIDTH 6 0
BBX 8 12 0 0
BITMAP
1E
00
08
38
00
38
69
CE
C8
C8
D0
F0
ENDCHAR
STARTCHAR uni1ED8
ENCODING 7896
SWIDTH 665 0
DWIDTH 9 0
BBX 9 17 0 -3
BITMAP
0200
0700
0900
0000
1F00
6D80
5980
D980
7180
3180
3180
3300
3600
3C00
0000
1800
1800
ENDCHAR
STARTCHAR uni1ED9
ENCODING 7897
SWIDTH 433 0
DWIDTH 6 0
BBX 8 13 0 -3
BITMAP
08
38
40
38
69
CE
C8
C8
D0
F0
00
E0
40
ENDCHAR
STARTCHAR uni1EDA
ENCODING 7898
SWIDTH 665 0
DWIDTH 9 0
BBX 10 14 0 0
BITMAP
0100
0200
0240
0040
1F40
6D80
5980
D980
7180
3180
3180
3300
3600
3C00
ENDCHAR
STARTCHAR uni1EDB
ENCODING 7899
SWIDTH 439 0
DWIDTH 6 0
BBX 7 10 0 0
BITMAP
0C
1A
02
3C
68
C8
C8
C8
D8
F0
ENDCHAR
STARTCHAR uni1EDC
ENCODING 7900
SWIDTH 665 0
DWIDTH 9 0
BBX 10 14 0 0
BITMAP
0C00
0400
0440
0040
1F40
6D80
5980
D980
7180
3180
3180
3300
3600
3C00
ENDCHAR
STARTCHAR uni1EDD
ENCODING 7901
SWIDTH 439 0
DWIDTH 6 0
BBX 7 10 0 0
BITMAP
30
10
12
3C
68
C8
C8
C8
D8
F0
ENDCHAR
STARTCHAR uni1EDE
ENCODING 7902
SWIDTH 665 0
DWIDTH 9 0
BBX 10 14 0 0
BITMAP
0700
0100
0240
0040
1F40
6D80
5980
D980
7180
3180
3180
3300
3600
3C00
ENDCHAR
STARTCHAR uni1EDF
ENCODING 7903
SWIDTH 439 0
DWIDTH 6 0
BBX 7 10 0 0
BITMAP
1C
1A
02
3C
68
C8
C8
C8
D8
F0
ENDCHAR
STARTCHAR uni1EE0
ENCODING 7904
SWIDTH 665 0
DWIDTH 9 0
BBX 10 13 0 0
BITMAP
0F00
1240
0040
1FC0
6D80
5980
D980
7180
3180
3180
3300
3600
3C00
ENDCHAR
STARTCHAR uni1EE1
ENCODING 7905
SWIDTH 439 0
DWIDTH 6 0
BBX 7 10 0 0
BITMAP
34
7A
02
3C
68
C8
C8
C8
D8
F0
ENDCHAR
STARTCHAR uni1EE2
ENCODING 7906
SWIDTH 665 0
DWIDTH 9 0
BBX 10 16 0 -3
BITMAP
0040
0040
0040
1F80
6D80
5980
D980
7180
3180
3180
3300
3600
3C00
0000
1800
1800
ENDCHAR
STARTCHAR uni1EE3
ENCODING 7907
SWIDTH 439 0
DWIDTH 6 0
BBX 7 12 0 -3
BITMAP
02
02
3C
68
C8
C8
C8
D8
F0
00
E0
40
ENDCHAR
STARTCHAR uni1EE4
ENCODING 7908
SWIDTH 716 0
DWIDTH 10 0
BBX 11 13 0 -3
BITMAP
3CE0
48C0
98C0
98C0
98C0
3180
3180
3180
3300
1E00
0000
1800
1800
ENDCHAR
STARTCHAR uni1EE5
ENCODING 7909
SWIDTH 505 0
DWIDTH 7 0
BBX 8 10 0 -3
BITMAP
6C
6C
CC
CC
D9
DA
EC
00
60
60
ENDCHAR
STARTCHAR uni1EE6
ENCODING 7910
SWIDTH 716 0
DWIDTH 10 0
BBX 11 14 0 0
BITMAP
0380
0080
0100
0000
3CE0
48C0
98C0
98C0
98C0
3180
3180
3180
3300
1E00
ENDCHAR
STARTCHAR uni1EE7
ENCODING 7911
SWIDTH 505 0
DWIDTH 7 0
BBX 8 10 0 0
BITMAP
18
10
00
6C
6C
CC
CC
D9
DA
EC
ENDCHAR
STARTCHAR uni1EE8
ENCODING 7912
SWIDTH 716 0
DWIDTH 10 0
BBX 12 14 0 0
BITMAP
00C0
0190
0110
0030
3CC0
48C0
98C0
98C0
98C0
3180
3180
3180
3300
1E00
ENDCHAR
STARTCHAR uni1EE9
ENCODING 7913
SWIDTH 505 0
DWIDTH 7 0
BBX 8 10 0 0
BITMAP
0C
0B
12
6E
6C
CC
CC
D9
DA
EC
ENDCHAR
STARTCHAR uni1EEA
ENCODING 7914
SWIDTH 716 0
DWIDTH 10 0
BBX 12 14 0 0
BITMAP
0200
0210
0310
0030
3CC0
48C0
98C0
98C0
98C0
3180
3180
3180
3300
1E00
ENDCHAR
STARTCHAR uni1EEB
ENCODING 7915
SWIDTH 505 0
DWIDTH 7 0
BBX 8 10 0 0
BITMAP
10
13
13
6E
6C
CC
CC
D9
DA
EC
ENDCHAR
STARTCHAR uni1EEC
ENCODING 7916
SWIDTH 716 0
DWIDTH 10 0
BBX 12 14 0 0
BITMAP
0380
0090
0110
0010
3CE0
48C0
98C0
98C0
98C0
3180
3180
3180
3300
1E00
ENDCHAR
STARTCHAR uni1EED
ENCODING 7917
SWIDTH 505 0
DWIDTH 7 0
BBX 8 10 0 0
BITMAP
18
13
02
6E
6C
CC
CC
D9
DA
EC
ENDCHAR
STARTCHAR uni1EEE
ENCODING 7918
SWIDTH 716 0
DWIDTH 10 0
BBX 12 13 0 0
BITMAP
07D0
0090
0030
3CC0
48C0
98C0
98C0
98C0
3180
3180
3180
3300
1E00
ENDCHAR
STARTCHAR uni1EEF
ENCODING 7919
SWIDTH 505 0
DWIDTH 7 0
BBX 8 10 0 0
BITMAP
3F
5B
02
6C
6C
CC
CC
D9
DA
EC
ENDCHAR
STARTCHAR uni1EF0
ENCODING 7920
SWIDTH 716 0
DWIDTH 10 0
BBX 12 16 0 -3
BITMAP
0010
0010
0030
3CC0
48C0
98C0
98C0
98C0
3180
3180
3180
3300
1E00
0000
1800
1800
ENDCHAR
STARTCHAR uni1EF1
ENCODING 7921
SWIDTH 505 0
DWIDTH 7 0
BBX 8 13 0 -3
BITMAP
01
03
02
6C
6C
CC
CC
D9
DA
EC
00
60
60
ENDCHAR
STARTCHAR Ygrave
ENCODING 7922
SWIDTH 620 0
DWIDTH 9 0
BBX 10 14 0 0
BITMAP
0200
0300
0100
0000
1C40
6C80
CC80
8D00
CF00
0600
0600
0E00
0C00
0C00
ENDCHAR
STARTCHAR ygrave
ENCODING 7923
SWIDTH 505 0
DWIDTH 7 0
BBX 7 13 0 -3
BITMAP
10
10
10
6C
6C
CC
CC
DA
DA
FC
78
70
70
ENDCHAR
STARTCHAR uni1EF4
ENCODING 7924
SWIDTH 620 0
DWIDTH 9 0
BBX 10 13 0 -3
BITMAP
1C40
6C80
CC80
8D00
CF00
0600
0600
0E00
0C00
0C00
0000
1C00
0C00
ENDCHAR
STARTCHAR uni1EF5
ENCODING 7925
SWIDTH 505 0
DWIDTH 7 0
BBX 7 10 0 -3
BITMAP
6C
6C
CC
CC
DA
DA
FC
78
76
76
ENDCHAR
STARTCHAR uni1EF6
ENCODING 7926
SWIDTH 620 0
DWIDTH 9 0
BBX 10 14 0 0
BITMAP
0380
0080
0100
0000
1C40
6C80
CC80
8D00
CF00
0600
0600
0E00
0C00
0C00
ENDCHAR
STARTCHAR uni1EF7
ENCODING 7927
SWIDTH 505 0
DWIDTH 7 0
BBX 7 13 0 -3
BITMAP
18
10
00
6C
6C
CC
CC
DA
DA
FC
78
70
70
ENDCHAR
STARTCHAR uni1EF8
ENCODING 7928
SWIDTH 620 0
DWIDTH 9 0
BBX 10 13 0 0
BITMAP
07C0
0900
0000
1C40
6C80
CC80
8D00
CF00
0600
0600
0E00
0C00
0C00
ENDCHAR
STARTCHAR uni1EF9
ENCODING 7929
SWIDTH 505 0
DWIDTH 7 0
BBX 7 13 0 -3
BITMAP
3A
5C
00
6C
6C
CC
CC
DA
DA
FC
78
70
70
ENDCHAR
STARTCHAR uni2010
ENCODING 8208
SWIDTH 290 0
DWIDTH 4 0
BBX 3 1 0 3
BITMAP
E0
ENDCHAR
STARTCHAR endash
ENCODING 8211
SWIDTH 352 0
DWIDTH 5 0
BBX 4 1 0 3
BITMAP
F0
ENDCHAR
STARTCHAR emdash
ENCODING 8212
SWIDTH 444 0
DWIDTH 6 0
BBX 5 1 0 3
BITMAP
F8
ENDCHAR
STARTCHAR quoteleft
ENCODING 8216
SWIDTH 209 0
DWIDTH 3 0
BBX 2 3 1 7
BITMAP
40
C0
C0
ENDCHAR
STARTCHAR quoteright
ENCODING 8217
SWIDTH 238 0
DWIDTH 3 0
BBX 2 3 1 7
BITMAP
C0
C0
C0
ENDCHAR
STARTCHAR quotesinglbase
ENCODING 8218
SWIDTH 220 0
DWIDTH 3 0
BBX 2 3 0 -1
BITMAP
C0
C0
80
ENDCHAR
STARTCHAR quotedblleft
ENCODING 8220
SWIDTH 429 0
DWIDTH 6 0
BBX 5 3 1 7
BITMAP
48
D8
D8
ENDCHAR
STARTCHAR quotedblright
ENCODING 8221
SWIDTH 426 0
DWIDTH 6 0
BBX 4 3 2 7
BITMAP
B0
B0
B0
ENDCHAR
STARTCHAR quotedblbase
ENCODING 8222
SWIDTH 440 0
DWIDTH 6 0
BBX 5 3 0 -1
BITMAP
D8
D0
90
ENDCHAR
STARTCHAR dagger
ENCODING 8224
SWIDTH 495 0
DWIDTH 7 0
BBX 5 13 1 -3
BITMAP
10
10
10
F8
F8
20
20
40
40
40
40
40
80
ENDCHAR
STARTCHAR daggerdbl
ENCODING 8225
SWIDTH 495 0
DWIDTH 7 0
BBX 6 13 0 -3
BITMAP
08
08
08
7C
7C
10
7C
FC
20
20
20
20
40
ENDCHAR
STARTCHAR bullet
ENCODING 8226
SWIDTH 434 0
DWIDTH 6 0
BBX 2 3 2 2
BITMAP
C0
C0
C0
ENDCHAR
STARTCHAR ellipsis
ENCODING 8230
SWIDTH 702 0
DWIDTH 10 0
BBX 9 2 0 0
BITMAP
ED80
4D80
ENDCHAR
STARTCHAR perthousand
ENCODING 8240
SWIDTH 1175 0
DWIDTH 16 0
BBX 15 10 1 0
BITMAP
7100
D200
9200
9400
B5CE
EA5A
1252
1252
2296
639C
ENDCHAR
STARTCHAR minute
ENCODING 8242
SWIDTH 196 0
DWIDTH 3 0
BBX 2 3 1 7
BITMAP
40
40
80
ENDCHAR
STARTCHAR second
ENCODING 8243
SWIDTH 341 0
DWIDTH 5 0
BBX 4 3 1 7
BITMAP
50
50
A0
ENDCHAR
STARTCHAR guilsinglleft
ENCODING 8249
SWIDTH 359 0
DWIDTH 5 0
BBX 5 5 0 1
BITMAP
18
60
80
60
10
ENDCHAR
STARTCHAR guilsinglright
ENCODING 8250
SWIDTH 344 0
DWIDTH 5 0
BBX 5 5 0 1
BITMAP
40
30
18
60
80
ENDCHAR
STARTCHAR fraction
ENCODING 8260
SWIDTH 248 0
DWIDTH 3 0
BBX 6 10 -1 0
BITMAP
04
04
08
10
10
20
20
40
80
80
ENDCHAR
STARTCHAR uni2052
ENCODING 8274
SWIDTH 796 0
DWIDTH 11 0
BBX 7 10 2 0
BITMAP
C2
C4
04
08
08
10
20
20
46
C6
ENDCHAR
STARTCHAR uni2070
ENCODING 8304
SWIDTH 379 0
DWIDTH 5 0
BBX 4 6 1 4
BITMAP
70
D0
90
90
B0
E0
ENDCHAR
STARTCHAR uni2074
ENCODING 8308
SWIDTH 352 0
DWIDTH 5 0
BBX 4 5 1 5
BITMAP
70
60
A0
F0
60
ENDCHAR
STARTCHAR uni2075
ENCODING 8309
SWIDTH 335 0
DWIDTH 5 0
BBX 4 6 1 4
BITMAP
70
80
E0
A0
A0
E0
ENDCHAR
STARTCHAR uni2076
ENCODING 8310
SWIDTH 351 0
DWIDTH 5 0
BBX 4 6 1 4
BITMAP
70
D0
80
E0
B0
E0
ENDCHAR
STARTCHAR uni2077
ENCODING 8311
SWIDTH 329 0
DWIDTH 5 0
BBX 3 6 1 4
BITMAP
E0
20
40
80
80
80
ENDCHAR
STARTCHAR uni2078
ENCODING 8312
SWIDTH 354 0
DWIDTH 5 0
BBX 4 7 1 3
BITMAP
60
50
60
60
B0
B0
E0
ENDCHAR
STARTCHAR uni2079
ENCODING 8313
SWIDTH 345 0
DWIDTH 5 0
BBX 4 6 1 4
BITMAP
60
B0
B0
E0
A0
C0
ENDCHAR
STARTCHAR uni2080
ENCODING 8320
SWIDTH 379 0
DWIDTH 5 0
BBX 4 6 1 0
BITMAP
70
D0
90
90
B0
E0
ENDCHAR
STARTCHAR uni2081
ENCODING 8321
SWIDTH 229 0
DWIDTH 3 0
BBX 2 6 1 0
BITMAP
40
C0
C0
80
80
80
ENDCHAR
STARTCHAR uni2082
ENCODING 8322
SWIDTH 328 0
DWIDTH 5 0
BBX 3 6 1 0
BITMAP
60
A0
20
40
80
E0
ENDCHAR
STARTCHAR uni2083
ENCODING 8323
SWIDTH 336 0
DWIDTH 5 0
BBX 4 6 1 0
BITMAP
60
B0
60
20
A0
E0
ENDCHAR
STARTCHAR uni2084
ENCODING 8324
SWIDTH 352 0
DWIDTH 5 0
BBX 4 6 1 0
BITMAP
70
60
A0
F0
20
60
ENDCHAR
STARTCHAR uni2085
ENCODING 8325
SWIDTH 335 0
DWIDTH 5 0
BBX 4 6 1 0
BITMAP
70
80
E0
A0
A0
E0
ENDCHAR
STARTCHAR uni2086
ENCODING 8326
SWIDTH 351 0
DWIDTH 5 0
BBX 4 6 1 0
BITMAP
70
D0
E0
F0
A0
E0
ENDCHAR
STARTCHAR uni2087
ENCODING 8327
SWIDTH 329 0
DWIDTH 5 0
BBX 3 6 1 0
BITMAP
E0
20
40
80
80
80
ENDCHAR
STARTCHAR uni2088
ENCODING 8328
SWIDTH 354 0
DWIDTH 5 0
BBX 4 6 1 0
BITMAP
70
50
60
A0
B0
E0
ENDCHAR
STARTCHAR uni2089
ENCODING 8329
SWIDTH 345 0
DWIDTH 5 0
BBX 4 6 1 0
BITMAP
60
B0
B0
F0
20
C0
ENDCHAR
STARTCHAR colonmonetary
ENCODING 8353
SWIDTH 384 0
DWIDTH 5 0
BBX 6 10 0 0
BITMAP
18
18
24
4C
C0
C0
C0
C8
70
60
ENDCHAR
STARTCHAR franc
ENCODING 8355
SWIDTH 529 0
DWIDTH 7 0
BBX 8 10 0 0
BITMAP
1F
18
18
18
3E
30
30
FC
30
60
ENDCHAR
STARTCHAR lira
ENCODING 8356
SWIDTH 455 0
DWIDTH 6 0
BBX 7 10 0 0
BITMAP
0E
1A
32
30
7C
FC
60
62
7E
8C
ENDCHAR
STARTCHAR uni20A6
ENCODING 8358
SWIDTH 723 0
DWIDTH 10 0
BBX 11 10 0 0
BITMAP
1C40
1CC0
1C80
1C80
FFE0
3780
FFE0
2700
2700
6300
ENDCHAR
STARTCHAR uni20A9
ENCODING 8361
SWIDTH 841 0
DWIDTH 12 0
BBX 13 10 0 0
BITMAP
3188
3390
3390
33A0
FFF8
35A0
FFF8
39C0
39C0
3180
ENDCHAR
STARTCHAR Euro
ENCODING 8364
SWIDTH 507 0
DWIDTH 7 0
BBX 8 10 0 0
BITMAP
0F
19
33
30
7E
FC
70
70
32
1C
ENDCHAR
STARTCHAR uni20AE
ENCODING 8366
SWIDTH 481 0
DWIDTH 7 0
BBX 10 10 0 0
BITMAP
3FC0
4C00
8C00
8C00
5F00
7B00
7C00
9800
1800
3000
ENDCHAR
STARTCHAR uni20B3
ENCODING 8371
SWIDTH 573 0
DWIDTH 8 0
BBX 8 10 0 0
BITMAP
1E
6B
D9
9B
73
7C
30
7C
30
60
ENDCHAR
STARTCHAR uni20B4
ENCODING 8372
SWIDTH 570 0
DWIDTH 8 0
BBX 8 10 0 0
BITMAP
1E
62
26
7F
18
FE
6E
66
66
7C
ENDCHAR
STARTCHAR uni20B8
ENCODING 8376
SWIDTH 522 0
DWIDTH 7 0
BBX 11 10 0 0
BITMAP
7FE0
1E20
6FC0
CC00
CC00
CC00
1C00
1800
1800
1800
ENDCHAR
STARTCHAR uni20B9
ENCODING 8377
SWIDTH 544 0
DWIDTH 8 0
BBX 7 11 1 0
BITMAP
FE
18
FE
08
18
E0
38
18
30
30
30
ENDCHAR
STARTCHAR uni20BA
ENCODING 8378
SWIDTH 455 0
DWIDTH 6 0
BBX 7 10 0 0
BITMAP
18
18
1C
30
FC
72
32
62
66
78
ENDCHAR
STARTCHAR uni20BD
ENCODING 8381
SWIDTH 573 0
DWIDTH 8 0
BBX 8 10 0 0
BITMAP
1E
6B
D9
9B
73
7C
30
F8
30
60
ENDCHAR
STARTCHAR uni2116
ENCODING 8470
SWIDTH 996 0
DWIDTH 14 0
BBX 14 10 0 0
BITMAP
3C40
5CD8
9CF4
DCA4
34B8
3680
27B8
2740
2300
6300
ENDCHAR
STARTCHAR uni2120
ENCODING 8480
SWIDTH 585 0
DWIDTH 8 0
BBX 7 5 1 6
BITMAP
20
6A
2C
FC
5C
ENDCHAR
STARTCHAR trademark
ENCODING 8482
SWIDTH 379 0
DWIDTH 5 0
BBX 5 3 0 6
BITMAP
F8
98
B8
ENDCHAR
STARTCHAR uni2126
ENCODING 8486
SWIDTH 745 0
DWIDTH 10 0
BBX 10 11 0 0
BITMAP
0700
1880
30C0
2040
2040
60C0
4080
6080
2100
2200
F780
ENDCHAR
STARTCHAR uni212A
ENCODING 8490
SWIDTH 601 0
DWIDTH 8 0
BBX 9 10 0 0
BITMAP
3D80
5900
DA00
9C00
5E00
3300
3300
3600
3600
6600
ENDCHAR
STARTCHAR uni212B
ENCODING 8491
SWIDTH 668 0
DWIDTH 9 0
BBX 10 14 0 -2
BITMAP
00C0
00C0
00C0
0380
0580
0980
7D80
D380
B300
3300
2300
6300
6400
2000
ENDCHAR
STARTCHAR estimated
ENCODING 8494
SWIDTH 786 0
DWIDTH 11 0
BBX 11 10 0 0
BITMAP
1F00
2080
60C0
60C0
7FE0
E000
6000
6000
2080
1F00
ENDCHAR
STARTCHAR uni2153
ENCODING 8531
SWIDTH 733 0
DWIDTH 10 0
BBX 9 11 1 0
BITMAP
4000
C200
C400
8400
8800
8B80
1280
1080
2380
4480
4300
ENDCHAR
STARTCHAR uni2154
ENCODING 8532
SWIDTH 852 0
DWIDTH 12 0
BBX 11 10 1 0
BITMAP
6080
A100
2100
4200
84C0
E4A0
08C0
0840
1160
21C0
ENDCHAR
STARTCHAR oneeighth
ENCODING 8539
SWIDTH 741 0
DWIDTH 10 0
BBX 9 11 1 0
BITMAP
4000
C200
C400
8400
8800
8B80
1280
1300
2380
4480
4300
ENDCHAR
STARTCHAR threeeighths
ENCODING 8540
SWIDTH 828 0
DWIDTH 12 0
BBX 10 10 1 0
BITMAP
6180
B100
4200
A200
A4C0
C940
08C0
1140
1240
21C0
ENDCHAR
STARTCHAR fiveeighths
ENCODING 8541
SWIDTH 827 0
DWIDTH 12 0
BBX 10 10 1 0
BITMAP
7180
8100
E200
A200
A4C0
E940
08C0
1140
1240
21C0
ENDCHAR
STARTCHAR seveneighths
ENCODING 8542
SWIDTH 761 0
DWIDTH 11 0
BBX 10 10 1 0
BITMAP
E300
2200
4400
8400
8980
9240
1180
2280
2680
4380
ENDCHAR
STARTCHAR partialdiff
ENCODING 8706
SWIDTH 597 0
DWIDTH 8 0
BBX 7 11 1 0
BITMAP
1C
26
02
02
02
3E
C6
84
84
88
F0
ENDCHAR
STARTCHAR uni2206
ENCODING 8710
SWIDTH 619 0
DWIDTH 9 0
BBX 9 10 0 0
BITMAP
0600
0600
0B00
1B00
1300
3100
2100
4100
4100
FF80
ENDCHAR
STARTCHAR product
ENCODING 8719
SWIDTH 661 0
DWIDTH 9 0
BBX 9 11 0 0
BITMAP
7F80
2200
2200
2200
2400
4400
4400
4400
4C00
C800
8800
ENDCHAR
STARTCHAR summation
ENCODING 8721
SWIDTH 605 0
DWIDTH 8 0
BBX 9 10 0 0
BITMAP
3F80
3000
1000
0800
0C00
0800
1000
3000
6000
FE00
ENDCHAR
STARTCHAR minus
ENCODING 8722
SWIDTH 471 0
DWIDTH 7 0
BBX 5 1 1 4
BITMAP
F8
ENDCHAR
STARTCHAR uni2215
ENCODING 8725
SWIDTH 488 0
DWIDTH 7 0
BBX 7 11 0 0
BITMAP
02
04
04
08
08
10
30
20
40
40
80
ENDCHAR
STARTCHAR uni2219
ENCODING 8729
SWIDTH 434 0
DWIDTH 6 0
BBX 2 3 2 2
BITMAP
C0
C0
C0
ENDCHAR
STARTCHAR radical
ENCODING 8730
SWIDTH 660 0
DWIDTH 9 0
BBX 9 10 0 0
BITMAP
0380
0400
0400
0400
0800
0800
D000
5000
7000
2000
ENDCHAR
STARTCHAR infinity
ENCODING 8734
SWIDTH 833 0
DWIDTH 12 0
BBX 9 5 1 2
BITMAP
7380
9480
8880
9C80
E700
ENDCHAR
STARTCHAR integral
ENCODING 8747
SWIDTH 305 0
DWIDTH 4 0
BBX 6 14 -1 -2
BITMAP
0C
08
10
10
10
10
30
20
20
20
20
60
40
C0
ENDCHAR
STARTCHAR approxequal
ENCODING 8776
SWIDTH 441 0
DWIDTH 6 0
BBX 6 5 0 1
BITMAP
7C
40
00
7C
80
ENDCHAR
STARTCHAR notequal
ENCODING 8800
SWIDTH 500 0
DWIDTH 7 0
BBX 7 7 0 0
BITMAP
08
7E
7C
10
7C
FC
20
ENDCHAR
STARTCHAR lessequal
ENCODING 8804
SWIDTH 405 0
DWIDTH 6 0
BBX 6 7 0 2
BITMAP
04
18
60
60
18
00
F8
ENDCHAR
STARTCHAR greaterequal
ENCODING 8805
SWIDTH 405 0
DWIDTH 6 0
BBX 6 7 0 2
BITMAP
20
70
0C
30
40
00
F8
ENDCHAR
STARTCHAR lozenge
ENCODING 9674
SWIDTH 619 0
DWIDTH 9 0
BBX 7 11 1 0
BITMAP
08
18
24
64
46
82
86
8C
48
50
60
ENDCHAR
STARTCHAR uni27E8
ENCODING 10216
SWIDTH 456 0
DWIDTH 6 0
BBX 5 14 1 -2
BITMAP
08
08
10
20
40
40
80
80
80
40
20
20
10
08
ENDCHAR
STARTCHAR uni27E9
ENCODING 10217
SWIDTH 456 0
DWIDTH 6 0
BBX 6 14 0 -2
BITMAP
40
40
20
10
10
08
04
08
08
10
20
20
40
80
ENDCHAR
STARTCHAR ff
ENCODING 64256
SWIDTH 508 0
DWIDTH 7 0
BBX 12 13 -3 -3
BITMAP
07E0
0CD0
0DC0
0FE0
0D80
1980
1980
1B00
1B00
1F00
7300
B200
FE00
ENDCHAR
STARTCHAR fi
ENCODING 64257
SWIDTH 534 0
DWIDTH 7 0
BBX 11 13 -3 -3
BITMAP
0780
06C0
0C00
0EC0
0D80
1D80
1980
1980
19A0
19C0
7000
B000
E000
ENDCHAR
STARTCHAR fl
ENCODING 64258
SWIDTH 548 0
DWIDTH 8 0
BBX 11 13 -3 -3
BITMAP
0780
0CC0
0CC0
0EC0
0CC0
1980
1980
1980
19A0
19C0
7000
B000
E000
ENDCHAR
STARTCHAR ffi
ENCODING 64259
SWIDTH 764 0
DWIDTH 11 0
BBX 14 13 -3 -3
BITMAP
0778
0CD8
0D80
0FF8
0D98
1DB0
1BB0
1B30
1B34
1F38
7300
B600
EE00
ENDCHAR
STARTCHAR ffl
ENCODING 64260
SWIDTH 780 0
DWIDTH 11 0
BBX 15 13 -3 -3
BITMAP
07F0
0CCC
0D98
0FF8
0D98
1D98
1BB0
1B32
1B34
1F38
7300
B600
EE00
ENDCHAR
STARTCHAR .notdef
ENCODING -1
SWIDTH 810 0
DWIDTH 11 0
BBX 11 18 0 -4
BITMAP
0FE0
1020
1020
1020
1020
2640
2940
2640
2440
2440
4080
4C80
4080
4080
8080
8100
8100
FF00
ENDCHAR
STARTCHAR A.salt
ENCODING -1
SWIDTH 590 0
DWIDTH 8 0
BBX 9 11 0 -1
BITMAP
0380
0700
0B00
1300
3F00
2600
6600
4600
C600
CE00
C000
ENDCHAR
STARTCHAR B.salt
ENCODING -1
SWIDTH 633 0
DWIDTH 9 0
BBX 8 10 0 0
BITMAP
3E
59
DB
DF
13
33
33
33
36
7C
ENDCHAR
STARTCHAR E.salt
ENCODING -1
SWIDTH 554 0
DWIDTH 8 0
BBX 8 10 0 0
BITMAP
3F
58
98
98
7E
30
30
30
30
7E
ENDCHAR
STARTCHAR N.salt
ENCODING -1
SWIDTH 669 0
DWIDTH 9 0
BBX 10 10 0 0
BITMAP
3F00
5980
D980
9980
7980
3300
3300
3300
7340
6380
ENDCHAR
STARTCHAR i.loclTRK
ENCODING -1
SWIDTH 267 0
DWIDTH 4 0
BBX 4 10 0 0
BITMAP
60
60
00
60
60
C0
C0
D0
D0
E0
ENDCHAR
STARTCHAR a.end
ENCODING -1
SWIDTH 467 0
DWIDTH 7 0
BBX 7 7 0 0
BITMAP
3E
6C
CC
CC
CC
DC
EE
ENDCHAR
STARTCHAR aacute.end
ENCODING -1
SWIDTH 461 0
DWIDTH 6 0
BBX 7 10 0 0
BITMAP
0C
08
10
36
6C
CC
CC
CC
DC
EC
ENDCHAR
STARTCHAR c.end
ENCODING -1
SWIDTH 341 0
DWIDTH 5 0
BBX 5 7 0 0
BITMAP
38
68
C0
C0
C0
C8
F0
ENDCHAR
STARTCHAR d.end
ENCODING -1
SWIDTH 476 0
DWIDTH 7 0
BBX 7 10 0 0
BITMAP
02
06
06
3E
6C
CC
CC
CC
DC
EE
ENDCHAR
STARTCHAR e.end
ENCODING -1
SWIDTH 366 0
DWIDTH 5 0
BBX 5 7 0 0
BITMAP
38
68
D8
F0
C0
C8
F0
ENDCHAR
STARTCHAR eacute.end
ENCODING -1
SWIDTH 367 0
DWIDTH 5 0
BBX 6 10 0 0
BITMAP
0C
18
00
38
68
D8
F0
C0
C8
F0
ENDCHAR
STARTCHAR uni0292.end
ENCODING -1
SWIDTH 391 0
DWIDTH 5 0
BBX 5 10 0 -3
BITMAP
78
D8
30
60
60
30
30
70
B0
E0
ENDCHAR
STARTCHAR g.end
ENCODING -1
SWIDTH 480 0
DWIDTH 7 0
BBX 7 10 0 -3
BITMAP
3E
6C
CC
CC
CC
CC
F8
38
58
70
ENDCHAR
STARTCHAR uni01E5.end
ENCODING -1
SWIDTH 507 0
DWIDTH 7 0
BBX 7 10 0 -3
BITMAP
3E
6C
CC
CC
CC
CC
F8
38
FC
70
ENDCHAR
STARTCHAR h.end
ENCODING -1
SWIDTH 453 0
DWIDTH 6 0
BBX 7 10 -1 0
BITMAP
18
30
30
3E
36
66
66
6C
6C
E6
ENDCHAR
STARTCHAR i.end
ENCODING -1
SWIDTH 209 0
DWIDTH 3 0
BBX 3 10 0 0
BITMAP
60
60
00
60
60
C0
C0
C0
C0
E0
ENDCHAR
STARTCHAR iacute.end
ENCODING -1
SWIDTH 209 0
DWIDTH 3 0
BBX 4 10 0 0
BITMAP
10
20
00
60
60
C0
C0
C0
C0
E0
ENDCHAR
STARTCHAR ij.end
ENCODING -1
SWIDTH 480 0
DWIDTH 7 0
BBX 7 13 0 -3
BITMAP
66
66
00
66
6C
CC
CC
CC
DC
F8
58
58
70
ENDCHAR
STARTCHAR j.end
ENCODING -1
SWIDTH 213 0
DWIDTH 3 0
BBX 6 13 -3 -3
BITMAP
0C
0C
00
0C
0C
18
18
18
18
18
F0
B0
E0
ENDCHAR
STARTCHAR k.end
ENCODING -1
SWIDTH 472 0
DWIDTH 7 0
BBX 8 10 -1 0
BITMAP
18
30
30
33
3C
7C
66
66
6F
E6
ENDCHAR
STARTCHAR l.end
ENCODING -1
SWIDTH 207 0
DWIDTH 3 0
BBX 4 9 0 0
BITMAP
70
60
60
60
E0
C0
C0
C0
E0
ENDCHAR
STARTCHAR m.end
ENCODING -1
SWIDTH 701 0
DWIDTH 10 0
BBX 11 7 -1 0
BITMAP
3FC0
36C0
66C0
66C0
6CC0
6CC0
ECE0
ENDCHAR
STARTCHAR n.end
ENCODING -1
SWIDTH 454 0
DWIDTH 6 0
BBX 7 7 -1 0
BITMAP
3E
36
66
66
64
6C
E6
ENDCHAR
STARTCHAR o.end
ENCODING -1
SWIDTH 487 0
DWIDTH 7 0
BBX 7 7 0 0
BITMAP
38
6A
CC
C8
C8
D8
F0
ENDCHAR
STARTCHAR oacute.end
ENCODING -1
SWIDTH 487 0
DWIDTH 7 0
BBX 7 10 0 0
BITMAP
0C
18
00
38
6A
CC
C8
C8
D8
F0
ENDCHAR
STARTCHAR s.end
ENCODING -1
SWIDTH 316 0
DWIDTH 4 0
BBX 4 8 0 0
BITMAP
10
30
70
70
B0
B0
B0
E0
ENDCHAR
STARTCHAR t.end
ENCODING -1
SWIDTH 276 0
DWIDTH 4 0
BBX 4 9 0 0
BITMAP
70
60
F0
60
60
C0
C0
C0
E0
ENDCHAR
STARTCHAR u.end
ENCODING -1
SWIDTH 459 0
DWIDTH 6 0
BBX 6 7 0 0
BITMAP
6C
6C
CC
CC
D8
D8
EC
ENDCHAR
STARTCHAR uacute.end
ENCODING -1
SWIDTH 459 0
DWIDTH 6 0
BBX 6 10 0 0
BITMAP
0C
18
00
6C
6C
CC
CC
D8
D8
EC
ENDCHAR
STARTCHAR x.end
ENCODING -1
SWIDTH 500 0
DWIDTH 7 0
BBX 7 7 0 0
BITMAP
36
5A
9C
98
18
2E
CC
ENDCHAR
STARTCHAR y.end
ENCODING -1
SWIDTH 460 0
DWIDTH 6 0
BBX 6 10 0 -3
BITMAP
6C
6C
CC
CC
D8
D8
F8
58
90
70
ENDCHAR
STARTCHAR k.salt
ENCODING -1
SWIDTH 518 0
DWIDTH 7 0
BBX 9 10 -1 0
BITMAP
1800
3000
3000
3200
3E00
7C00
7600
6600
6E80
E700
ENDCHAR
STARTCHAR p.salt
ENCODING -1
SWIDTH 482 0
DWIDTH 7 0
BBX 8 11 -1 -3
BITMAP
30
3E
36
66
67
6E
74
78
C0
C0
C0
ENDCHAR
STARTCHAR E_x
ENCODING -1
SWIDTH 797 0
DWIDTH 11 0
BBX 12 10 0 0
BITMAP
1E00
3200
3460
1B20
71A0
61C0
E180
E190
E3A0
7CC0
ENDCHAR
STARTCHAR F_i
ENCODING -1
SWIDTH 726 0
DWIDTH 10 0
BBX 11 10 0 0
BITMAP
3FC0
5980
D800
9980
5F80
1980
3180
3320
3340
3180
ENDCHAR
STARTCHAR T_h
ENCODING -1
SWIDTH 971 0
DWIDTH 14 0
BBX 14 10 0 0
BITMAP
3FC0
4CC0
8CC0
8CF0
5998
19B0
19B0
19B0
1B34
3338
ENDCHAR
STARTCHAR T_i
ENCODING -1
SWIDTH 744 0
DWIDTH 10 0
BBX 11 10 0 0
BITMAP
3FC0
4DC0
CC00
8CC0
5980
1980
1980
19A0
19A0
31C0
ENDCHAR
STARTCHAR a_x
ENCODING -1
SWIDTH 899 0
DWIDTH 13 0
BBX 13 7 0 0
BITMAP
36D0
6CD0
CCD0
CCE0
CCE8
DD68
EE70
ENDCHAR
STARTCHAR a_z
ENCODING -1
SWIDTH 906 0
DWIDTH 13 0
BBX 13 7 0 0
BITMAP
36F8
6DB0
CC60
CC60
CCC0
DCD0
EFF0
ENDCHAR
STARTCHAR b_s
ENCODING -1
SWIDTH 799 0
DWIDTH 11 0
BBX 12 10 0 0
BITMAP
3000
6000
6000
78C0
6DC0
CEC0
CCC0
CBD0
DAE0
F380
ENDCHAR
STARTCHAR b_s_x
ENCODING -1
SWIDTH 1144 0
DWIDTH 16 0
BBX 17 10 0 0
BITMAP
700000
600000
600300
79D900
6ED900
CCCE00
C8CC00
CBDC80
DAED00
F38600
ENDCHAR
STARTCHAR b_s_z
ENCODING -1
SWIDTH 1158 0
DWIDTH 16 0
BBX 16 10 0 0
BITMAP
3000
6000
6000
78DF
6DD6
CEC6
CCCC
CBCC
DADB
F3BE
ENDCHAR
STARTCHAR c_x
ENCODING -1
SWIDTH 755 0
DWIDTH 11 0
BBX 11 7 0 0
BITMAP
3B40
6B40
C340
C380
C300
C5A0
F9C0
ENDCHAR
STARTCHAR c_z
ENCODING -1
SWIDTH 769 0
DWIDTH 11 0
BBX 11 7 0 0
BITMAP
3BE0
6AC0
C180
C180
C300
CB40
F7C0
ENDCHAR
STARTCHAR e_x
ENCODING -1
SWIDTH 762 0
DWIDTH 11 0
BBX 11 7 0 0
BITMAP
3B40
6B40
DBC0
F300
C3A0
C5A0
79C0
ENDCHAR
STARTCHAR e_z
ENCODING -1
SWIDTH 788 0
DWIDTH 11 0
BBX 11 7 0 0
BITMAP
3BE0
6AC0
D8C0
F180
C380
CB40
F7C0
ENDCHAR
STARTCHAR eacute_x
ENCODING -1
SWIDTH 760 0
DWIDTH 11 0
BBX 11 10 0 0
BITMAP
0C00
0800
1000
3B40
6B40
DBC0
F300
C3A0
C5A0
79C0
ENDCHAR
STARTCHAR f_f_t
ENCODING -1
SWIDTH 780 0
DWIDTH 11 0
BBX 15 13 -3 -3
BITMAP
07F0
0CCC
0D98
0FFC
0D98
1D98
1BB0
1B32
1B34
1F38
7300
B600
EE00
ENDCHAR
STARTCHAR f_i_x
ENCODING -1
SWIDTH 898 0
DWIDTH 13 0
BBX 16 13 -3 -3
BITMAP
0780
06C0
0C02
0EDA
0D9A
1D9A
199C
1998
19AD
19CE
7000
B000
E000
ENDCHAR
STARTCHAR f_i_z
ENCODING -1
SWIDTH 904 0
DWIDTH 13 0
BBX 16 13 -3 -3
BITMAP
0780
06C0
0C00
0EDF
0DB6
1D8C
198C
1998
199A
19FE
7000
B000
E000
ENDCHAR
STARTCHAR f_l_x
ENCODING -1
SWIDTH 912 0
DWIDTH 13 0
BBX 16 13 -3 -3
BITMAP
0780
0CC0
0CC0
0EDA
0CD9
199A
198C
198D
19BD
19CE
7000
B000
E000
ENDCHAR
STARTCHAR f_l_z
ENCODING -1
SWIDTH 938 0
DWIDTH 13 0
BBX 16 13 -3 -3
BITMAP
0780
0CC0
0CC0
0EDF
0CD6
1986
198C
198C
199B
19FE
7000
B000
E000
ENDCHAR
STARTCHAR f_t
ENCODING -1
SWIDTH 548 0
DWIDTH 8 0
BBX 11 13 -3 -3
BITMAP
0780
0CC0
0CC0
0FE0
0CC0
1980
1980
1980
19A0
19C0
7000
B000
E000
ENDCHAR
STARTCHAR f_u
ENCODING -1
SWIDTH 772 0
DWIDTH 11 0
BBX 14 13 -3 -3
BITMAP
0700
0C80
0C00
0FD8
0D98
1998
19B0
19B0
19B4
19F8
7000
B000
E000
ENDCHAR
STARTCHAR f_x
ENCODING -1
SWIDTH 663 0
DWIDTH 9 0
BBX 13 13 -3 -3
BITMAP
0700
0C80
0C00
0FB0
0CD0
18F0
18E0
19C0
1AC8
1B70
F000
B000
E000
ENDCHAR
STARTCHAR g_p
ENCODING -1
SWIDTH 975 0
DWIDTH 14 0
BBX 13 11 0 -3
BITMAP
00C0
3EF8
6CD8
CDD8
CD98
CD98
CDB0
FFF0
3B00
5B00
7300
ENDCHAR
STARTCHAR g_x
ENCODING -1
SWIDTH 892 0
DWIDTH 12 0
BBX 13 10 0 -3
BITMAP
36D0
6CD0
CCD0
CCE0
CCC8
DD68
FE70
3800
5800
7000
ENDCHAR
STARTCHAR g_z
ENCODING -1
SWIDTH 907 0
DWIDTH 13 0
BBX 13 10 0 -3
BITMAP
36F8
6DB0
CC60
CC60
CCC0
C8D0
F9F0
7800
5800
7000
ENDCHAR
STARTCHAR i_x
ENCODING -1
SWIDTH 631 0
DWIDTH 9 0
BBX 9 10 0 0
BITMAP
6000
6000
0100
6C80
6D00
CD00
C600
CE80
D680
E700
ENDCHAR
STARTCHAR i_z
ENCODING -1
SWIDTH 637 0
DWIDTH 9 0
BBX 9 10 0 0
BITMAP
6000
6000
0000
6F80
6B00
C300
C600
CC00
CD00
FF00
ENDCHAR
STARTCHAR iacute_x
ENCODING -1
SWIDTH 631 0
DWIDTH 9 0
BBX 9 10 0 0
BITMAP
1000
2000
0100
6C80
6D00
CD00
C600
CE80
D680
E700
ENDCHAR
STARTCHAR iacute_z
ENCODING -1
SWIDTH 637 0
DWIDTH 9 0
BBX 9 10 0 0
BITMAP
1000
2000
0000
6F80
6B00
C300
C600
CC00
CD00
FF00
ENDCHAR
STARTCHAR j_x
ENCODING -1
SWIDTH 624 0
DWIDTH 9 0
BBX 12 13 -3 -3
BITMAP
0C00
0C00
0020
0D90
0DA0
19C0
18C0
19D0
1AD0
1CE0
7000
B000
E000
ENDCHAR
STARTCHAR j_z
ENCODING -1
SWIDTH 618 0
DWIDTH 9 0
BBX 12 13 -3 -3
BITMAP
0C00
0C00
0000
0DF0
0F60
18C0
18C0
1980
1920
1BE0
7000
B000
6000
ENDCHAR
STARTCHAR l_x
ENCODING -1
SWIDTH 631 0
DWIDTH 9 0
BBX 9 10 0 0
BITMAP
7000
6000
6100
6C80
6D00
CD00
C600
C680
DE80
E700
ENDCHAR
STARTCHAR l_z
ENCODING -1
SWIDTH 635 0
DWIDTH 9 0
BBX 9 10 0 0
BITMAP
3000
6000
6000
6F80
6B00
C200
C600
CC00
CD00
FF00
ENDCHAR
STARTCHAR m_x
ENCODING -1
SWIDTH 1124 0
DWIDTH 16 0
BBX 17 7 -1 0
BITMAP
3FCD00
36CD80
66CD00
66CE00
6CCE80
6CD680
ECE700
ENDCHAR
STARTCHAR m_z
ENCODING -1
SWIDTH 1125 0
DWIDTH 16 0
BBX 17 7 -1 0
BITMAP
3FCF80
36CB00
66C600
66C600
6CCC00
6CCD00
ECFF00
ENDCHAR
STARTCHAR n_z
ENCODING -1
SWIDTH 882 0
DWIDTH 12 0
BBX 13 7 -1 0
BITMAP
3EF8
3690
6630
6660
6460
6CD8
E7F0
ENDCHAR
STARTCHAR o_ae
ENCODING -1
SWIDTH 1089 0
DWIDTH 15 0
BBX 16 7 0 0
BITMAP
38EE
6B3A
CC36
C9F8
CB31
DB72
F3BC
ENDCHAR
STARTCHAR o_s
ENCODING -1
SWIDTH 786 0
DWIDTH 11 0
BBX 12 7 0 0
BITMAP
39C0
6AC0
CCC0
C8C0
CAD0
DAE0
F380
ENDCHAR
STARTCHAR o_s_x
ENCODING -1
SWIDTH 1132 0
DWIDTH 16 0
BBX 16 7 0 0
BITMAP
38DB
69D9
CEDA
C8CC
CADD
DAED
F38E
ENDCHAR
STARTCHAR o_s_z
ENCODING -1
SWIDTH 1139 0
DWIDTH 16 0
BBX 16 7 0 0
BITMAP
39DF
6AD6
CCC6
C8CC
CAD8
DADA
F3BE
ENDCHAR
STARTCHAR o_x
ENCODING -1
SWIDTH 851 0
DWIDTH 12 0
BBX 12 7 0 0
BITMAP
39B0
6990
CFA0
C8C0
C9C0
DAD0
F2E0
ENDCHAR
STARTCHAR oacute_s
ENCODING -1
SWIDTH 787 0
DWIDTH 11 0
BBX 12 10 0 0
BITMAP
0C00
1800
0000
39C0
6AC0
CCC0
C8C0
CAD0
DAE0
F380
ENDCHAR
STARTCHAR oacute_s_x
ENCODING -1
SWIDTH 1141 0
DWIDTH 16 0
BBX 16 10 0 0
BITMAP
0C00
1800
0000
39DF
69D6
CEC6
C8CC
CAD8
DADA
F3BE
ENDCHAR
STARTCHAR oacute_s_z
ENCODING -1
SWIDTH 1140 0
DWIDTH 16 0
BBX 16 10 0 0
BITMAP
0C00
1800
0000
39DF
6AD6
CCC6
C8CC
CAD8
DADA
F3BE
ENDCHAR
STARTCHAR oacute_x
ENCODING -1
SWIDTH 852 0
DWIDTH 12 0
BBX 13 10 0 0
BITMAP
0C00
0800
1000
39B0
6990
CFA0
C8C0
C9C8
DAD0
F2E0
ENDCHAR
STARTCHAR r_x
ENCODING -1
SWIDTH 784 0
DWIDTH 11 0
BBX 13 8 -1 0
BITMAP
0030
3D90
35B0
61A0
60C0
61C8
62D0
E260
ENDCHAR
STARTCHAR r_z
ENCODING -1
SWIDTH 654 0
DWIDTH 9 0
BBX 10 7 -1 0
BITMAP
3FC0
3580
6180
6300
6300
66C0
EF80
ENDCHAR
STARTCHAR s_x
ENCODING -1
SWIDTH 727 0
DWIDTH 10 0
BBX 11 8 0 0
BITMAP
08C0
3640
7340
7380
B300
B720
BBC0
E180
ENDCHAR
STARTCHAR s_z
ENCODING -1
SWIDTH 744 0
DWIDTH 10 0
BBX 10 7 0 0
BITMAP
33C0
76C0
7180
B300
B300
B6C0
EF80
ENDCHAR
STARTCHAR t_x
ENCODING -1
SWIDTH 631 0
DWIDTH 9 0
BBX 9 8 0 0
BITMAP
6000
FD00
6C80
ED00
C600
C600
CE80
F700
ENDCHAR
STARTCHAR t_z
ENCODING -1
SWIDTH 704 0
DWIDTH 10 0
BBX 10 9 0 0
BITMAP
7000
6000
F7C0
6580
6300
C300
C600
C680
EF80
ENDCHAR
STARTCHAR u_v
ENCODING -1
SWIDTH 923 0
DWIDTH 13 0
BBX 13 7 0 0
BITMAP
6DD0
6CC8
CDC8
CD90
D990
D9A0
F9C0
ENDCHAR
STARTCHAR u_x
ENCODING -1
SWIDTH 878 0
DWIDTH 12 0
BBX 13 8 0 0
BITMAP
0030
6D90
6CD0
CCE0
CCC0
D8C8
DDF0
EE60
ENDCHAR
STARTCHAR y_p
ENCODING -1
SWIDTH 954 0
DWIDTH 13 0
BBX 13 11 0 -3
BITMAP
00C0
6CF8
6D98
CD98
CD98
D998
D9B0
FFE0
7B00
7B00
7300
ENDCHAR
STARTCHAR y_x
ENCODING -1
SWIDTH 871 0
DWIDTH 12 0
BBX 13 11 0 -3
BITMAP
0030
6D90
6CD0
CCE0
CCC0
D8C8
DBF0
FC60
3800
7000
7000
ENDCHAR
STARTCHAR y_z
ENCODING -1
SWIDTH 888 0
DWIDTH 12 0
BBX 12 10 0 -3
BITMAP
6CF0
6DB0
CC60
CCC0
D8C0
D9B0
FBE0
5800
9000
7000
ENDCHAR
STARTCHAR a_x.end
ENCODING -1
SWIDTH 884 0
DWIDTH 12 0
BBX 12 7 0 0
BITMAP
36D0
6CD0
CCD0
CCE0
CCC0
DD60
EE70
ENDCHAR
STARTCHAR b_s.end
ENCODING -1
SWIDTH 731 0
DWIDTH 10 0
BBX 10 10 0 0
BITMAP
3000
6000
6000
78C0
6DC0
CEC0
CCC0
CBC0
DAC0
F380
ENDCHAR
STARTCHAR e_x.end
ENCODING -1
SWIDTH 747 0
DWIDTH 10 0
BBX 10 7 0 0
BITMAP
3B40
6B40
DBC0
F300
C380
C580
79C0
ENDCHAR
STARTCHAR f_u.end
ENCODING -1
SWIDTH 724 0
DWIDTH 10 0
BBX 13 13 -3 -3
BITMAP
0700
0C80
0C00
0FD8
0D98
1998
19B0
19B0
19B0
19F8
7000
B000
E000
ENDCHAR
STARTCHAR fi.end
ENCODING -1
SWIDTH 479 0
DWIDTH 7 0
BBX 10 13 -3 -3
BITMAP
0780
06C0
0C00
0EC0
0D80
1D80
1980
1980
19C0
1980
7000
B000
E000
ENDCHAR
STARTCHAR fl.end
ENCODING -1
SWIDTH 490 0
DWIDTH 7 0
BBX 10 13 -3 -3
BITMAP
0780
0CC0
0CC0
0EC0
0CC0
1980
1980
1980
1980
19C0
7000
B000
E000
ENDCHAR
STARTCHAR i_x.end
ENCODING -1
SWIDTH 616 0
DWIDTH 9 0
BBX 9 10 0 0
BITMAP
6000
6000
0100
6C80
6D00
CD00
C600
CE00
D600
E700
ENDCHAR
STARTCHAR o_s.end
ENCODING -1
SWIDTH 718 0
DWIDTH 10 0
BBX 10 7 0 0
BITMAP
39C0
6AC0
CCC0
C8C0
CAC0
DAC0
F380
ENDCHAR
STARTCHAR oacute_s.end
ENCODING -1
SWIDTH 719 0
DWIDTH 10 0
BBX 10 10 0 0
BITMAP
0C00
1800
0000
39C0
6AC0
CCC0
C8C0
CAC0
DAC0
F380
ENDCHAR
STARTCHAR u_x.end
ENCODING -1
SWIDTH 863 0
DWIDTH 12 0
BBX 12 7 0 0
BITMAP
6DB0
6CD0
CCD0
CCE0
D8C0
D9F0
EE60
ENDCHAR
STARTCHAR uni0424.loclBGR
ENCODING -1
SWIDTH 840 0
DWIDTH 12 0
BBX 12 12 0 -1
BITMAP
1F00
3300
1300
1FC0
6660
6630
C630
C620
CC60
6CC0
3F80
0C00
ENDCHAR
STARTCHAR uni0492.loclBSH
ENCODING -1
SWIDTH 459 0
DWIDTH 6 0
BBX 8 10 0 0
BITMAP
3F
58
D8
98
7E
30
30
30
30
60
ENDCHAR
STARTCHAR uni04AA.loclCHU
ENCODING -1
SWIDTH 497 0
DWIDTH 7 0
BBX 7 13 0 -3
BITMAP
1E
32
72
60
60
E0
E0
E0
62
7C
10
18
30
ENDCHAR
STARTCHAR uni0418.loclSRB
ENCODING -1
SWIDTH 705 0
DWIDTH 10 0
BBX 10 10 0 0
BITMAP
1CC0
78C0
D9C0
9B80
5F80
3580
3980
3180
3300
7300
ENDCHAR
STARTCHAR uni0419.loclSRB
ENCODING -1
SWIDTH 705 0
DWIDTH 10 0
BBX 10 13 0 0
BITMAP
06C0
0700
0000
1CC0
78C0
D9C0
9B80
5F80
3580
3980
3180
3300
7300
ENDCHAR
STARTCHAR uni0430.end
ENCODING -1
SWIDTH 467 0
DWIDTH 7 0
BBX 7 7 0 0
BITMAP
3E
6C
CC
CC
CC
DC
EE
ENDCHAR
STARTCHAR uni0432.end
ENCODING -1
SWIDTH 406 0
DWIDTH 6 0
BBX 6 10 0 0
BITMAP
18
34
64
68
D8
D8
C8
C8
C8
70
ENDCHAR
STARTCHAR uni0434.end
ENCODING -1
SWIDTH 480 0
DWIDTH 7 0
BBX 7 10 0 -3
BITMAP
3E
6C
CC
CC
CC
CC
F8
38
58
70
ENDCHAR
STARTCHAR uni0435.end
ENCODING -1
SWIDTH 366 0
DWIDTH 5 0
BBX 5 7 0 0
BITMAP
38
68
D8
F0
C0
C8
F0
ENDCHAR
STARTCHAR uni0451.end
ENCODING -1
SWIDTH 366 0
DWIDTH 5 0
BBX 6 10 0 0
BITMAP
2C
2C
00
38
68
D8
F0
C0
C8
F0
ENDCHAR
STARTCHAR uni0436.end
ENCODING -1
SWIDTH 848 0
DWIDTH 12 0
BBX 13 7 -1 0
BITMAP
39B8
4B68
0B60
0FC0
1B40
DA48
7670
ENDCHAR
STARTCHAR uni0437.end
ENCODING -1
SWIDTH 426 0
DWIDTH 6 0
BBX 6 10 0 -3
BITMAP
38
4C
8C
98
30
18
38
58
58
70
ENDCHAR
STARTCHAR uni0438.end
ENCODING -1
SWIDTH 459 0
DWIDTH 6 0
BBX 6 7 0 0
BITMAP
6C
6C
CC
CC
D8
D8
EC
ENDCHAR
STARTCHAR uni0439.end
ENCODING -1
SWIDTH 459 0
DWIDTH 6 0
BBX 7 10 0 0
BITMAP
32
34
38
6C
6C
CC
CC
D8
D8
EC
ENDCHAR
STARTCHAR uni043A.end
ENCODING -1
SWIDTH 501 0
DWIDTH 7 0
BBX 8 7 -1 0
BITMAP
33
37
7C
64
6C
6C
E6
ENDCHAR
STARTCHAR uni043B.end
ENCODING -1
SWIDTH 511 0
DWIDTH 7 0
BBX 8 7 -1 0
BITMAP
07
0B
0B
16
56
D6
63
ENDCHAR
STARTCHAR uni043C.end
ENCODING -1
SWIDTH 780 0
DWIDTH 11 0
BBX 12 7 -1 0
BITMAP
0670
0E70
0EE0
16E0
5760
D760
6670
ENDCHAR
STARTCHAR uni043D.end
ENCODING -1
SWIDTH 460 0
DWIDTH 6 0
BBX 7 7 -1 0
BITMAP
36
36
66
7E
66
6C
E6
ENDCHAR
STARTCHAR uni043E.end
ENCODING -1
SWIDTH 439 0
DWIDTH 6 0
BBX 5 7 0 0
BITMAP
38
68
C8
C8
C8
D8
F0
ENDCHAR
STARTCHAR uni043F.end
ENCODING -1
SWIDTH 454 0
DWIDTH 6 0
BBX 7 7 -1 0
BITMAP
3E
36
66
66
64
6C
E6
ENDCHAR
STARTCHAR uni0441.end
ENCODING -1
SWIDTH 341 0
DWIDTH 5 0
BBX 5 7 0 0
BITMAP
38
68
C0
C0
C0
C8
F0
ENDCHAR
STARTCHAR uni0442.end
ENCODING -1
SWIDTH 701 0
DWIDTH 10 0
BBX 11 7 -1 0
BITMAP
3FC0
36C0
66C0
66C0
6CC0
6CC0
ECE0
ENDCHAR
STARTCHAR uni0443.end
ENCODING -1
SWIDTH 460 0
DWIDTH 6 0
BBX 6 10 0 -3
BITMAP
6C
6C
CC
CC
D8
D8
F8
58
90
70
ENDCHAR
STARTCHAR uni0445.end
ENCODING -1
SWIDTH 500 0
DWIDTH 7 0
BBX 7 7 0 0
BITMAP
36
5A
9C
98
18
2E
CC
ENDCHAR
STARTCHAR uni0447.end
ENCODING -1
SWIDTH 459 0
DWIDTH 6 0
BBX 6 7 0 0
BITMAP
6C
6C
CC
DC
78
18
0C
ENDCHAR
STARTCHAR uni0448.end
ENCODING -1
SWIDTH 706 0
DWIDTH 10 0
BBX 10 7 0 0
BITMAP
6CC0
6CC0
CD80
CD80
D980
DB80
EDC0
ENDCHAR
STARTCHAR uni044B.end
ENCODING -1
SWIDTH 608 0
DWIDTH 9 0
BBX 9 7 0 0
BITMAP
6180
6700
DB00
CB00
CB00
DB00
F300
ENDCHAR
STARTCHAR uni0455.end
ENCODING -1
SWIDTH 316 0
DWIDTH 4 0
BBX 4 8 0 0
BITMAP
10
30
70
70
B0
B0
B0
E0
ENDCHAR
STARTCHAR uni0456.end
ENCODING -1
SWIDTH 209 0
DWIDTH 3 0
BBX 3 10 0 0
BITMAP
60
60
00
60
60
C0
C0
C0
C0
E0
ENDCHAR
STARTCHAR uni0458.end
ENCODING -1
SWIDTH 213 0
DWIDTH 3 0
BBX 6 13 -3 -3
BITMAP
0C
0C
00
0C
0C
18
18
18
18
18
F0
B0
E0
ENDCHAR
STARTCHAR uni044E.end
ENCODING -1
SWIDTH 675 0
DWIDTH 9 0
BBX 10 7 -1 0
BITMAP
3380
3640
6640
7CC0
6C80
6C80
E700
ENDCHAR
STARTCHAR uni044F.end
ENCODING -1
SWIDTH 480 0
DWIDTH 7 0
BBX 8 7 -1 0
BITMAP
1F
32
36
3E
56
D7
66
ENDCHAR
STARTCHAR uni0437.init
ENCODING -1
SWIDTH 455 0
DWIDTH 6 0
BBX 7 10 0 -3
BITMAP
78
98
18
18
62
34
38
70
B0
E0
ENDCHAR
STARTCHAR uni0445.init
ENCODING -1
SWIDTH 390 0
DWIDTH 5 0
BBX 7 8 -1 0
BITMAP
04
64
34
38
30
70
9A
DC
ENDCHAR
STARTCHAR uni0436.loclBGR
ENCODING -1
SWIDTH 882 0
DWIDTH 12 0
BBX 14 10 -1 0
BITMAP
0180
0180
0180
39B8
4968
0B60
0FC0
1B40
DA44
7678
ENDCHAR
STARTCHAR uni043A.loclBGR
ENCODING -1
SWIDTH 518 0
DWIDTH 7 0
BBX 9 10 -1 0
BITMAP
1800
3000
3000
3300
3C00
7E00
6600
6600
6E80
E700
ENDCHAR
STARTCHAR uni044E.loclBGR
ENCODING -1
SWIDTH 675 0
DWIDTH 9 0
BBX 12 10 -1 0
BITMAP
1800
3000
3000
3380
3650
66E0
7CC0
6C80
6C80
E700
ENDCHAR
STARTCHAR uni0493.loclBSH
ENCODING -1
SWIDTH 398 0
DWIDTH 6 0
BBX 7 7 -1 0
BITMAP
3E
6C
60
78
60
C8
70
ENDCHAR
STARTCHAR uni04AB.loclCHU
ENCODING -1
SWIDTH 384 0
DWIDTH 5 0
BBX 6 10 0 -3
BITMAP
38
68
C0
C0
C4
C8
F0
20
30
70
ENDCHAR
STARTCHAR uni0453.loclMKD
ENCODING -1
SWIDTH 267 0
DWIDTH 4 0
BBX 5 13 0 0
BITMAP
18
10
20
F0
00
00
60
60
C0
C0
C8
D0
E0
ENDCHAR
STARTCHAR uni0433.loclSRB
ENCODING -1
SWIDTH 267 0
DWIDTH 4 0
BBX 4 10 0 0
BITMAP
F0
00
00
60
60
C0
C0
D0
D0
E0
ENDCHAR
STARTCHAR uni043F.loclSRB
ENCODING -1
SWIDTH 505 0
DWIDTH 7 0
BBX 8 10 0 0
BITMAP
3C
00
00
6C
6C
CC
CC
D9
DA
EC
ENDCHAR
STARTCHAR uni0442.loclSRB
ENCODING -1
SWIDTH 752 0
DWIDTH 11 0
BBX 11 9 0 0
BITMAP
3FC0
0000
6CC0
6CC0
CD80
CD80
D9A0
DBA0
EDC0
ENDCHAR
STARTCHAR uni04150437
ENCODING -1
SWIDTH 940 0
DWIDTH 13 0
BBX 14 13 0 -3
BITMAP
1C00
3200
3600
38F0
3130
6130
E270
E2C4
E468
7870
00E0
0160
01C0
ENDCHAR
STARTCHAR uni04150445
ENCODING -1
SWIDTH 797 0
DWIDTH 11 0
BBX 12 10 0 0
BITMAP
1E00
3200
3460
1B20
71A0
61C0
E180
E190
E3A0
7CC0
ENDCHAR
STARTCHAR uni04010437
ENCODING -1
SWIDTH 940 0
DWIDTH 13 0
BBX 14 17 0 -3
BITMAP
0A00
1B00
0000
0000
1C00
3200
3600
38F0
3130
6130
E270
E2C4
E468
7870
00E0
0160
01C0
ENDCHAR
STARTCHAR uni04010445
ENCODING -1
SWIDTH 797 0
DWIDTH 11 0
BBX 12 13 0 0
BITMAP
1B00
0A00
0000
1E00
3200
3460
1B20
71A0
61C0
E180
E190
E3A0
7CC0
ENDCHAR
STARTCHAR uni04210437
ENCODING -1
SWIDTH 973 0
DWIDTH 14 0
BBX 14 13 0 -3
BITMAP
1E00
3200
7200
6070
60B8
E138
E130
E2C4
6464
7838
00F0
0160
00E0
ENDCHAR
STARTCHAR uni04210445
ENCODING -1
SWIDTH 814 0
DWIDTH 11 0
BBX 12 10 0 0
BITMAP
1E00
3200
7060
61A0
61A0
E1C0
E180
E190
62D0
7CE0
ENDCHAR
STARTCHAR uni04040437
ENCODING -1
SWIDTH 973 0
DWIDTH 14 0
BBX 14 13 0 -3
BITMAP
1E00
3200
6200
7C70
60B8
E138
E130
E2C4
6464
7838
00F0
0160
00E0
ENDCHAR
STARTCHAR uni04040445
ENCODING -1
SWIDTH 814 0
DWIDTH 11 0
BBX 12 10 0 0
BITMAP
1E00
3200
7060
61A0
7DA0
E1C0
E1C0
E180
62D0
7CE0
ENDCHAR
STARTCHAR uni04300445
ENCODING -1
SWIDTH 899 0
DWIDTH 13 0
BBX 13 7 0 0
BITMAP
36D0
6CD0
CCD0
CCE0
CCE8
DD68
EE70
ENDCHAR
STARTCHAR uni04300447
ENCODING -1
SWIDTH 993 0
DWIDTH 14 0
BBX 14 7 0 0
BITMAP
3ED8
6D98
CD98
CDB8
CCF0
DC34
EE38
ENDCHAR
STARTCHAR uni04310433
ENCODING -1
SWIDTH 816 0
DWIDTH 11 0
BBX 12 10 0 0
BITMAP
3F00
3E00
1000
39C0
6A60
CCE0
CDC0
CB90
D320
73C0
ENDCHAR
STARTCHAR uni04310453
ENCODING -1
SWIDTH 816 0
DWIDTH 11 0
BBX 12 10 0 0
BITMAP
3F60
3E40
1080
39C0
6A60
CCE0
CDC0
CB90
D320
73C0
ENDCHAR
STARTCHAR uni04310451
ENCODING -1
SWIDTH 814 0
DWIDTH 11 0
BBX 12 10 0 0
BITMAP
3EB0
3EB0
1000
38E0
69A0
CB60
CBC0
CB10
DB20
73C0
ENDCHAR
STARTCHAR uni04310436
ENCODING -1
SWIDTH 1261 0
DWIDTH 18 0
BBX 18 10 0 0
BITMAP
3F0000
3E0000
100000
3999C0
6ADB40
CCDA00
C8FE00
C8D600
DEB640
733380
ENDCHAR
STARTCHAR uni04310439
ENCODING -1
SWIDTH 935 0
DWIDTH 13 0
BBX 14 10 0 0
BITMAP
3F88
3ED0
10E0
39B0
69B0
CB30
CB30
CB30
DB64
73B8
ENDCHAR
STARTCHAR uni0431045E
ENCODING -1
SWIDTH 916 0
DWIDTH 13 0
BBX 13 13 0 -3
BITMAP
3FD8
3EE0
1000
39B0
69B0
CB30
CB30
CB30
DB68
73F0
00E0
01E0
01C0
ENDCHAR
STARTCHAR uni0431044D
ENCODING -1
SWIDTH 860 0
DWIDTH 12 0
BBX 11 10 0 0
BITMAP
3F00
3E00
1000
39E0
6A60
CC60
CCE0
C860
DA40
7380
ENDCHAR
STARTCHAR uni04310456
ENCODING -1
SWIDTH 697 0
DWIDTH 10 0
BBX 10 10 0 0
BITMAP
3F80
3D80
1000
3980
6980
CB00
CB00
CB00
DB40
7380
ENDCHAR
STARTCHAR uni04310457
ENCODING -1
SWIDTH 697 0
DWIDTH 10 0
BBX 11 10 0 0
BITMAP
3F40
3DE0
1000
3980
6980
CB00
CB00
CB00
DB40
7380
ENDCHAR
STARTCHAR uni04310458
ENCODING -1
SWIDTH 669 0
DWIDTH 9 0
BBX 10 13 0 -3
BITMAP
3F80
3D80
1000
3980
6980
CB00
CB00
CB00
DB40
7380
0E00
1600
1C00
ENDCHAR
STARTCHAR uni04320433
ENCODING -1
SWIDTH 837 0
DWIDTH 12 0
BBX 12 10 0 0
BITMAP
1800
3400
6400
69E0
DE60
D8E0
C9C0
CB80
CB10
71E0
ENDCHAR
STARTCHAR uni04320453
ENCODING -1
SWIDTH 837 0
DWIDTH 12 0
BBX 12 10 0 0
BITMAP
1860
3440
6480
69E0
DE60
D8E0
C9C0
CB80
CB10
71E0
ENDCHAR
STARTCHAR uni04320436
ENCODING -1
SWIDTH 1279 0
DWIDTH 18 0
BBX 19 10 0 0
BITMAP
180000
340000
640000
69CDC0
DE5B40
D85B00
C87E00
C8DA20
CAD240
73B380
ENDCHAR
STARTCHAR uni04320437
ENCODING -1
SWIDTH 824 0
DWIDTH 12 0
BBX 12 13 0 -3
BITMAP
1800
3400
6400
6BC0
DCE0
D8C0
C8C0
CB10
C990
70A0
03C0
0580
0380
ENDCHAR
STARTCHAR uni04320445
ENCODING -1
SWIDTH 851 0
DWIDTH 12 0
BBX 13 10 0 0
BITMAP
1800
3400
6400
6BB0
DD90
D8E0
C8C0
C9C8
CAD0
7460
ENDCHAR
STARTCHAR uni04330437
ENCODING -1
SWIDTH 840 0
DWIDTH 12 0
BBX 12 10 0 -3
BITMAP
71C0
9A60
3C60
74C0
CB90
C890
F0E0
03C0
05C0
0380
ENDCHAR
STARTCHAR uni04330445
ENCODING -1
SWIDTH 740 0
DWIDTH 10 0
BBX 11 8 0 0
BITMAP
00C0
7640
9B40
BB80
7300
C300
CF20
F1C0
ENDCHAR
STARTCHAR uni04330447
ENCODING -1
SWIDTH 880 0
DWIDTH 12 0
BBX 13 7 0 0
BITMAP
7330
9B60
3B60
77E0
C760
C868
F070
ENDCHAR
STARTCHAR uni04530437
ENCODING -1
SWIDTH 840 0
DWIDTH 12 0
BBX 12 13 0 -3
BITMAP
0C00
1800
0000
71C0
9A60
3C60
74C0
CB90
C890
F0E0
03C0
05C0
0380
ENDCHAR
STARTCHAR uni04530445
ENCODING -1
SWIDTH 740 0
DWIDTH 10 0
BBX 11 10 0 0
BITMAP
0C00
1000
00C0
7640
9B40
BB80
7300
C300
CF20
F1C0
ENDCHAR
STARTCHAR uni04530447
ENCODING -1
SWIDTH 880 0
DWIDTH 12 0
BBX 13 10 0 0
BITMAP
0C00
1800
0000
7330
9B60
3B60
77E0
C760
C868
F070
ENDCHAR
STARTCHAR uni04340447
ENCODING -1
SWIDTH 1010 0
DWIDTH 14 0
BBX 15 10 0 -3
BITMAP
3EDC
6CD8
CCD8
CDF8
CDD8
CE32
FC1C
3800
5800
7000
ENDCHAR
STARTCHAR uni04340458
ENCODING -1
SWIDTH 746 0
DWIDTH 10 0
BBX 11 13 0 -3
BITMAP
00C0
00C0
0000
3EC0
6CC0
CCC0
CD80
CD80
CDA0
FDC0
3B00
5B00
7600
ENDCHAR
STARTCHAR uni04350437
ENCODING -1
SWIDTH 876 0
DWIDTH 12 0
BBX 13 10 0 -3
BITMAP
39E0
6A60
DA60
F460
C588
C8D0
F0E0
01C0
02C0
0380
ENDCHAR
STARTCHAR uni04350445
ENCODING -1
SWIDTH 762 0
DWIDTH 11 0
BBX 11 7 0 0
BITMAP
3B40
6B40
DBC0
F300
C3A0
C5A0
79C0
ENDCHAR
STARTCHAR uni04350447
ENCODING -1
SWIDTH 889 0
DWIDTH 12 0
BBX 13 7 0 0
BITMAP
3B30
6B60
DB60
F3E0
C768
C868
F070
ENDCHAR
STARTCHAR uni04510437
ENCODING -1
SWIDTH 876 0
DWIDTH 12 0
BBX 13 13 0 -3
BITMAP
2C00
2C00
0000
39E0
6A60
DA60
F460
C588
C8D0
F0E0
01C0
02C0
0380
ENDCHAR
STARTCHAR uni04510445
ENCODING -1
SWIDTH 762 0
DWIDTH 11 0
BBX 11 10 0 0
BITMAP
2C00
2C00
0000
3B40
6B40
DBC0
F300
C3A0
C5A0
79C0
ENDCHAR
STARTCHAR uni04510447
ENCODING -1
SWIDTH 889 0
DWIDTH 12 0
BBX 13 10 0 0
BITMAP
2C00
2C00
0000
3B30
6B60
DB60
F7E0
C768
C868
F070
ENDCHAR
STARTCHAR uni04360447
ENCODING -1
SWIDTH 1392 0
DWIDTH 19 0
BBX 21 7 -1 0
BITMAP
39BB30
4B6B60
0B6360
0FC760
1B47E0
DA4868
767070
ENDCHAR
STARTCHAR uni04370437
ENCODING -1
SWIDTH 921 0
DWIDTH 13 0
BBX 13 10 0 -3
BITMAP
38E0
4D30
8E30
9A60
33C8
1C68
1870
79E0
5960
71C0
ENDCHAR
STARTCHAR uni04380447
ENCODING -1
SWIDTH 1010 0
DWIDTH 14 0
BBX 15 7 0 0
BITMAP
6CDC
6CD8
CCD8
CDF8
D9DA
DA3C
EC18
ENDCHAR
STARTCHAR uni04390447
ENCODING -1
SWIDTH 1010 0
DWIDTH 14 0
BBX 15 10 0 0
BITMAP
3200
3400
3800
6CDC
6CD8
CDD8
CDF8
D9DA
DA3C
EC18
ENDCHAR
STARTCHAR uni043A0447
ENCODING -1
SWIDTH 1016 0
DWIDTH 14 0
BBX 16 7 -1 0
BITMAP
3366
3F6C
7C6C
64FC
6CED
6D0D
E60E
ENDCHAR
STARTCHAR uni045C0447
ENCODING -1
SWIDTH 1016 0
DWIDTH 14 0
BBX 16 10 -1 0
BITMAP
0600
0400
0800
3366
3F6C
7C6C
64FC
6CED
6D0D
E60E
ENDCHAR
STARTCHAR uni043B0447
ENCODING -1
SWIDTH 1061 0
DWIDTH 15 0
BBX 16 7 -1 0
BITMAP
0736
0B66
0B66
166E
567D
D68D
670E
ENDCHAR
STARTCHAR uni043C0447
ENCODING -1
SWIDTH 1276 0
DWIDTH 18 0
BBX 19 7 -1 0
BITMAP
0C66C0
0CECC0
0CECC0
1D4D80
5DCFA0
D6D1A0
6661C0
ENDCHAR
STARTCHAR uni043D0447
ENCODING -1
SWIDTH 1011 0
DWIDTH 14 0
BBX 16 7 -1 0
BITMAP
366E
366C
666C
7ECC
66FC
6C99
E70E
ENDCHAR
STARTCHAR uni043E0433
ENCODING -1
SWIDTH 804 0
DWIDTH 11 0
BBX 12 7 0 0
BITMAP
39E0
6A60
CCE0
C9C0
CB90
DB20
F3C0
ENDCHAR
STARTCHAR uni043E0453
ENCODING -1
SWIDTH 804 0
DWIDTH 11 0
BBX 12 10 0 0
BITMAP
0030
0060
0000
39E0
6A60
CCE0
C9C0
CB90
DB20
F3C0
ENDCHAR
STARTCHAR uni043E0436
ENCODING -1
SWIDTH 1271 0
DWIDTH 18 0
BBX 18 7 0 0
BITMAP
39CDC0
6ADB40
CC5A00
C8FE00
C8DE00
DEB640
F3B380
ENDCHAR
STARTCHAR uni043E0437
ENCODING -1
SWIDTH 837 0
DWIDTH 12 0
BBX 12 10 0 -3
BITMAP
39C0
6A60
CC60
C8C0
CB90
D990
F0E0
03C0
0580
0380
ENDCHAR
STARTCHAR uni043E043B
ENCODING -1
SWIDTH 992 0
DWIDTH 14 0
BBX 14 7 0 0
BITMAP
3838
6858
C858
C898
C8B0
DAB4
FF18
ENDCHAR
STARTCHAR uni043E043C
ENCODING -1
SWIDTH 1207 0
DWIDTH 17 0
BBX 17 7 0 0
BITMAP
386300
686700
C86700
C8AA00
CABE80
DEB680
F33300
ENDCHAR
STARTCHAR uni043E0445
ENCODING -1
SWIDTH 850 0
DWIDTH 12 0
BBX 12 7 0 0
BITMAP
39B0
6990
CFA0
C8C0
C9C0
DAD0
F2E0
ENDCHAR
STARTCHAR uni043E0459
ENCODING -1
SWIDTH 1179 0
DWIDTH 17 0
BBX 16 7 0 0
BITMAP
3838
6858
C85E
C89B
C8B3
DEB2
FB1C
ENDCHAR
STARTCHAR uni043E044D
ENCODING -1
SWIDTH 867 0
DWIDTH 12 0
BBX 12 7 0 0
BITMAP
39E0
6A60
CC70
C8E0
C860
DA40
F380
ENDCHAR
STARTCHAR uni043F0447
ENCODING -1
SWIDTH 1010 0
DWIDTH 14 0
BBX 16 7 -1 0
BITMAP
3E6E
366C
664C
66FC
64EC
6D19
E60E
ENDCHAR
STARTCHAR uni04400437
ENCODING -1
SWIDTH 890 0
DWIDTH 12 0
BBX 14 11 -1 -3
BITMAP
3000
3EF0
3730
6630
6630
66C4
6C64
F878
C0E0
C160
C1C0
ENDCHAR
STARTCHAR uni04410437
ENCODING -1
SWIDTH 876 0
DWIDTH 12 0
BBX 13 10 0 -3
BITMAP
39E0
6A60
C260
C460
C588
C8D0
F0E0
01C0
02C0
0380
ENDCHAR
STARTCHAR uni04410445
ENCODING -1
SWIDTH 755 0
DWIDTH 11 0
BBX 11 7 0 0
BITMAP
3B40
6B40
C340
C380
C300
C5A0
F9C0
ENDCHAR
STARTCHAR uni04410447
ENCODING -1
SWIDTH 889 0
DWIDTH 12 0
BBX 13 7 0 0
BITMAP
3B30
6B60
C360
C360
C7E0
C868
F070
ENDCHAR
STARTCHAR uni0441044A
ENCODING -1
SWIDTH 841 0
DWIDTH 12 0
BBX 12 7 0 0
BITMAP
3BC0
6A80
C1E0
C330
C720
CB60
F3C0
ENDCHAR
STARTCHAR uni04420447
ENCODING -1
SWIDTH 1257 0
DWIDTH 18 0
BBX 19 7 -1 0
BITMAP
3FCEC0
36CCC0
66CD80
66CF80
6CCF80
6CD1A0
ECE1C0
ENDCHAR
STARTCHAR uni04430447
ENCODING -1
SWIDTH 989 0
DWIDTH 14 0
BBX 14 10 0 -3
BITMAP
6CD8
6D98
CD98
CDB0
D9F0
DA34
FC38
3800
7800
7000
ENDCHAR
STARTCHAR uni04430458
ENCODING -1
SWIDTH 725 0
DWIDTH 10 0
BBX 11 13 0 -3
BITMAP
00C0
00C0
0000
6CC0
6D80
CD80
CD80
D9A0
D9C0
FB80
3F00
5B00
7E00
ENDCHAR
STARTCHAR uni045E0447
ENCODING -1
SWIDTH 989 0
DWIDTH 14 0
BBX 14 13 0 -3
BITMAP
3600
3800
0000
6CD8
6D98
CD98
CDB0
D9F0
DA34
FC38
3800
7800
7000
ENDCHAR
STARTCHAR uni045E0458
ENCODING -1
SWIDTH 725 0
DWIDTH 10 0
BBX 11 13 0 -3
BITMAP
36C0
38C0
0000
6CC0
6D80
CD80
CD80
D9A0
D9C0
FF80
3B00
7300
7E00
ENDCHAR
STARTCHAR uni04440437
ENCODING -1
SWIDTH 1148 0
DWIDTH 16 0
BBX 17 13 0 -3
BITMAP
020000
060000
060000
3F9C00
6CE600
CCC600
CCCC00
C89880
D98D00
FF0E00
181C00
182C00
303800
ENDCHAR
STARTCHAR uni04450447
ENCODING -1
SWIDTH 1027 0
DWIDTH 14 0
BBX 15 7 0 0
BITMAP
36CC
5AD8
9CD8
98F8
99F8
291A
CE1C
ENDCHAR
STARTCHAR uni0445044A
ENCODING -1
SWIDTH 1006 0
DWIDTH 14 0
BBX 14 7 0 0
BITMAP
36F0
5AA0
9C78
98CC
98C8
39D8
CEF0
ENDCHAR
STARTCHAR uni04470447
ENCODING -1
SWIDTH 1010 0
DWIDTH 14 0
BBX 15 7 0 0
BITMAP
6CDC
6CD8
CCD8
DDF8
79DA
1A3C
0C18
ENDCHAR
STARTCHAR uni04480447
ENCODING -1
SWIDTH 1257 0
DWIDTH 18 0
BBX 18 7 0 0
BITMAP
6CDD80
6CD980
CD9B00
CD9B00
D9BF00
DBA340
EDC380
ENDCHAR
STARTCHAR uni045F0447
ENCODING -1
SWIDTH 1010 0
DWIDTH 14 0
BBX 15 10 0 -3
BITMAP
6CDC
6CD8
CCD8
CDF8
D9DA
DA3C
EC18
3000
3000
1000
ENDCHAR
STARTCHAR uni044B0447
ENCODING -1
SWIDTH 1157 0
DWIDTH 16 0
BBX 17 7 0 0
BITMAP
61B700
673600
DB3600
CB7E00
CB7680
DB8F00
F38600
ENDCHAR
STARTCHAR uni04550437
ENCODING -1
SWIDTH 840 0
DWIDTH 12 0
BBX 12 10 0 -3
BITMAP
31C0
7260
7460
B4C0
BB90
B890
F0E0
03C0
05C0
0380
ENDCHAR
STARTCHAR uni04550445
ENCODING -1
SWIDTH 727 0
DWIDTH 10 0
BBX 11 8 0 0
BITMAP
08C0
3640
7340
7380
B300
B720
BBC0
E180
ENDCHAR
STARTCHAR uni04550447
ENCODING -1
SWIDTH 909 0
DWIDTH 13 0
BBX 13 7 0 0
BITMAP
31B0
7330
7330
B360
B7E0
B868
E070
ENDCHAR
STARTCHAR uni04540437
ENCODING -1
SWIDTH 876 0
DWIDTH 12 0
BBX 13 10 0 -3
BITMAP
39E0
6A60
F260
C460
C588
C8D0
F0E0
01C0
02C0
0380
ENDCHAR
STARTCHAR uni04540445
ENCODING -1
SWIDTH 755 0
DWIDTH 11 0
BBX 11 7 0 0
BITMAP
3B40
6B40
C340
F380
C300
C5A0
F9C0
ENDCHAR
STARTCHAR uni04540447
ENCODING -1
SWIDTH 889 0
DWIDTH 12 0
BBX 13 7 0 0
BITMAP
3B30
6B60
C360
F360
C7E0
C868
F070
ENDCHAR
STARTCHAR uni044D0437
ENCODING -1
SWIDTH 837 0
DWIDTH 12 0
BBX 13 10 -1 -3
BITMAP
3CE0
4F30
3E30
0C60
4DC8
D8C8
7070
01E0
02C0
01C0
ENDCHAR
STARTCHAR uni04560447
ENCODING -1
SWIDTH 763 0
DWIDTH 11 0
BBX 11 10 0 0
BITMAP
6000
6000
0000
6EC0
6CC0
CCC0
CD80
CF80
D1A0
E1C0
ENDCHAR
STARTCHAR uni04570447
ENCODING -1
SWIDTH 763 0
DWIDTH 11 0
BBX 11 10 0 0
BITMAP
D000
D000
0000
6EC0
6CC0
CCC0
CD80
CF80
D1A0
E1C0
ENDCHAR
STARTCHAR uni04570457
ENCODING -1
SWIDTH 543 0
DWIDTH 8 0
BBX 8 10 0 0
BITMAP
F5
FF
00
66
6C
CC
CC
CD
DD
EE
ENDCHAR
STARTCHAR uni04580447
ENCODING -1
SWIDTH 743 0
DWIDTH 10 0
BBX 14 13 -3 -3
BITMAP
0C00
0C00
0000
0D98
0DB0
19B0
19B0
1BF0
1A34
1C38
7000
B000
E000
ENDCHAR
STARTCHAR uni04580458
ENCODING -1
SWIDTH 480 0
DWIDTH 7 0
BBX 10 13 -3 -3
BITMAP
0DC0
0CC0
0000
0D80
0D80
1980
1980
1B40
1B40
1F80
7300
B600
EE00
ENDCHAR
STARTCHAR uni045B0447
ENCODING -1
SWIDTH 990 0
DWIDTH 14 0
BBX 15 13 -1 -3
BITMAP
3800
3000
7C00
306C
3CCC
76CC
66F8
6CF8
6D1A
EE1C
3C00
2800
3800
ENDCHAR
STARTCHAR uni045B0458
ENCODING -1
SWIDTH 722 0
DWIDTH 10 0
BBX 12 13 -1 -3
BITMAP
3860
3060
7C00
3060
3CC0
76C0
66C0
6CD0
6CE0
EFC0
3D80
3980
3F00
ENDCHAR
STARTCHAR uni044E0433
ENCODING -1
SWIDTH 1050 0
DWIDTH 15 0
BBX 16 7 -1 0
BITMAP
339E
36E6
66C6
7CDC
6CB8
6CB1
E71E
ENDCHAR
STARTCHAR uni044E0453
ENCODING -1
SWIDTH 1050 0
DWIDTH 15 0
BBX 16 10 -1 0
BITMAP
0003
0006
0000
339E
36E6
66C6
7CDC
6CB8
6CB1
E71E
ENDCHAR
STARTCHAR uni044E0436
ENCODING -1
SWIDTH 1507 0
DWIDTH 21 0
BBX 23 7 -1 0
BITMAP
339CDC
3664D4
66C7B0
7CC7F0
6C85A2
6CADB4
E73B38
ENDCHAR
STARTCHAR uni044E0437
ENCODING -1
SWIDTH 1073 0
DWIDTH 15 0
BBX 17 10 -1 -3
BITMAP
339C00
36E600
7EC600
6CCC00
6C9880
6C8D00
E70E00
001C00
002C00
003800
ENDCHAR
STARTCHAR uni044E043B
ENCODING -1
SWIDTH 1228 0
DWIDTH 17 0
BBX 19 7 -1 0
BITMAP
3383C0
364580
664580
7CC580
6C8580
6CA920
E7F9C0
ENDCHAR
STARTCHAR uni044E043C
ENCODING -1
SWIDTH 1443 0
DWIDTH 20 0
BBX 22 7 -1 0
BITMAP
338338
364730
664770
7CC770
6C87B0
6CABA4
E7FB38
ENDCHAR
STARTCHAR uni044E0445
ENCODING -1
SWIDTH 1088 0
DWIDTH 15 0
BBX 17 7 -1 0
BITMAP
339B00
36ED00
7ECE00
6CDC00
6CBC80
6CAC80
E73700
ENDCHAR
STARTCHAR uni044E0459
ENCODING -1
SWIDTH 1415 0
DWIDTH 20 0
BBX 20 7 -1 0
BITMAP
3383C0
364580
6645F0
7CC5B0
6C85B0
6CA930
E7F9E0
ENDCHAR
STARTCHAR uni044E044D
ENCODING -1
SWIDTH 1103 0
DWIDTH 15 0
BBX 16 7 -1 0
BITMAP
338E
3673
66C3
7CCF
6C86
6CA6
E73C
ENDCHAR
STARTCHAR uni044F0447
ENCODING -1
SWIDTH 1030 0
DWIDTH 14 0
BBX 16 7 -1 0
BITMAP
1F66
326C
366C
3E7C
56ED
D68D
670E
ENDCHAR
STARTCHAR uni04300445.liga
ENCODING -1
SWIDTH 884 0
DWIDTH 12 0
BBX 12 7 0 0
BITMAP
36D0
6CD0
CCD0
CCE0
CCE0
DD60
EE70
ENDCHAR
STARTCHAR uni04300447.liga
ENCODING -1
SWIDTH 947 0
DWIDTH 13 0
BBX 13 7 0 0
BITMAP
3ED8
6D98
CD98
CDB8
CCF0
DC30
EE38
ENDCHAR
STARTCHAR uni04310451.liga
ENCODING -1
SWIDTH 746 0
DWIDTH 10 0
BBX 12 10 0 0
BITMAP
3EB0
3EB0
1000
38E0
69A0
CB60
CBC0
CB00
DB40
73C0
ENDCHAR
STARTCHAR uni04310436.liga
ENCODING -1
SWIDTH 1258 0
DWIDTH 18 0
BBX 18 10 0 0
BITMAP
3F0000
3E0000
100000
3999C0
6ADB40
CCDA00
C8FE00
C8D600
DEB640
733380
ENDCHAR
STARTCHAR uni04310439.liga
ENCODING -1
SWIDTH 901 0
DWIDTH 13 0
BBX 13 10 0 0
BITMAP
3F88
3ED0
10E0
39B0
69B0
CB30
CB30
CB30
DB60
73B0
ENDCHAR
STARTCHAR uni0431045E.liga
ENCODING -1
SWIDTH 890 0
DWIDTH 12 0
BBX 13 13 0 -3
BITMAP
3FD8
3EE0
1000
39B0
69B0
CB30
CB30
CB60
DB60
73E0
0160
0260
01C0
ENDCHAR
STARTCHAR uni04310456.liga
ENCODING -1
SWIDTH 639 0
DWIDTH 9 0
BBX 9 10 0 0
BITMAP
3F80
3D80
1000
3980
6980
CB00
CB00
CB00
DB00
7380
ENDCHAR
STARTCHAR uni04310457.liga
ENCODING -1
SWIDTH 638 0
DWIDTH 9 0
BBX 11 10 0 0
BITMAP
3F40
3DE0
1000
3980
6980
CB00
CB00
CB00
DB00
7380
ENDCHAR
STARTCHAR uni04310458.liga
ENCODING -1
SWIDTH 638 0
DWIDTH 9 0
BBX 9 13 0 -3
BITMAP
3F80
3D80
1000
3980
6980
CB00
CB00
CB00
DB00
7300
1E00
1600
1C00
ENDCHAR
STARTCHAR uni04320436.liga
ENCODING -1
SWIDTH 1275 0
DWIDTH 18 0
BBX 18 10 0 0
BITMAP
180000
340000
640000
69CDC0
DE5B40
D85B00
C87E00
C8DA00
CAD200
73B3C0
ENDCHAR
STARTCHAR uni04320437.liga
ENCODING -1
SWIDTH 752 0
DWIDTH 11 0
BBX 11 13 0 -3
BITMAP
1800
3400
6400
6BC0
DCE0
D8C0
C8C0
CB00
C980
71C0
0380
0580
0300
ENDCHAR
STARTCHAR uni04320445.liga
ENCODING -1
SWIDTH 842 0
DWIDTH 12 0
BBX 12 10 0 0
BITMAP
1800
3400
6400
6BB0
DD90
D8E0
C8C0
C9C0
CAC0
7460
ENDCHAR
STARTCHAR uni04330437.liga
ENCODING -1
SWIDTH 768 0
DWIDTH 11 0
BBX 11 10 0 -3
BITMAP
71C0
9A60
3C60
74C0
CB80
C8C0
F0C0
03C0
0480
0380
ENDCHAR
STARTCHAR uni04330445.liga
ENCODING -1
SWIDTH 725 0
DWIDTH 10 0
BBX 10 8 0 0
BITMAP
00C0
7640
9B40
3B80
7300
C300
CD40
F180
ENDCHAR
STARTCHAR uni04330447.liga
ENCODING -1
SWIDTH 834 0
DWIDTH 12 0
BBX 12 7 0 0
BITMAP
7330
9B60
3B60
77E0
C760
C860
F070
ENDCHAR
STARTCHAR uni04530437.liga
ENCODING -1
SWIDTH 768 0
DWIDTH 11 0
BBX 11 13 0 -3
BITMAP
0C00
1800
0000
71C0
9A60
3C60
74C0
CB80
C8C0
F0C0
03C0
0480
0380
ENDCHAR
STARTCHAR uni04530445.liga
ENCODING -1
SWIDTH 725 0
DWIDTH 10 0
BBX 10 10 0 0
BITMAP
0C00
1000
00C0
7640
9B40
3B80
7300
C300
CD40
F180
ENDCHAR
STARTCHAR uni04530447.liga
ENCODING -1
SWIDTH 834 0
DWIDTH 12 0
BBX 12 10 0 0
BITMAP
0C00
1800
0000
7330
9B60
3B60
77E0
C760
C860
F070
ENDCHAR
STARTCHAR uni04340447.liga
ENCODING -1
SWIDTH 965 0
DWIDTH 14 0
BBX 14 10 0 -3
BITMAP
3EDC
6CD8
CCD8
CDF8
CDD8
CE30
FC18
3800
5800
7000
ENDCHAR
STARTCHAR uni04340458.liga
ENCODING -1
SWIDTH 715 0
DWIDTH 10 0
BBX 10 13 0 -3
BITMAP
00C0
00C0
0000
3EC0
6CC0
CCC0
CD80
CD80
CD80
FD80
3B00
5B00
7600
ENDCHAR
STARTCHAR uni04350437.liga
ENCODING -1
SWIDTH 804 0
DWIDTH 11 0
BBX 11 10 0 -3
BITMAP
39E0
6A60
DA60
F460
C580
C8C0
F0C0
01C0
02C0
0380
ENDCHAR
STARTCHAR uni04350445.liga
ENCODING -1
SWIDTH 747 0
DWIDTH 10 0
BBX 10 7 0 0
BITMAP
3B40
6B40
DBC0
F300
C380
C580
79C0
ENDCHAR
STARTCHAR uni04350447.liga
ENCODING -1
SWIDTH 844 0
DWIDTH 12 0
BBX 12 7 0 0
BITMAP
3B30
6B70
DB60
F3E0
C760
C860
F070
ENDCHAR
STARTCHAR uni04510437.liga
ENCODING -1
SWIDTH 804 0
DWIDTH 11 0
BBX 11 13 0 -3
BITMAP
2C00
2C00
0000
39E0
6A60
DA60
F460
C580
C8C0
F0C0
01C0
02C0
0380
ENDCHAR
STARTCHAR uni04510445.liga
ENCODING -1
SWIDTH 747 0
DWIDTH 10 0
BBX 10 10 0 0
BITMAP
2C00
2C00
0000
3B40
6B40
DBC0
F300
C380
C580
79C0
ENDCHAR
STARTCHAR uni04510447.liga
ENCODING -1
SWIDTH 844 0
DWIDTH 12 0
BBX 12 10 0 0
BITMAP
2C00
2C00
0000
3B30
6B70
DB60
F3E0
C760
C860
F070
ENDCHAR
STARTCHAR uni04360447.liga
ENCODING -1
SWIDTH 1341 0
DWIDTH 19 0
BBX 20 7 -1 0
BITMAP
39BB30
4B6B60
0B6360
0FC760
1B47E0
DA4860
767070
ENDCHAR
STARTCHAR uni04370437.liga
ENCODING -1
SWIDTH 849 0
DWIDTH 12 0
BBX 12 10 0 -3
BITMAP
38E0
4D30
8E30
9A60
33C0
1C60
18E0
7960
5940
71C0
ENDCHAR
STARTCHAR uni04380447.liga
ENCODING -1
SWIDTH 964 0
DWIDTH 14 0
BBX 14 7 0 0
BITMAP
6CDC
6CD8
CCD8
CDF8
D9D8
DA38
EC18
ENDCHAR
STARTCHAR uni04390447.liga
ENCODING -1
SWIDTH 964 0
DWIDTH 14 0
BBX 14 10 0 0
BITMAP
3200
3400
3800
6CDC
6CD8
CDD8
CDF8
D9D8
DA38
EC18
ENDCHAR
STARTCHAR uni043A0447.liga
ENCODING -1
SWIDTH 978 0
DWIDTH 14 0
BBX 15 7 -1 0
BITMAP
3366
3F6C
7C6C
64FC
6CEC
6D0E
E60C
ENDCHAR
STARTCHAR uni045C0447.liga
ENCODING -1
SWIDTH 978 0
DWIDTH 14 0
BBX 15 10 -1 0
BITMAP
0600
0400
0800
3366
3F6C
7C6C
64FC
6CEC
6D0E
E60C
ENDCHAR
STARTCHAR uni043B0447.liga
ENCODING -1
SWIDTH 1015 0
DWIDTH 14 0
BBX 15 7 -1 0
BITMAP
0736
0B66
0B66
166E
567C
D68C
670E
ENDCHAR
STARTCHAR uni043C0447.liga
ENCODING -1
SWIDTH 1231 0
DWIDTH 17 0
BBX 18 7 -1 0
BITMAP
0C66C0
0CECC0
0CECC0
1D4D80
5DCF80
D6D180
6661C0
ENDCHAR
STARTCHAR uni043D0447.liga
ENCODING -1
SWIDTH 965 0
DWIDTH 14 0
BBX 15 7 -1 0
BITMAP
366E
366C
666C
7ECC
66FC
6C98
E70C
ENDCHAR
STARTCHAR uni043E0436.liga
ENCODING -1
SWIDTH 1268 0
DWIDTH 18 0
BBX 18 7 0 0
BITMAP
39CDC0
6ADB40
CC5A00
C8FE00
C8DE00
DEB600
F3B3C0
ENDCHAR
STARTCHAR uni043E0437.liga
ENCODING -1
SWIDTH 765 0
DWIDTH 11 0
BBX 11 10 0 -3
BITMAP
39C0
6A60
CC60
C8C0
CB80
D9C0
F0C0
03C0
0580
0380
ENDCHAR
STARTCHAR uni043E043B.liga
ENCODING -1
SWIDTH 945 0
DWIDTH 13 0
BBX 13 7 0 0
BITMAP
3838
6858
C858
C898
C8B0
DAB0
FF18
ENDCHAR
STARTCHAR uni043E043C.liga
ENCODING -1
SWIDTH 1161 0
DWIDTH 16 0
BBX 16 7 0 0
BITMAP
3863
6867
C867
C8A7
C8AE
DAB6
FF33
ENDCHAR
STARTCHAR uni043E0445.liga
ENCODING -1
SWIDTH 835 0
DWIDTH 12 0
BBX 12 7 0 0
BITMAP
39B0
6990
CFA0
C8C0
C9C0
DAC0
F260
ENDCHAR
STARTCHAR uni043F0447.liga
ENCODING -1
SWIDTH 965 0
DWIDTH 14 0
BBX 15 7 -1 0
BITMAP
3E6E
366C
664C
66FC
64EC
6D18
E60C
ENDCHAR
STARTCHAR uni04400437.liga
ENCODING -1
SWIDTH 818 0
DWIDTH 11 0
BBX 12 11 -1 -3
BITMAP
3000
3EF0
3730
6630
6630
66C0
6C60
F860
C0E0
C160
C1C0
ENDCHAR
STARTCHAR uni04410437.liga
ENCODING -1
SWIDTH 804 0
DWIDTH 11 0
BBX 11 10 0 -3
BITMAP
39E0
6A60
C260
C460
C580
C8C0
F0C0
01C0
02C0
0380
ENDCHAR
STARTCHAR uni04410445.liga
ENCODING -1
SWIDTH 740 0
DWIDTH 10 0
BBX 10 7 0 0
BITMAP
3B40
6B40
C340
C380
C300
C580
F9C0
ENDCHAR
STARTCHAR uni04410447.liga
ENCODING -1
SWIDTH 843 0
DWIDTH 12 0
BBX 12 7 0 0
BITMAP
3B30
6B60
C360
C360
C7E0
C860
F070
ENDCHAR
STARTCHAR uni04420447.liga
ENCODING -1
SWIDTH 1211 0
DWIDTH 17 0
BBX 18 7 -1 0
BITMAP
3FCEC0
36CCC0
66CD80
66CF80
6CCF80
6CD180
ECE1C0
ENDCHAR
STARTCHAR uni04430447.liga
ENCODING -1
SWIDTH 943 0
DWIDTH 13 0
BBX 13 10 0 -3
BITMAP
6CD8
6D98
CD98
CDB0
D9F0
DA30
FC38
3800
7800
7000
ENDCHAR
STARTCHAR uni04430458.liga
ENCODING -1
SWIDTH 694 0
DWIDTH 10 0
BBX 10 13 0 -3
BITMAP
00C0
00C0
0000
6CC0
6D80
CD80
CD80
D980
D980
FB00
3F00
5B00
7E00
ENDCHAR
STARTCHAR uni045E0447.liga
ENCODING -1
SWIDTH 943 0
DWIDTH 13 0
BBX 13 13 0 -3
BITMAP
3600
3800
0000
6CD8
6D98
CD98
CDB0
D9F0
DA30
FC38
3800
7800
7000
ENDCHAR
STARTCHAR uni045E0458.liga
ENCODING -1
SWIDTH 694 0
DWIDTH 10 0
BBX 10 13 0 -3
BITMAP
36C0
38C0
0000
6CC0
6D80
CD80
CD80
D980
D980
FF00
3B00
7300
7E00
ENDCHAR
STARTCHAR uni04440437.liga
ENCODING -1
SWIDTH 1076 0
DWIDTH 15 0
BBX 15 13 0 -3
BITMAP
0200
0600
0600
3F9C
6CE6
CCC6
CCCC
C898
D98C
FF0C
181C
182C
3038
ENDCHAR
STARTCHAR uni04450447.liga
ENCODING -1
SWIDTH 981 0
DWIDTH 14 0
BBX 14 7 0 0
BITMAP
36CC
5AD8
9CD8
98F8
99F8
2918
CE1C
ENDCHAR
STARTCHAR uni04470447.liga
ENCODING -1
SWIDTH 964 0
DWIDTH 14 0
BBX 14 7 0 0
BITMAP
6CDC
6CD8
CCD8
DDF8
79D8
1A38
0C18
ENDCHAR
STARTCHAR uni04480447.liga
ENCODING -1
SWIDTH 1211 0
DWIDTH 17 0
BBX 17 7 0 0
BITMAP
6CDD80
6CD980
CD9B00
CD9B00
D9BF00
DBA300
EDC380
ENDCHAR
STARTCHAR uni045F0447.liga
ENCODING -1
SWIDTH 964 0
DWIDTH 14 0
BBX 14 10 0 -3
BITMAP
6CDC
6CD8
CCD8
CDF8
D9D8
DA38
EC18
3000
3000
1000
ENDCHAR
STARTCHAR uni044B0447.liga
ENCODING -1
SWIDTH 1112 0
DWIDTH 16 0
BBX 16 7 0 0
BITMAP
61B7
6736
DB36
CB7E
CB76
DB8F
F386
ENDCHAR
STARTCHAR uni04550437.liga
ENCODING -1
SWIDTH 768 0
DWIDTH 11 0
BBX 11 10 0 -3
BITMAP
31C0
7260
7460
B4C0
BB80
B8C0
F0C0
03C0
0480
0380
ENDCHAR
STARTCHAR uni04550445.liga
ENCODING -1
SWIDTH 712 0
DWIDTH 10 0
BBX 10 8 0 0
BITMAP
08C0
3640
7340
7380
B300
B300
BF00
E180
ENDCHAR
STARTCHAR uni04550447.liga
ENCODING -1
SWIDTH 864 0
DWIDTH 12 0
BBX 12 7 0 0
BITMAP
31B0
7330
7330
B360
B7E0
B860
E070
ENDCHAR
STARTCHAR uni04540437.liga
ENCODING -1
SWIDTH 804 0
DWIDTH 11 0
BBX 11 10 0 -3
BITMAP
39E0
6A60
F260
C460
C580
C8C0
F0C0
01C0
02C0
0380
ENDCHAR
STARTCHAR uni04540445.liga
ENCODING -1
SWIDTH 740 0
DWIDTH 10 0
BBX 10 7 0 0
BITMAP
3B40
6B40
C340
F380
C300
C580
F9C0
ENDCHAR
STARTCHAR uni04540447.liga
ENCODING -1
SWIDTH 844 0
DWIDTH 12 0
BBX 12 7 0 0
BITMAP
3B30
6B70
C360
F360
C7E0
C860
F070
ENDCHAR
STARTCHAR uni044D0437.liga
ENCODING -1
SWIDTH 765 0
DWIDTH 11 0
BBX 12 10 -1 -3
BITMAP
3CE0
4F30
3E30
0C60
4DC0
D8E0
7060
01E0
02C0
01C0
ENDCHAR
STARTCHAR uni04560447.liga
ENCODING -1
SWIDTH 717 0
DWIDTH 10 0
BBX 10 10 0 0
BITMAP
6000
6000
0000
6EC0
6CC0
CCC0
CD80
CF80
D180
E1C0
ENDCHAR
STARTCHAR uni04570447.liga
ENCODING -1
SWIDTH 718 0
DWIDTH 10 0
BBX 10 10 0 0
BITMAP
D000
D000
0000
6EC0
6CC0
CCC0
CD80
CF80
D180
E1C0
ENDCHAR
STARTCHAR uni04570457.liga
ENCODING -1
SWIDTH 476 0
DWIDTH 7 0
BBX 8 10 0 0
BITMAP
F5
FF
00
66
6C
CC
CC
CC
DE
EC
ENDCHAR
STARTCHAR uni04580447.liga
ENCODING -1
SWIDTH 697 0
DWIDTH 10 0
BBX 13 13 -3 -3
BITMAP
0C00
0C00
0000
0D98
0DB0
19B0
19B0
1BF0
1A30
1C38
7000
B000
E000
ENDCHAR
STARTCHAR uni04580458.liga
ENCODING -1
SWIDTH 449 0
DWIDTH 6 0
BBX 10 13 -3 -3
BITMAP
0DC0
0CC0
0000
0D80
0D80
1980
1980
1B00
1B00
1F00
7300
B600
EE00
ENDCHAR
STARTCHAR uni045B0447.liga
ENCODING -1
SWIDTH 937 0
DWIDTH 13 0
BBX 14 13 -1 -3
BITMAP
3800
3000
7C00
306C
3CCC
76CC
66F8
6CF8
6D18
EE1C
3C00
2800
3800
ENDCHAR
STARTCHAR uni045B0458.liga
ENCODING -1
SWIDTH 691 0
DWIDTH 10 0
BBX 11 13 -1 -3
BITMAP
3860
3060
7C00
3060
3CC0
76C0
66C0
6CC0
6CC0
EF80
3D80
3980
3F00
ENDCHAR
STARTCHAR uni044E0436.liga
ENCODING -1
SWIDTH 1503 0
DWIDTH 21 0
BBX 22 7 -1 0
BITMAP
339CDC
3664D4
66C7B0
7CC7F0
6C85A0
6CADB0
E73B3C
ENDCHAR
STARTCHAR uni044E0437.liga
ENCODING -1
SWIDTH 1001 0
DWIDTH 14 0
BBX 15 10 -1 -3
BITMAP
339C
36E6
7EC6
6CCC
6C98
6C8C
E70C
003C
002C
0038
ENDCHAR
STARTCHAR uni044E043B.liga
ENCODING -1
SWIDTH 1181 0
DWIDTH 17 0
BBX 18 7 -1 0
BITMAP
3383C0
364580
664580
7CC580
6C8580
6CA900
E7F9C0
ENDCHAR
STARTCHAR uni044E043C.liga
ENCODING -1
SWIDTH 1396 0
DWIDTH 20 0
BBX 21 7 -1 0
BITMAP
338338
364730
664770
7CC770
6C87B0
6CABA0
E7FB30
ENDCHAR
STARTCHAR uni044E0445.liga
ENCODING -1
SWIDTH 1072 0
DWIDTH 15 0
BBX 16 7 -1 0
BITMAP
339B
36ED
7ECE
6CDC
6CBC
6CAE
E736
ENDCHAR
STARTCHAR uni044F0447.liga
ENCODING -1
SWIDTH 984 0
DWIDTH 14 0
BBX 15 7 -1 0
BITMAP
1F66
326C
366C
3E7C
56EC
D68C
670E
ENDCHAR
STARTCHAR brevecombcy
ENCODING -1
SWIDTH 0 0
DWIDTH 0 0
BBX 5 2 -4 7
BITMAP
D8
E0
ENDCHAR
STARTCHAR brevecombcy.case
ENCODING -1
SWIDTH 0 0
DWIDTH 0 0
BBX 4 2 -3 11
BITMAP
90
E0
ENDCHAR
ENDFONT
